{
.appVersion = "924";
copyright = "Copyright 2012 The Trocchi Project Authors (vern@newtypography.co.uk)";
customParameters = (
{
name = licenseURL;
value = "http://scripts.sil.org/OFL";
},
{
name = vendorID;
value = NeWT;
},
{
name = license;
value = "This Font Software is licensed under the SIL Open Font License, Version 1.1. This license is available with a FAQ at: http://scripts.sil.org/OFL";
},
{
name = fsType;
value = (
);
},
{
name = "Use Typo Metrics";
value = 1;
}
);
date = "2016-09-14 13:18:40 +0000";
designer = "Vernon Adams";
designerURL = "http://www.newtypography.co.uk";
familyName = Trocchi;
featurePrefixes = (
{
automatic = 1;
code = "languagesystem DFLT dflt;\012languagesystem grek dflt;\012languagesystem latn dflt;\012languagesystem latn CAT;\012";
name = Languagesystems;
}
);
features = (
{
code = "sub period period period by ellipsis;\012sub one slash two by onehalf;\012sub one slash four by onequarter;\012sub three slash four by threequarters;\012sub f f i by f_f_i;\012sub f f l by f_f_l;\012sub f f by f_f;\012sub f i by fi;\012sub f j by f_j;\012sub f l by fl;\012script grek;\012sub period period period by ellipsis;\012sub one slash two by onehalf;\012sub one slash four by onequarter;\012sub three slash four by threequarters;\012sub f f i by f_f_i;\012sub f f l by f_f_l;\012sub f f by f_f;\012sub f i by fi;\012sub f j by f_j;\012sub f l by fl;\012script latn;\012sub period period period by ellipsis;\012sub one slash two by onehalf;\012sub one slash four by onequarter;\012sub three slash four by threequarters;\012sub f f i by f_f_i;\012sub f f l by f_f_l;\012sub f f by f_f;\012sub f i by fi;\012sub f j by f_j;\012sub f l by fl;\012";
name = liga;
},
{
code = "sub c h by c_h;\012sub c k by c_k;\012sub s h by s_h;\012sub t t by t_t;\012script grek;\012sub c h by c_h;\012sub c k by c_k;\012sub s h by s_h;\012sub t t by t_t;\012script latn;\012sub c h by c_h;\012sub c k by c_k;\012sub s h by s_h;\012sub t t by t_t;\012";
name = dlig;
},
{

glyphs = (
{
glyphname = A;
lastChange = "2016-09-02 12:46:05 +0000";
layers = (
{
layerId = "EE746D13-63D7-48F9-B77E-C723CA6A668B";
paths = (
{
closed = 1;
nodes = (
"635 0 LINE",
"635 143 LINE",
"383 143 LINE",
"514 504 LINE",
"1092 504 LINE",
"1231 143 LINE",
"1008 143 LINE",
"1008 0 LINE",
"1655 0 LINE",
"1655 143 LINE",
"1487 143 LINE",
"952 1505 LINE",
"715 1505 LINE",
"188 143 LINE",
"8 143 LINE",
"8 0 LINE"
);
},
{
closed = 1;
nodes = (
"795 1309 LINE",
"1042 631 LINE",
"561 631 LINE"
);
}
);
width = 1662;
}
);
leftKerningGroup = A;
note = A;
rightKerningGroup = A;
unicode = 0041;
},
{
glyphname = AE;
lastChange = "2016-09-02 12:46:05 +0000";
layers = (
{
layerId = "EE746D13-63D7-48F9-B77E-C723CA6A668B";
paths = (
{
closed = 1;
nodes = (
"618 0 LINE",
"618 137 LINE",
"401 137 LINE",
"598 504 LINE",
"1059 504 LINE",
"1059 137 LINE",
"874 137 LINE",
"874 0 LINE",
"2073 0 LINE",
"2073 571 LINE",
"1892 571 LINE",
"1892 137 LINE",
"1276 137 LINE",
"1276 698 LINE",
"1567 698 LINE",
"1567 424 LINE",
"1700 424 LINE",
"1700 1038 LINE",
"1567 1038 LINE",
"1567 813 LINE",
"1276 813 LINE",
"1276 1335 LINE",
"1892 1335 LINE",
"1892 899 LINE",
"2073 899 LINE",
"2073 1479 LINE",
"608 1479 LINE",
"608 1335 LINE",
"874 1335 LINE",
"180 137 LINE",
"0 137 LINE",
"0 0 LINE"
);
},
{
closed = 1;
nodes = (
"1059 1335 LINE",
"1059 631 LINE",
"668 631 LINE"
);
}
);
width = 2164;
}
);
note = AE;
unicode = 00C6;
},
{
glyphname = B;
lastChange = "2016-09-02 12:46:05 +0000";
layers = (
{
layerId = "EE746D13-63D7-48F9-B77E-C723CA6A668B";
paths = (
{
closed = 1;
nodes = (
"696 0 LINE SMOOTH",
"742 0 OFFCURVE",
"783 1 OFFCURVE",
"818 2 CURVE SMOOTH",
"888 5 OFFCURVE",
"1001 18 OFFCURVE",
"1075 39 CURVE SMOOTH",
"1149 60 OFFCURVE",
"1236 103 OFFCURVE",
"1287 160 CURVE SMOOTH",
"1338 216 OFFCURVE",
"1374 304 OFFCURVE",
"1374 412 CURVE SMOOTH",
"1374 621 OFFCURVE",
"1247 753 OFFCURVE",
"1018 809 CURVE",
"1199 861 OFFCURVE",
"1294 962 OFFCURVE",
"1294 1133 CURVE SMOOTH",
"1294 1234 OFFCURVE",
"1255 1318 OFFCURVE",
"1191 1371 CURVE SMOOTH",
"1126 1423 OFFCURVE",
"1049 1460 OFFCURVE",
"953 1479 CURVE SMOOTH",
"857 1498 OFFCURVE",
"777 1505 OFFCURVE",
"688 1505 CURVE SMOOTH",
"33 1505 LINE",
"33 1362 LINE",
"279 1362 LINE",
"279 143 LINE",
"33 143 LINE",
"33 0 LINE"
);
},
{
closed = 1;
nodes = (
"514 729 LINE",
"731 729 LINE SMOOTH",
"835 729 OFFCURVE",
"933 703 OFFCURVE",
"1011 655 CURVE SMOOTH",
"1089 606 OFFCURVE",
"1139 523 OFFCURVE",
"1139 420 CURVE SMOOTH",
"1139 359 OFFCURVE",
"1130 310 OFFCURVE",
"1107 273 CURVE SMOOTH",
"1083 236 OFFCURVE",
"1057 209 OFFCURVE",
"1011 190 CURVE SMOOTH",
"965 171 OFFCURVE",
"921 159 OFFCURVE",
"853 152 CURVE SMOOTH",
"784 145 OFFCURVE",
"724 143 OFFCURVE",
"633 143 CURVE SMOOTH",
"514 143 LINE"
);
},
{
closed = 1;
nodes = (
"514 1362 LINE",
"594 1362 LINE SMOOTH",
"642 1362 OFFCURVE",
"683 1361 OFFCURVE",
"717 1360 CURVE SMOOTH",
"784 1356 OFFCURVE",
"863 1348 OFFCURVE",
"911 1333 CURVE SMOOTH",
"959 1317 OFFCURVE",
"1009 1291 OFFCURVE",
"1035 1255 CURVE SMOOTH",
"1061 1218 OFFCURVE",
"1077 1167 OFFCURVE",
"1077 1100 CURVE SMOOTH",
"1077 1016 OFFCURVE",
"1033 950 OFFCURVE",
"965 915 CURVE SMOOTH",
"896 879 OFFCURVE",
"816 862 OFFCURVE",
"731 862 CURVE SMOOTH",
"514 862 LINE"
);
}
);
width = 1445;
}
);
note = B;
rightKerningGroup = B;
unicode = 0042;
},
{
glyphname = C;
lastChange = "2016-09-02 12:46:05 +0000";
layers = (
{
layerId = "EE746D13-63D7-48F9-B77E-C723CA6A668B";
paths = (
{
closed = 1;
nodes = (
"1139 -27 OFFCURVE",
"1359 149 OFFCURVE",
"1430 457 CURVE",
"1296 522 LINE",
"1273 434 OFFCURVE",
"1225 349 OFFCURVE",
"1154 278 CURVE SMOOTH",
"1083 206 OFFCURVE",
"975 158 OFFCURVE",
"858 158 CURVE SMOOTH",
"702 158 OFFCURVE",
"565 236 OFFCURVE",
"481 353 CURVE SMOOTH",
"397 469 OFFCURVE",
"348 617 OFFCURVE",
"348 764 CURVE SMOOTH",
"348 1148 OFFCURVE",
"543 1396 OFFCURVE",
"815 1396 CURVE SMOOTH",
"983 1396 OFFCURVE",
"1117 1317 OFFCURVE",
"1182 1217 CURVE",
"1102 1217 OFFCURVE",
"1004 1160 OFFCURVE",
"1004 1057 CURVE SMOOTH",
"1004 954 OFFCURVE",
"1073 891 OFFCURVE",
"1174 891 CURVE SMOOTH",
"1293 891 OFFCURVE",
"1370 982 OFFCURVE",
"1370 1073 CURVE SMOOTH",
"1370 1161 OFFCURVE",
"1343 1241 OFFCURVE",
"1288 1313 CURVE SMOOTH",
"1179 1457 OFFCURVE",
"1000 1536 OFFCURVE",
"817 1536 CURVE SMOOTH",
"601 1536 OFFCURVE",
"412 1454 OFFCURVE",
"285 1319 CURVE SMOOTH",
"158 1183 OFFCURVE",
"84 988 OFFCURVE",
"84 768 CURVE SMOOTH",
"84 555 OFFCURVE",
"157 353 OFFCURVE",
"280 209 CURVE SMOOTH",
"403 65 OFFCURVE",
"588 -27 OFFCURVE",
"795 -27 CURVE SMOOTH"
);
}
);
width = 1447;
}
);
leftKerningGroup = C;
note = C;
unicode = 0043;
},
{
glyphname = D;
lastChange = "2016-09-02 12:46:05 +0000";
layers = (
{
layerId = "EE746D13-63D7-48F9-B77E-C723CA6A668B";
paths = (
{
closed = 1;
nodes = (
"522 0 LINE SMOOTH",
"637 0 OFFCURVE",
"743 9 OFFCURVE",
"840 27 CURVE SMOOTH",
"1033 63 OFFCURVE",
"1198 142 OFFCURVE",
"1310 259 CURVE SMOOTH",
"1421 376 OFFCURVE",
"1485 549 OFFCURVE",
"1485 762 CURVE SMOOTH",
"1485 875 OFFCURVE",
"1466 976 OFFCURVE",
"1429 1064 CURVE SMOOTH",
"1354 1239 OFFCURVE",
"1232 1342 OFFCURVE",
"1056 1412 CURVE SMOOTH",
"880 1482 OFFCURVE",
"701 1505 OFFCURVE",
"485 1505 CURVE SMOOTH",
"33 1505 LINE",
"33 1362 LINE",
"276 1362 LINE",
"276 143 LINE",
"33 143 LINE",
"33 0 LINE"
);
},
{
closed = 1;
nodes = (
"512 1360 LINE",
"569 1360 OFFCURVE",
"621 1358 OFFCURVE",
"669 1354 CURVE SMOOTH",
"765 1345 OFFCURVE",
"871 1322 OFFCURVE",
"951 1285 CURVE SMOOTH",
"1030 1248 OFFCURVE",
"1105 1185 OFFCURVE",
"1153 1103 CURVE SMOOTH",
"1200 1021 OFFCURVE",
"1229 903 OFFCURVE",
"1229 762 CURVE SMOOTH",
"1229 667 OFFCURVE",
"1217 584 OFFCURVE",
"1192 512 CURVE SMOOTH",
"1143 368 OFFCURVE",
"1060 280 OFFCURVE",
"936 222 CURVE SMOOTH",
"812 164 OFFCURVE",
"680 143 OFFCURVE",
"512 143 CURVE"
);
}
);
width = 1568;
}
);
note = D;
rightKerningGroup = D;
unicode = 0044;
},
{
glyphname = Eth;
lastChange = "2016-09-02 12:46:05 +0000";
layers = (
{
layerId = "EE746D13-63D7-48F9-B77E-C723CA6A668B";
paths = (
{
closed = 1;
nodes = (
"522 0 LINE SMOOTH",
"637 0 OFFCURVE",
"743 9 OFFCURVE",
"840 27 CURVE SMOOTH",
"1033 63 OFFCURVE",
"1198 142 OFFCURVE",
"1310 259 CURVE SMOOTH",
"1421 376 OFFCURVE",
"1485 549 OFFCURVE",
"1485 762 CURVE SMOOTH",
"1485 875 OFFCURVE",
"1466 976 OFFCURVE",
"1429 1064 CURVE SMOOTH",
"1354 1239 OFFCURVE",
"1232 1342 OFFCURVE",
"1056 1412 CURVE SMOOTH",
"880 1482 OFFCURVE",
"701 1505 OFFCURVE",
"485 1505 CURVE SMOOTH",
"33 1505 LINE",
"33 1362 LINE",
"276 1362 LINE",
"276 834 LINE",
"55 834 LINE",
"55 690 LINE",
"276 690 LINE",
"276 137 LINE",
"33 137 LINE",
"33 0 LINE"
);
},
{
closed = 1;
nodes = (
"512 690 LINE",
"764 690 LINE",
"764 834 LINE",
"512 834 LINE",
"512 1360 LINE",
"569 1360 OFFCURVE",
"621 1358 OFFCURVE",
"669 1354 CURVE SMOOTH",
"765 1345 OFFCURVE",
"871 1322 OFFCURVE",
"951 1285 CURVE SMOOTH",
"1030 1248 OFFCURVE",
"1105 1185 OFFCURVE",
"1153 1103 CURVE SMOOTH",
"1200 1021 OFFCURVE",
"1229 903 OFFCURVE",
"1229 762 CURVE SMOOTH",
"1229 667 OFFCURVE",
"1217 583 OFFCURVE",
"1192 510 CURVE SMOOTH",
"1143 364 OFFCURVE",
"1060 276 OFFCURVE",
"936 217 CURVE SMOOTH",
"812 157 OFFCURVE",
"680 137 OFFCURVE",
"512 137 CURVE"
);
}
);
width = 1613;
}
);
note = Eth;
rightKerningGroup = D;
unicode = 00D0;
},
{
glyphname = Dcroat;
lastChange = "2016-09-02 12:46:05 +0000";
layers = (
{
layerId = "EE746D13-63D7-48F9-B77E-C723CA6A668B";
paths = (
{
closed = 1;
nodes = (
"522 0 LINE SMOOTH",
"637 0 OFFCURVE",
"743 9 OFFCURVE",
"840 27 CURVE SMOOTH",
"1033 63 OFFCURVE",
"1198 142 OFFCURVE",
"1310 259 CURVE SMOOTH",
"1421 376 OFFCURVE",
"1485 549 OFFCURVE",
"1485 762 CURVE SMOOTH",
"1485 875 OFFCURVE",
"1466 976 OFFCURVE",
"1429 1064 CURVE SMOOTH",
"1354 1239 OFFCURVE",
"1232 1342 OFFCURVE",
"1056 1412 CURVE SMOOTH",
"880 1482 OFFCURVE",
"701 1505 OFFCURVE",
"485 1505 CURVE SMOOTH",
"33 1505 LINE",
"33 1362 LINE",
"276 1362 LINE",
"276 834 LINE",
"55 834 LINE",
"55 690 LINE",
"276 690 LINE",
"276 137 LINE",
"33 137 LINE",
"33 0 LINE"
);
},
{
closed = 1;
nodes = (
"512 690 LINE",
"764 690 LINE",
"764 834 LINE",
"512 834 LINE",
"512 1360 LINE",
"569 1360 OFFCURVE",
"621 1358 OFFCURVE",
"669 1354 CURVE SMOOTH",
"765 1345 OFFCURVE",
"871 1322 OFFCURVE",
"951 1285 CURVE SMOOTH",
"1030 1248 OFFCURVE",
"1105 1185 OFFCURVE",
"1153 1103 CURVE SMOOTH",
"1200 1021 OFFCURVE",
"1229 903 OFFCURVE",
"1229 762 CURVE SMOOTH",
"1229 667 OFFCURVE",
"1217 583 OFFCURVE",
"1192 510 CURVE SMOOTH",
"1143 364 OFFCURVE",
"1060 276 OFFCURVE",
"936 217 CURVE SMOOTH",
"812 157 OFFCURVE",
"680 137 OFFCURVE",
"512 137 CURVE"
);
}
);
width = 1613;
}
);
note = Dcroat;
rightKerningGroup = D;
unicode = 0110;
},
{
glyphname = E;
lastChange = "2016-09-02 12:46:05 +0000";
layers = (
{
layerId = "EE746D13-63D7-48F9-B77E-C723CA6A668B";
paths = (
{
closed = 1;
nodes = (
"1393 0 LINE",
"1393 571 LINE",
"1212 571 LINE",
"1212 143 LINE",
"514 143 LINE",
"514 707 LINE",
"887 707 LINE",
"887 446 LINE",
"1020 446 LINE",
"1020 1067 LINE",
"887 1067 LINE",
"887 821 LINE",
"514 821 LINE",
"514 1362 LINE",
"1212 1362 LINE",
"1212 926 LINE",
"1393 926 LINE",
"1393 1505 LINE",
"33 1505 LINE",
"33 1362 LINE",
"279 1362 LINE",
"279 143 LINE",
"33 143 LINE",
"33 0 LINE"
);
}
);
width = 1484;
}
);
note = E;
unicode = 0045;
},
{
glyphname = F;
lastChange = "2016-09-02 12:46:05 +0000";
layers = (
{
layerId = "EE746D13-63D7-48F9-B77E-C723CA6A668B";
paths = (
{
closed = 1;
nodes = (
"772 0 LINE",
"772 143 LINE",
"512 143 LINE",
"512 725 LINE",
"872 725 LINE",
"872 471 LINE",
"1010 471 LINE",
"1010 1055 LINE",
"872 1055 LINE",
"872 844 LINE",
"512 844 LINE",
"512 1362 LINE",
"1192 1362 LINE",
"1192 956 LINE",
"1374 956 LINE",
"1374 1505 LINE",
"33 1505 LINE",
"33 1362 LINE",
"276 1362 LINE",
"276 143 LINE",
"33 143 LINE",
"33 0 LINE"
);
}
);
width = 1409;
}
);
note = F;
rightKerningGroup = F;
unicode = 0046;
},
{
glyphname = G;
lastChange = "2016-09-02 12:46:05 +0000";
layers = (
{
layerId = "EE746D13-63D7-48F9-B77E-C723CA6A668B";
paths = (
{
closed = 1;
nodes = (
"877 -27 OFFCURVE",
"963 -12 OFFCURVE",
"1051 22 CURVE SMOOTH",
"1139 56 OFFCURVE",
"1217 122 OFFCURVE",
"1262 211 CURVE",
"1311 0 LINE",
"1432 0 LINE",
"1432 586 LINE",
"1595 586 LINE",
"1595 737 LINE",
"944 737 LINE",
"944 586 LINE",
"1227 586 LINE",
"1227 446 LINE SMOOTH",
"1227 386 OFFCURVE",
"1185 314 OFFCURVE",
"1121 255 CURVE SMOOTH",
"1056 195 OFFCURVE",
"955 152 OFFCURVE",
"852 152 CURVE SMOOTH",
"708 152 OFFCURVE",
"575 225 OFFCURVE",
"488 337 CURVE SMOOTH",
"400 449 OFFCURVE",
"346 603 OFFCURVE",
"346 762 CURVE SMOOTH",
"346 881 OFFCURVE",
"367 988 OFFCURVE",
"408 1083 CURVE SMOOTH",
"491 1273 OFFCURVE",
"659 1396 OFFCURVE",
"874 1396 CURVE SMOOTH",
"913 1396 OFFCURVE",
"951 1392 OFFCURVE",
"990 1384 CURVE SMOOTH",
"1066 1368 OFFCURVE",
"1168 1316 OFFCURVE",
"1225 1237 CURVE",
"1221 1237 LINE SMOOTH",
"1169 1237 OFFCURVE",
"1094 1170 OFFCURVE",
"1094 1077 CURVE SMOOTH",
"1094 997 OFFCURVE",
"1166 920 OFFCURVE",
"1262 920 CURVE SMOOTH",
"1366 920 OFFCURVE",
"1434 1002 OFFCURVE",
"1434 1085 CURVE SMOOTH",
"1434 1167 OFFCURVE",
"1410 1242 OFFCURVE",
"1361 1311 CURVE SMOOTH",
"1264 1447 OFFCURVE",
"1076 1536 OFFCURVE",
"855 1536 CURVE SMOOTH",
"620 1536 OFFCURVE",
"416 1443 OFFCURVE",
"288 1299 CURVE SMOOTH",
"159 1155 OFFCURVE",
"84 963 OFFCURVE",
"84 760 CURVE SMOOTH",
"84 683 OFFCURVE",
"93 607 OFFCURVE",
"111 533 CURVE SMOOTH",
"147 384 OFFCURVE",
"226 244 OFFCURVE",
"335 141 CURVE SMOOTH",
"443 38 OFFCURVE",
"604 -27 OFFCURVE",
"788 -27 CURVE SMOOTH"
);
}
);
width = 1599;
}
);
leftKerningGroup = C;
note = G;
unicode = 0047;
},
{
glyphname = H;
lastChange = "2016-09-02 12:46:05 +0000";
layers = (
{
layerId = "EE746D13-63D7-48F9-B77E-C723CA6A668B";
paths = (
{
closed = 1;
nodes = (
"741 0 LINE",
"741 143 LINE",
"512 143 LINE",
"512 725 LINE",
"1143 725 LINE",
"1143 143 LINE",
"911 143 LINE",
"911 0 LINE",
"1622 0 LINE",
"1622 143 LINE",
"1378 143 LINE",
"1378 1362 LINE",
"1622 1362 LINE",
"1622 1505 LINE",
"911 1505 LINE",
"911 1362 LINE",
"1143 1362 LINE",
"1143 852 LINE",
"512 852 LINE",
"512 1362 LINE",
"741 1362 LINE",
"741 1505 LINE",
"33 1505 LINE",
"33 1362 LINE",
"276 1362 LINE",
"276 143 LINE",
"33 143 LINE",
"33 0 LINE"
);
}
);
width = 1654;
}
);
note = H;
rightKerningGroup = H;
unicode = 0048;
},
{
glyphname = Hbar;
lastChange = "2016-09-02 12:46:05 +0000";
layers = (
{
layerId = "EE746D13-63D7-48F9-B77E-C723CA6A668B";
paths = (
{
closed = 1;
nodes = (
"741 0 LINE",
"741 137 LINE",
"512 137 LINE",
"512 725 LINE",
"1143 725 LINE",
"1143 137 LINE",
"911 137 LINE",
"911 0 LINE",
"1622 0 LINE",
"1622 137 LINE",
"1378 137 LINE",
"1378 1048 LINE",
"1484 1048 LINE",
"1484 1166 LINE",
"1378 1166 LINE",
"1378 1362 LINE",
"1622 1362 LINE",
"1622 1505 LINE",
"911 1505 LINE",
"911 1362 LINE",
"1143 1362 LINE",
"1143 1166 LINE",
"512 1166 LINE",
"512 1362 LINE",
"741 1362 LINE",
"741 1505 LINE",
"33 1505 LINE",
"33 1362 LINE",
"276 1362 LINE",
"276 1166 LINE",
"173 1166 LINE",
"173 1048 LINE",
"276 1048 LINE",
"276 137 LINE",
"33 137 LINE",
"33 0 LINE"
);
},
{
closed = 1;
nodes = (
"512 1048 LINE",
"1143 1048 LINE",
"1143 852 LINE",
"512 852 LINE"
);
}
);
width = 1654;
}
);
note = Hbar;
rightKerningGroup = H;
unicode = 0126;
},
{
glyphname = I;
lastChange = "2016-09-02 12:46:05 +0000";
layers = (
{
layerId = "EE746D13-63D7-48F9-B77E-C723CA6A668B";
paths = (
{
closed = 1;
nodes = (
"739 0 LINE",
"739 143 LINE",
"509 143 LINE",
"509 1362 LINE",
"739 1362 LINE",
"739 1505 LINE",
"30 1505 LINE",
"30 1362 LINE",
"274 1362 LINE",
"274 143 LINE",
"30 143 LINE",
"30 0 LINE"
);
}
);
width = 769;
}
);
note = I;
unicode = 0049;
},
{
glyphname = J;
lastChange = "2016-09-02 12:46:03 +0000";
layers = (
{
layerId = "EE746D13-63D7-48F9-B77E-C723CA6A668B";
paths = (
{
closed = 1;
nodes = (
"524 -201 OFFCURVE",
"588 -191 OFFCURVE",
"643 -172 CURVE SMOOTH",
"753 -134 OFFCURVE",
"816 -73 OFFCURVE",
"857 22 CURVE SMOOTH",
"898 117 OFFCURVE",
"911 213 OFFCURVE",
"911 338 CURVE SMOOTH",
"911 1362 LINE",
"1149 1362 LINE",
"1149 1505 LINE",
"395 1505 LINE",
"395 1362 LINE",
"676 1362 LINE",
"676 311 LINE SMOOTH",
"676 258 OFFCURVE",
"674 213 OFFCURVE",
"671 176 CURVE SMOOTH",
"664 101 OFFCURVE",
"646 25 OFFCURVE",
"612 -18 CURVE SMOOTH",
"578 -61 OFFCURVE",
"520 -88 OFFCURVE",
"440 -88 CURVE SMOOTH",
"376 -88 OFFCURVE",
"285 -63 OFFCURVE",
"260 -27 CURVE",
"315 6 OFFCURVE",
"371 70 OFFCURVE",
"371 141 CURVE SMOOTH",
"371 238 OFFCURVE",
"293 301 OFFCURVE",
"205 301 CURVE SMOOTH",
"112 301 OFFCURVE",
"35 235 OFFCURVE",
"35 123 CURVE SMOOTH",
"35 -56 OFFCURVE",
"206 -201 OFFCURVE",
"451 -201 CURVE SMOOTH"
);
}
);
width = 1161;
}
);
note = J;
rightKerningGroup = J;
unicode = 004A;
},
{
glyphname = K;
lastChange = "2016-09-02 12:46:05 +0000";
layers = (
{
layerId = "EE746D13-63D7-48F9-B77E-C723CA6A668B";
paths = (
{
closed = 1;
nodes = (
"723 0 LINE",
"723 143 LINE",
"512 143 LINE",
"512 553 LINE",
"684 696 LINE",
"1128 143 LINE",
"905 143 LINE",
"905 0 LINE",
"1612 0 LINE",
"1612 143 LINE",
"1436 143 LINE",
"862 825 LINE",
"1370 1362 LINE",
"1599 1362 LINE",
"1599 1505 LINE",
"889 1505 LINE",
"889 1362 LINE",
"1118 1362 LINE",
"1006 1239 LINE SMOOTH",
"855 1075 OFFCURVE",
"649 853 OFFCURVE",
"612 817 CURVE SMOOTH",
"596 801 OFFCURVE",
"524 739 OFFCURVE",
"512 735 CURVE",
"512 1362 LINE",
"723 1362 LINE",
"723 1505 LINE",
"33 1505 LINE",
"33 1362 LINE",
"276 1362 LINE",
"276 143 LINE",
"33 143 LINE",
"33 0 LINE"
);
}
);
width = 1624;
}
);
note = K;
rightKerningGroup = K;
unicode = 004B;
},
{
glyphname = L;
lastChange = "2016-09-02 12:46:05 +0000";
layers = (
{
layerId = "EE746D13-63D7-48F9-B77E-C723CA6A668B";
paths = (
{
closed = 1;
nodes = (
"1264 0 LINE",
"1264 625 LINE",
"1077 625 LINE",
"1077 143 LINE",
"512 143 LINE",
"512 1362 LINE",
"741 1362 LINE",
"741 1505 LINE",
"33 1505 LINE",
"33 1362 LINE",
"276 1362 LINE",
"276 143 LINE",
"33 143 LINE",
"33 0 LINE"
);
}
);
width = 1290;
}
);
note = L;
rightKerningGroup = L;
unicode = 004C;
},
{
glyphname = Lslash;
lastChange = "2016-09-02 12:46:05 +0000";
layers = (
{
layerId = "EE746D13-63D7-48F9-B77E-C723CA6A668B";
paths = (
{
closed = 1;
nodes = (
"1264 0 LINE",
"1264 625 LINE",
"1077 625 LINE",
"1077 137 LINE",
"512 137 LINE",
"512 821 LINE",
"724 925 LINE",
"724 1073 LINE",
"512 969 LINE",
"512 1362 LINE",
"741 1362 LINE",
"741 1505 LINE",
"33 1505 LINE",
"33 1362 LINE",
"276 1362 LINE",
"276 853 LINE",
"61 747 LINE",
"61 599 LINE",
"276 705 LINE",
"276 137 LINE",
"33 137 LINE",
"33 0 LINE"
);
}
);
width = 1290;
}
);
note = Lslash;
rightKerningGroup = L;
unicode = 0141;
},
{
glyphname = M;
lastChange = "2016-09-02 12:46:05 +0000";
layers = (
{
layerId = "EE746D13-63D7-48F9-B77E-C723CA6A668B";
paths = (
{
closed = 1;
nodes = (
"705 0 LINE",
"705 143 LINE",
"453 143 LINE",
"453 1360 LINE",
"891 252 LINE SMOOTH",
"907 212 OFFCURVE",
"938 182 OFFCURVE",
"969 182 CURVE SMOOTH",
"998 182 OFFCURVE",
"1023 207 OFFCURVE",
"1042 258 CURVE SMOOTH",
"1432 1329 LINE",
"1432 143 LINE",
"1212 143 LINE",
"1212 0 LINE",
"1905 0 LINE",
"1905 143 LINE",
"1657 143 LINE",
"1657 1362 LINE",
"1890 1362 LINE",
"1890 1505 LINE",
"1327 1505 LINE",
"995 557 LINE",
"639 1505 LINE",
"33 1505 LINE",
"33 1362 LINE",
"270 1362 LINE",
"270 143 LINE",
"51 143 LINE",
"51 0 LINE"
);
}
);
width = 1937;
}
);
note = M;
rightKerningGroup = H;
unicode = 004D;
},
{
glyphname = N;
lastChange = "2016-09-02 12:46:05 +0000";
layers = (
{
layerId = "EE746D13-63D7-48F9-B77E-C723CA6A668B";
paths = (
{
closed = 1;
nodes = (
"694 0 LINE",
"694 143 LINE",
"465 143 LINE",
"465 1292 LINE",
"1208 0 LINE",
"1475 0 LINE",
"1475 1362 LINE",
"1704 1362 LINE",
"1704 1505 LINE",
"1040 1505 LINE",
"1040 1362 LINE",
"1284 1362 LINE",
"1284 266 LINE",
"573 1505 LINE",
"33 1505 LINE",
"33 1362 LINE",
"274 1362 LINE",
"274 143 LINE",
"33 143 LINE",
"33 0 LINE"
);
}
);
width = 1720;
}
);
note = N;
rightKerningGroup = H;
unicode = 004E;
},
{
glyphname = O;
lastChange = "2016-09-02 12:46:05 +0000";
layers = (
{
layerId = "EE746D13-63D7-48F9-B77E-C723CA6A668B";
paths = (
{
closed = 1;
nodes = (
"888 -27 OFFCURVE",
"973 -12 OFFCURVE",
"1052 18 CURVE SMOOTH",
"1208 77 OFFCURVE",
"1315 179 OFFCURVE",
"1392 313 CURVE SMOOTH",
"1469 447 OFFCURVE",
"1505 598 OFFCURVE",
"1505 754 CURVE SMOOTH",
"1505 832 OFFCURVE",
"1496 908 OFFCURVE",
"1478 983 CURVE SMOOTH",
"1441 1131 OFFCURVE",
"1362 1270 OFFCURVE",
"1252 1371 CURVE SMOOTH",
"1142 1472 OFFCURVE",
"980 1536 OFFCURVE",
"795 1536 CURVE SMOOTH",
"702 1536 OFFCURVE",
"617 1521 OFFCURVE",
"538 1492 CURVE SMOOTH",
"381 1432 OFFCURVE",
"274 1329 OFFCURVE",
"197 1195 CURVE SMOOTH",
"120 1061 OFFCURVE",
"84 910 OFFCURVE",
"84 754 CURVE SMOOTH",
"84 676 OFFCURVE",
"93 600 OFFCURVE",
"112 525 CURVE SMOOTH",
"148 376 OFFCURVE",
"228 237 OFFCURVE",
"338 137 CURVE SMOOTH",
"448 37 OFFCURVE",
"610 -27 OFFCURVE",
"795 -27 CURVE SMOOTH"
);
},
{
closed = 1;
nodes = (
"738 113 OFFCURVE",
"684 125 OFFCURVE",
"635 149 CURVE SMOOTH",
"535 196 OFFCURVE",
"467 281 OFFCURVE",
"416 390 CURVE SMOOTH",
"364 499 OFFCURVE",
"340 625 OFFCURVE",
"340 756 CURVE SMOOTH",
"340 919 OFFCURVE",
"381 1075 OFFCURVE",
"456 1196 CURVE SMOOTH",
"531 1317 OFFCURVE",
"652 1396 OFFCURVE",
"795 1396 CURVE SMOOTH",
"852 1396 OFFCURVE",
"906 1384 OFFCURVE",
"955 1360 CURVE SMOOTH",
"1054 1311 OFFCURVE",
"1123 1225 OFFCURVE",
"1174 1116 CURVE SMOOTH",
"1225 1007 OFFCURVE",
"1249 880 OFFCURVE",
"1249 752 CURVE SMOOTH",
"1249 589 OFFCURVE",
"1208 433 OFFCURVE",
"1134 313 CURVE SMOOTH",
"1060 192 OFFCURVE",
"938 113 OFFCURVE",
"795 113 CURVE SMOOTH"
);
}
);
width = 1589;
}
);
leftKerningGroup = C;
note = O;
rightKerningGroup = D;
unicode = 004F;
},
{
glyphname = Oslash;
lastChange = "2016-09-02 12:46:05 +0000";
layers = (
{
layerId = "EE746D13-63D7-48F9-B77E-C723CA6A668B";
paths = (
{
closed = 1;
nodes = (
"350 127 LINE",
"471 24 OFFCURVE",
"620 -27 OFFCURVE",
"795 -27 CURVE SMOOTH",
"888 -27 OFFCURVE",
"973 -12 OFFCURVE",
"1052 18 CURVE SMOOTH",
"1208 77 OFFCURVE",
"1315 179 OFFCURVE",
"1392 313 CURVE SMOOTH",
"1469 447 OFFCURVE",
"1505 598 OFFCURVE",
"1505 754 CURVE SMOOTH",
"1505 950 OFFCURVE",
"1446 1142 OFFCURVE",
"1331 1286 CURVE",
"1497 1483 LINE",
"1432 1536 LINE",
"1274 1349 LINE",
"1147 1474 OFFCURVE",
"988 1536 OFFCURVE",
"795 1536 CURVE SMOOTH",
"702 1536 OFFCURVE",
"617 1521 OFFCURVE",
"538 1492 CURVE SMOOTH",
"381 1432 OFFCURVE",
"274 1329 OFFCURVE",
"197 1195 CURVE SMOOTH",
"120 1061 OFFCURVE",
"84 910 OFFCURVE",
"84 754 CURVE SMOOTH",
"84 541 OFFCURVE",
"156 333 OFFCURVE",
"289 186 CURVE",
"100 -37 LINE",
"166 -90 LINE"
);
},
{
closed = 1;
nodes = (
"667 113 OFFCURVE",
"562 169 OFFCURVE",
"479 280 CURVE",
"1179 1107 LINE",
"1226 998 OFFCURVE",
"1249 880 OFFCURVE",
"1249 752 CURVE SMOOTH",
"1249 589 OFFCURVE",
"1208 433 OFFCURVE",
"1134 313 CURVE SMOOTH",
"1060 192 OFFCURVE",
"938 113 OFFCURVE",
"795 113 CURVE SMOOTH"
);
},
{
closed = 1;
nodes = (
"371 470 OFFCURVE",
"340 603 OFFCURVE",
"340 756 CURVE SMOOTH",
"340 919 OFFCURVE",
"381 1077 OFFCURVE",
"456 1198 CURVE SMOOTH",
"531 1319 OFFCURVE",
"652 1399 OFFCURVE",
"795 1399 CURVE SMOOTH",
"937 1399 OFFCURVE",
"1051 1329 OFFCURVE",
"1137 1188 CURVE",
"432 355 LINE"
);
}
);
width = 1589;
}
);
leftKerningGroup = C;
note = Oslash;
rightKerningGroup = D;
unicode = 00D8;
},
{
glyphname = OE;
lastChange = "2016-09-02 12:46:05 +0000";
layers = (
{
layerId = "EE746D13-63D7-48F9-B77E-C723CA6A668B";
paths = (
{
closed = 1;
nodes = (
"2087 0 LINE",
"2087 571 LINE",
"1907 571 LINE",
"1907 137 LINE",
"1268 137 LINE",
"1268 698 LINE",
"1581 698 LINE",
"1581 424 LINE",
"1714 424 LINE",
"1714 1038 LINE",
"1581 1038 LINE",
"1581 813 LINE",
"1268 813 LINE",
"1268 1335 LINE",
"1907 1335 LINE",
"1907 899 LINE",
"2087 899 LINE",
"2087 1479 LINE",
"772 1479 LINE SMOOTH",
"593 1479 OFFCURVE",
"428 1415 OFFCURVE",
"298 1296 CURVE SMOOTH",
"168 1176 OFFCURVE",
"84 978 OFFCURVE",
"84 741 CURVE SMOOTH",
"84 510 OFFCURVE",
"163 314 OFFCURVE",
"289 192 CURVE SMOOTH",
"415 70 OFFCURVE",
"583 0 OFFCURVE",
"768 0 CURVE SMOOTH"
);
},
{
closed = 1;
nodes = (
"526 137 OFFCURVE",
"340 371 OFFCURVE",
"340 743 CURVE SMOOTH",
"340 940 OFFCURVE",
"393 1097 OFFCURVE",
"479 1192 CURVE SMOOTH",
"565 1287 OFFCURVE",
"677 1335 OFFCURVE",
"805 1335 CURVE SMOOTH",
"1042 1335 LINE",
"1042 137 LINE",
"774 137 LINE SMOOTH"
);
}
);
width = 2197;
}
);
leftKerningGroup = C;
note = OE;
unicode = 0152;
},
{
glyphname = P;
lastChange = "2016-09-02 12:46:05 +0000";
layers = (
{
layerId = "EE746D13-63D7-48F9-B77E-C723CA6A668B";
paths = (
{
closed = 1;
nodes = (
"762 0 LINE",
"762 143 LINE",
"512 143 LINE",
"512 676 LINE",
"592 676 LINE SMOOTH",
"649 676 OFFCURVE",
"698 677 OFFCURVE",
"741 679 CURVE SMOOTH",
"825 682 OFFCURVE",
"945 695 OFFCURVE",
"1021 718 CURVE SMOOTH",
"1097 741 OFFCURVE",
"1184 785 OFFCURVE",
"1233 843 CURVE SMOOTH",
"1281 901 OFFCURVE",
"1315 989 OFFCURVE",
"1315 1098 CURVE SMOOTH",
"1315 1152 OFFCURVE",
"1307 1201 OFFCURVE",
"1290 1244 CURVE SMOOTH",
"1256 1330 OFFCURVE",
"1207 1382 OFFCURVE",
"1127 1423 CURVE SMOOTH",
"1046 1463 OFFCURVE",
"982 1481 OFFCURVE",
"884 1493 CURVE SMOOTH",
"786 1504 OFFCURVE",
"734 1505 OFFCURVE",
"647 1505 CURVE SMOOTH",
"33 1505 LINE",
"33 1362 LINE",
"276 1362 LINE",
"276 143 LINE",
"33 143 LINE",
"33 0 LINE"
);
},
{
closed = 1;
nodes = (
"512 1362 LINE",
"580 1362 LINE",
"591 1362 LINE SMOOTH",
"625 1362 OFFCURVE",
"654 1362 OFFCURVE",
"677 1361 CURVE SMOOTH",
"724 1360 OFFCURVE",
"793 1357 OFFCURVE",
"834 1350 CURVE SMOOTH",
"874 1343 OFFCURVE",
"928 1332 OFFCURVE",
"959 1314 CURVE SMOOTH",
"990 1296 OFFCURVE",
"1026 1268 OFFCURVE",
"1043 1233 CURVE SMOOTH",
"1060 1197 OFFCURVE",
"1073 1149 OFFCURVE",
"1073 1090 CURVE SMOOTH",
"1073 900 OFFCURVE",
"932 805 OFFCURVE",
"651 805 CURVE SMOOTH",
"512 805 LINE"
);
}
);
width = 1333;
}
);
note = P;
rightKerningGroup = P;
unicode = 0050;
},
{
glyphname = Thorn;
lastChange = "2016-09-02 12:46:05 +0000";
layers = (
{
layerId = "EE746D13-63D7-48F9-B77E-C723CA6A668B";
paths = (
{
closed = 1;
nodes = (
"799 0 LINE",
"799 137 LINE",
"549 137 LINE",
"549 377 LINE",
"629 377 LINE SMOOTH",
"692 377 OFFCURVE",
"742 377 OFFCURVE",
"779 378 CURVE SMOOTH",
"851 379 OFFCURVE",
"991 390 OFFCURVE",
"1059 410 CURVE SMOOTH",
"1127 429 OFFCURVE",
"1225 468 OFFCURVE",
"1270 524 CURVE SMOOTH",
"1315 579 OFFCURVE",
"1352 665 OFFCURVE",
"1352 774 CURVE SMOOTH",
"1352 816 OFFCURVE",
"1347 855 OFFCURVE",
"1336 890 CURVE SMOOTH",
"1315 961 OFFCURVE",
"1286 1010 OFFCURVE",
"1232 1050 CURVE SMOOTH",
"1178 1090 OFFCURVE",
"1135 1114 OFFCURVE",
"1061 1133 CURVE SMOOTH",
"987 1152 OFFCURVE",
"944 1159 OFFCURVE",
"865 1164 CURVE SMOOTH",
"785 1169 OFFCURVE",
"755 1169 OFFCURVE",
"684 1169 CURVE SMOOTH",
"549 1169 LINE",
"549 1335 LINE",
"778 1335 LINE",
"778 1479 LINE",
"70 1479 LINE",
"70 1335 LINE",
"313 1335 LINE",
"313 137 LINE",
"70 137 LINE",
"70 0 LINE"
);
},
{
closed = 1;
nodes = (
"549 1026 LINE",
"616 1026 LINE",
"658 1026 LINE SMOOTH",
"698 1026 OFFCURVE",
"733 1026 OFFCURVE",
"762 1025 CURVE SMOOTH",
"821 1024 OFFCURVE",
"894 1017 OFFCURVE",
"941 1005 CURVE SMOOTH",
"988 992 OFFCURVE",
"1037 966 OFFCURVE",
"1065 930 CURVE SMOOTH",
"1092 894 OFFCURVE",
"1110 838 OFFCURVE",
"1110 766 CURVE SMOOTH",
"1110 721 OFFCURVE",
"1102 683 OFFCURVE",
"1086 651 CURVE SMOOTH",
"1053 586 OFFCURVE",
"1006 552 OFFCURVE",
"928 531 CURVE SMOOTH",
"850 510 OFFCURVE",
"784 506 OFFCURVE",
"688 506 CURVE SMOOTH",
"549 506 LINE"
);
}
);
width = 1382;
}
);
note = Thorn;
unicode = 00DE;
},
{
glyphname = Q;
lastChange = "2016-09-02 12:46:05 +0000";
layers = (
{
layerId = "EE746D13-63D7-48F9-B77E-C723CA6A668B";
paths = (
{
closed = 1;
nodes = (
"1462 -221 OFFCURVE",
"1529 -201 OFFCURVE",
"1586 -137 CURVE SMOOTH",
"1643 -74 OFFCURVE",
"1671 46 OFFCURVE",
"1671 229 CURVE SMOOTH",
"1671 252 LINE",
"1550 252 LINE",
"1550 229 LINE SMOOTH",
"1550 86 OFFCURVE",
"1493 -21 OFFCURVE",
"1413 -29 CURVE",
"1405 -29 LINE SMOOTH",
"1352 -29 OFFCURVE",
"1304 22 OFFCURVE",
"1237 121 CURVE",
"1410 264 OFFCURVE",
"1505 506 OFFCURVE",
"1505 754 CURVE SMOOTH",
"1505 832 OFFCURVE",
"1496 908 OFFCURVE",
"1478 983 CURVE SMOOTH",
"1441 1131 OFFCURVE",
"1362 1270 OFFCURVE",
"1252 1371 CURVE SMOOTH",
"1142 1472 OFFCURVE",
"980 1536 OFFCURVE",
"795 1536 CURVE SMOOTH",
"702 1536 OFFCURVE",
"617 1521 OFFCURVE",
"538 1492 CURVE SMOOTH",
"381 1432 OFFCURVE",
"274 1329 OFFCURVE",
"197 1195 CURVE SMOOTH",
"120 1061 OFFCURVE",
"84 910 OFFCURVE",
"84 754 CURVE SMOOTH",
"84 676 OFFCURVE",
"93 600 OFFCURVE",
"112 525 CURVE SMOOTH",
"148 376 OFFCURVE",
"228 237 OFFCURVE",
"338 137 CURVE SMOOTH",
"448 37 OFFCURVE",
"610 -27 OFFCURVE",
"795 -27 CURVE SMOOTH",
"888 -27 OFFCURVE",
"972 -13 OFFCURVE",
"1049 14 CURVE",
"1144 -134 OFFCURVE",
"1233 -221 OFFCURVE",
"1358 -221 CURVE SMOOTH"
);
},
{
closed = 1;
nodes = (
"689 113 OFFCURVE",
"599 150 OFFCURVE",
"526 223 CURVE",
"582 324 OFFCURVE",
"644 375 OFFCURVE",
"713 375 CURVE SMOOTH",
"808 375 OFFCURVE",
"880 295 OFFCURVE",
"965 152 CURVE",
"914 126 OFFCURVE",
"858 113 OFFCURVE",
"795 113 CURVE SMOOTH"
);
},
{
closed = 1;
nodes = (
"1019 420 OFFCURVE",
"913 502 OFFCURVE",
"766 502 CURVE SMOOTH",
"675 502 OFFCURVE",
"596 475 OFFCURVE",
"547 433 CURVE SMOOTH",
"498 391 OFFCURVE",
"472 355 OFFCURVE",
"451 315 CURVE",
"380 430 OFFCURVE",
"340 595 OFFCURVE",
"340 756 CURVE SMOOTH",
"340 919 OFFCURVE",
"381 1075 OFFCURVE",
"456 1196 CURVE SMOOTH",
"531 1317 OFFCURVE",
"652 1396 OFFCURVE",
"795 1396 CURVE SMOOTH",
"852 1396 OFFCURVE",
"906 1384 OFFCURVE",
"955 1360 CURVE SMOOTH",
"1054 1311 OFFCURVE",
"1123 1225 OFFCURVE",
"1174 1116 CURVE SMOOTH",
"1225 1007 OFFCURVE",
"1249 880 OFFCURVE",
"1249 752 CURVE SMOOTH",
"1249 579 OFFCURVE",
"1204 402 OFFCURVE",
"1120 289 CURVE"
);
}
);
width = 1617;
}
);
leftKerningGroup = C;
note = Q;
rightKerningGroup = D;
unicode = 0051;
},
{
glyphname = R;
lastChange = "2016-09-02 12:46:05 +0000";
layers = (
{
layerId = "EE746D13-63D7-48F9-B77E-C723CA6A668B";
paths = (
{
closed = 1;
nodes = (
"1481 -33 OFFCURVE",
"1581 86 OFFCURVE",
"1581 324 CURVE SMOOTH",
"1581 471 LINE",
"1446 471 LINE",
"1446 332 LINE SMOOTH",
"1446 206 OFFCURVE",
"1412 143 OFFCURVE",
"1343 143 CURVE SMOOTH",
"1308 143 OFFCURVE",
"1281 165 OFFCURVE",
"1265 193 CURVE SMOOTH",
"1248 221 OFFCURVE",
"1231 276 OFFCURVE",
"1223 319 CURVE SMOOTH",
"1214 362 OFFCURVE",
"1198 437 OFFCURVE",
"1186 481 CURVE SMOOTH",
"1165 558 OFFCURVE",
"1148 603 OFFCURVE",
"1113 649 CURVE SMOOTH",
"1077 695 OFFCURVE",
"1026 721 OFFCURVE",
"950 737 CURVE",
"1063 760 OFFCURVE",
"1142 791 OFFCURVE",
"1214 847 CURVE SMOOTH",
"1285 903 OFFCURVE",
"1323 991 OFFCURVE",
"1323 1108 CURVE SMOOTH",
"1323 1163 OFFCURVE",
"1315 1211 OFFCURVE",
"1298 1254 CURVE SMOOTH",
"1264 1339 OFFCURVE",
"1220 1390 OFFCURVE",
"1134 1429 CURVE SMOOTH",
"1048 1468 OFFCURVE",
"991 1484 OFFCURVE",
"878 1495 CURVE SMOOTH",
"765 1506 OFFCURVE",
"720 1505 OFFCURVE",
"608 1505 CURVE SMOOTH",
"33 1505 LINE",
"33 1362 LINE",
"276 1362 LINE",
"276 143 LINE",
"33 143 LINE",
"33 0 LINE",
"739 0 LINE",
"739 143 LINE",
"512 143 LINE",
"512 686 LINE",
"748 686 LINE SMOOTH",
"756 686 OFFCURVE",
"766 685 OFFCURVE",
"778 682 CURVE SMOOTH",
"801 676 OFFCURVE",
"841 652 OFFCURVE",
"874 619 CURVE SMOOTH",
"906 586 OFFCURVE",
"939 520 OFFCURVE",
"952 440 CURVE SMOOTH",
"963 376 OFFCURVE",
"975 322 OFFCURVE",
"986 277 CURVE SMOOTH",
"1008 187 OFFCURVE",
"1043 97 OFFCURVE",
"1088 48 CURVE SMOOTH",
"1132 -1 OFFCURVE",
"1198 -33 OFFCURVE",
"1282 -33 CURVE SMOOTH"
);
},
{
closed = 1;
nodes = (
"512 1362 LINE",
"629 1362 LINE SMOOTH",
"800 1362 OFFCURVE",
"907 1348 OFFCURVE",
"991 1308 CURVE SMOOTH",
"1075 1267 OFFCURVE",
"1112 1198 OFFCURVE",
"1112 1090 CURVE SMOOTH",
"1112 1027 OFFCURVE",
"1093 977 OFFCURVE",
"1054 939 CURVE SMOOTH",
"977 862 OFFCURVE",
"845 836 OFFCURVE",
"637 836 CURVE SMOOTH",
"512 836 LINE"
);
}
);
width = 1583;
}
);
note = R;
rightKerningGroup = R;
unicode = 0052;
},
{
glyphname = S;
lastChange = "2016-09-02 12:46:03 +0000";
layers = (
{
layerId = "EE746D13-63D7-48F9-B77E-C723CA6A668B";
paths = (
{
closed = 1;
nodes = (
"1063 -27 OFFCURVE",
"1278 133 OFFCURVE",
"1278 397 CURVE SMOOTH",
"1278 444 OFFCURVE",
"1273 487 OFFCURVE",
"1263 524 CURVE SMOOTH",
"1242 598 OFFCURVE",
"1189 674 OFFCURVE",
"1098 732 CURVE SMOOTH",
"1007 790 OFFCURVE",
"864 843 OFFCURVE",
"668 887 CURVE SMOOTH",
"607 900 OFFCURVE",
"555 915 OFFCURVE",
"512 932 CURVE SMOOTH",
"424 965 OFFCURVE",
"379 995 OFFCURVE",
"351 1035 CURVE SMOOTH",
"322 1075 OFFCURVE",
"317 1106 OFFCURVE",
"317 1153 CURVE SMOOTH",
"317 1202 OFFCURVE",
"334 1246 OFFCURVE",
"369 1284 CURVE SMOOTH",
"438 1359 OFFCURVE",
"551 1396 OFFCURVE",
"678 1396 CURVE SMOOTH",
"824 1396 OFFCURVE",
"937 1365 OFFCURVE",
"1016 1303 CURVE",
"943 1303 OFFCURVE",
"879 1254 OFFCURVE",
"879 1147 CURVE SMOOTH",
"879 1062 OFFCURVE",
"958 1006 OFFCURVE",
"1047 1006 CURVE SMOOTH",
"1155 1006 OFFCURVE",
"1217 1089 OFFCURVE",
"1217 1206 CURVE SMOOTH",
"1217 1253 OFFCURVE",
"1204 1295 OFFCURVE",
"1179 1334 CURVE SMOOTH",
"1127 1411 OFFCURVE",
"1045 1457 OFFCURVE",
"942 1490 CURVE SMOOTH",
"839 1523 OFFCURVE",
"742 1536 OFFCURVE",
"653 1536 CURVE SMOOTH",
"313 1536 OFFCURVE",
"78 1357 OFFCURVE",
"78 1112 CURVE SMOOTH",
"78 1035 OFFCURVE",
"94 969 OFFCURVE",
"125 915 CURVE SMOOTH",
"187 806 OFFCURVE",
"341 717 OFFCURVE",
"614 649 CURVE SMOOTH",
"675 634 OFFCURVE",
"725 620 OFFCURVE",
"765 608 CURVE SMOOTH",
"844 584 OFFCURVE",
"921 550 OFFCURVE",
"960 514 CURVE SMOOTH",
"999 477 OFFCURVE",
"1022 427 OFFCURVE",
"1022 362 CURVE SMOOTH",
"1022 307 OFFCURVE",
"1004 260 OFFCURVE",
"968 221 CURVE SMOOTH",
"896 144 OFFCURVE",
"783 113 OFFCURVE",
"643 113 CURVE SMOOTH",
"458 113 OFFCURVE",
"350 150 OFFCURVE",
"258 215 CURVE",
"345 226 OFFCURVE",
"399 272 OFFCURVE",
"399 360 CURVE SMOOTH",
"399 445 OFFCURVE",
"329 526 OFFCURVE",
"240 526 CURVE SMOOTH",
"144 526 OFFCURVE",
"59 447 OFFCURVE",
"59 336 CURVE SMOOTH",
"59 216 OFFCURVE",
"135 117 OFFCURVE",
"254 60 CURVE SMOOTH",
"373 3 OFFCURVE",
"519 -27 OFFCURVE",
"676 -27 CURVE SMOOTH"
);
}
);
width = 1337;
}
);
note = S;
unicode = 0053;
},
{
glyphname = T;
lastChange = "2016-09-02 12:46:05 +0000";
layers = (
{
layerId = "EE746D13-63D7-48F9-B77E-C723CA6A668B";
paths = (
{
closed = 1;
nodes = (
"1079 0 LINE",
"1079 143 LINE",
"840 143 LINE",
"840 1362 LINE",
"1214 1362 LINE",
"1214 897 LINE",
"1401 897 LINE",
"1401 1505 LINE",
"35 1505 LINE",
"35 897 LINE",
"221 897 LINE",
"221 1362 LINE",
"604 1362 LINE",
"604 143 LINE",
"371 143 LINE",
"371 0 LINE"
);
}
);
width = 1435;
}
);
leftKerningGroup = T;
note = T;
rightKerningGroup = T;
unicode = 0054;
},
{
glyphname = U;
lastChange = "2016-09-02 12:46:03 +0000";
layers = (
{
layerId = "EE746D13-63D7-48F9-B77E-C723CA6A668B";
paths = (
{
closed = 1;
nodes = (
"888 -27 OFFCURVE",
"966 -17 OFFCURVE",
"1033 2 CURVE SMOOTH",
"1167 41 OFFCURVE",
"1249 105 OFFCURVE",
"1302 205 CURVE SMOOTH",
"1355 304 OFFCURVE",
"1374 410 OFFCURVE",
"1374 547 CURVE SMOOTH",
"1374 1362 LINE",
"1583 1362 LINE",
"1583 1505 LINE",
"944 1505 LINE",
"944 1362 LINE",
"1171 1362 LINE",
"1171 508 LINE SMOOTH",
"1171 245 OFFCURVE",
"1049 113 OFFCURVE",
"821 113 CURVE SMOOTH",
"588 113 OFFCURVE",
"471 243 OFFCURVE",
"471 502 CURVE SMOOTH",
"471 1362 LINE",
"692 1362 LINE",
"692 1505 LINE",
"20 1505 LINE",
"20 1362 LINE",
"236 1362 LINE",
"236 516 LINE SMOOTH",
"236 356 OFFCURVE",
"277 228 OFFCURVE",
"364 129 CURVE SMOOTH",
"451 29 OFFCURVE",
"600 -27 OFFCURVE",
"799 -27 CURVE SMOOTH"
);
}
);
width = 1603;
}
);
leftKerningGroup = U;
note = U;
rightKerningGroup = U;
unicode = 0055;
},
{
glyphname = V;
lastChange = "2016-09-02 12:46:05 +0000";
layers = (
{
layerId = "EE746D13-63D7-48F9-B77E-C723CA6A668B";
paths = (
{
closed = 1;
nodes = (
"893 -35 OFFCURVE",
"922 3 OFFCURVE",
"958 106 CURVE SMOOTH",
"1389 1362 LINE",
"1632 1362 LINE",
"1632 1505 LINE",
"954 1505 LINE",
"954 1362 LINE",
"1219 1362 LINE",
"866 293 LINE",
"502 1362 LINE",
"713 1362 LINE",
"713 1505 LINE",
"-4 1505 LINE",
"-4 1362 LINE",
"225 1362 LINE",
"676 106 LINE SMOOTH",
"712 5 OFFCURVE",
"750 -35 OFFCURVE",
"821 -35 CURVE SMOOTH"
);
}
);
width = 1640;
}
);
leftKerningGroup = V;
note = V;
rightKerningGroup = V;
unicode = 0056;
},
{
glyphname = W;
lastChange = "2016-09-02 12:46:05 +0000";
layers = (
{
layerId = "EE746D13-63D7-48F9-B77E-C723CA6A668B";
paths = (
{
closed = 1;
nodes = (
"851 -35 OFFCURVE",
"887 6 OFFCURVE",
"915 106 CURVE SMOOTH",
"978 332 LINE SMOOTH",
"1021 483 OFFCURVE",
"1063 635 OFFCURVE",
"1105 786 CURVE SMOOTH",
"1147 937 OFFCURVE",
"1168 1012 OFFCURVE",
"1167 1012 CURVE",
"1432 106 LINE SMOOTH",
"1464 -3 OFFCURVE",
"1482 -35 OFFCURVE",
"1550 -35 CURVE SMOOTH",
"1621 -35 OFFCURVE",
"1642 -1 OFFCURVE",
"1679 106 CURVE",
"2028 1362 LINE",
"2210 1362 LINE",
"2210 1505 LINE",
"1655 1505 LINE",
"1655 1362 LINE",
"1858 1362 LINE",
"1585 307 LINE",
"1294 1362 LINE",
"1094 1362 LINE",
"805 307 LINE",
"514 1362 LINE",
"725 1362 LINE",
"725 1505 LINE",
"29 1505 LINE",
"29 1362 LINE",
"258 1362 LINE",
"645 106 LINE SMOOTH",
"677 2 OFFCURVE",
"709 -35 OFFCURVE",
"778 -35 CURVE SMOOTH"
);
}
);
width = 2238;
}
);
leftKerningGroup = W;
note = W;
rightKerningGroup = W;
unicode = 0057;
},
{
glyphname = X;
lastChange = "2016-09-02 12:46:05 +0000";
layers = (
{
layerId = "EE746D13-63D7-48F9-B77E-C723CA6A668B";
paths = (
{
closed = 1;
nodes = (
"664 0 LINE",
"664 143 LINE",
"453 143 LINE",
"834 609 LINE",
"1190 143 LINE",
"969 143 LINE",
"969 0 LINE",
"1683 0 LINE",
"1683 143 LINE",
"1464 143 LINE",
"975 785 LINE",
"1440 1362 LINE",
"1669 1362 LINE",
"1669 1505 LINE",
"961 1505 LINE",
"961 1362 LINE",
"1208 1362 LINE",
"863 935 LINE",
"541 1362 LINE",
"770 1362 LINE",
"770 1505 LINE",
"23 1505 LINE",
"23 1362 LINE",
"266 1362 LINE",
"721 759 LINE",
"217 143 LINE",
"16 143 LINE",
"16 0 LINE"
);
}
);
width = 1699;
}
);
leftKerningGroup = X;
note = X;
unicode = 0058;
},
{
glyphname = Y;
lastChange = "2016-09-02 12:46:05 +0000";
layers = (
{
layerId = "EE746D13-63D7-48F9-B77E-C723CA6A668B";
paths = (
{
closed = 1;
nodes = (
"1124 0 LINE",
"1124 143 LINE",
"895 143 LINE",
"895 590 LINE",
"1343 1362 LINE",
"1532 1362 LINE",
"1532 1505 LINE",
"926 1505 LINE",
"926 1362 LINE",
"1149 1362 LINE",
"801 741 LINE",
"463 1362 LINE",
"692 1362 LINE",
"692 1505 LINE",
"23 1505 LINE",
"23 1362 LINE",
"227 1362 LINE",
"659 595 LINE",
"659 143 LINE",
"416 143 LINE",
"416 0 LINE"
);
}
);
width = 1554;
}
);
leftKerningGroup = Y;
note = Y;
rightKerningGroup = Y;
unicode = 0059;
},
{
glyphname = Z;
lastChange = "2016-09-02 12:46:05 +0000";
layers = (
{
layerId = "EE746D13-63D7-48F9-B77E-C723CA6A668B";
paths = (
{
closed = 1;
nodes = (
"1278 0 LINE",
"1278 590 LINE",
"1092 590 LINE",
"1092 143 LINE",
"381 143 LINE",
"1245 1335 LINE",
"1204 1505 LINE",
"129 1505 LINE",
"129 946 LINE",
"315 946 LINE",
"315 1368 LINE",
"983 1368 LINE",
"113 166 LINE",
"111 166 LINE",
"135 0 LINE"
);
}
);
width = 1359;
}
);
note = Z;
unicode = 005A;
},
{
glyphname = a;
lastChange = "2016-09-02 12:46:05 +0000";
layers = (
{
layerId = "EE746D13-63D7-48F9-B77E-C723CA6A668B";
paths = (
{
closed = 1;
nodes = (
"515 -27 OFFCURVE",
"666 78 OFFCURVE",
"723 223 CURVE",
"728 168 OFFCURVE",
"745 122 OFFCURVE",
"773 83 CURVE SMOOTH",
"828 6 OFFCURVE",
"908 -27 OFFCURVE",
"997 -27 CURVE SMOOTH",
"1081 -27 OFFCURVE",
"1141 -9 OFFCURVE",
"1194 39 CURVE SMOOTH",
"1247 87 OFFCURVE",
"1276 180 OFFCURVE",
"1276 313 CURVE SMOOTH",
"1276 442 LINE",
"1167 442 LINE",
"1167 293 LINE SMOOTH",
"1167 174 OFFCURVE",
"1125 115 OFFCURVE",
"1040 115 CURVE SMOOTH",
"1011 115 OFFCURVE",
"988 125 OFFCURVE",
"969 144 CURVE SMOOTH",
"932 183 OFFCURVE",
"922 231 OFFCURVE",
"922 283 CURVE SMOOTH",
"922 743 LINE SMOOTH",
"922 874 OFFCURVE",
"880 971 OFFCURVE",
"808 1025 CURVE SMOOTH",
"735 1079 OFFCURVE",
"646 1102 OFFCURVE",
"537 1102 CURVE SMOOTH",
"401 1102 OFFCURVE",
"282 1058 OFFCURVE",
"216 998 CURVE SMOOTH",
"150 938 OFFCURVE",
"113 872 OFFCURVE",
"113 817 CURVE SMOOTH",
"113 712 OFFCURVE",
"181 655 OFFCURVE",
"260 655 CURVE SMOOTH",
"336 655 OFFCURVE",
"399 713 OFFCURVE",
"399 797 CURVE SMOOTH",
"399 860 OFFCURVE",
"345 913 OFFCURVE",
"260 913 CURVE",
"307 965 OFFCURVE",
"399 997 OFFCURVE",
"494 997 CURVE SMOOTH",
"629 997 OFFCURVE",
"707 924 OFFCURVE",
"707 772 CURVE SMOOTH",
"707 711 OFFCURVE",
"668 660 OFFCURVE",
"609 625 CURVE SMOOTH",
"549 590 OFFCURVE",
"471 554 OFFCURVE",
"393 526 CURVE SMOOTH",
"315 497 OFFCURVE",
"236 455 OFFCURVE",
"177 411 CURVE SMOOTH",
"117 367 OFFCURVE",
"78 299 OFFCURVE",
"78 219 CURVE SMOOTH",
"78 66 OFFCURVE",
"192 -27 OFFCURVE",
"356 -27 CURVE SMOOTH"
);
},
{
closed = 1;
nodes = (
"331 117 OFFCURVE",
"291 162 OFFCURVE",
"291 229 CURVE SMOOTH",
"291 309 OFFCURVE",
"351 365 OFFCURVE",
"423 397 CURVE SMOOTH",
"494 429 OFFCURVE",
"622 500 OFFCURVE",
"707 584 CURVE",
"707 371 LINE SMOOTH",
"707 334 OFFCURVE",
"692 296 OFFCURVE",
"661 256 CURVE SMOOTH",
"600 176 OFFCURVE",
"496 117 OFFCURVE",
"408 117 CURVE SMOOTH"
);
}
);
width = 1267;
}
);
leftKerningGroup = a;
note = a;
rightKerningGroup = a;
unicode = 0061;
},
{
glyphname = ae;
lastChange = "2016-09-02 12:46:05 +0000";
layers = (
{
layerId = "EE746D13-63D7-48F9-B77E-C723CA6A668B";
paths = (
{
closed = 1;
nodes = (
"577 -29 OFFCURVE",
"744 93 OFFCURVE",
"827 266 CURVE",
"874 118 OFFCURVE",
"1042 -29 OFFCURVE",
"1234 -29 CURVE SMOOTH",
"1459 -29 OFFCURVE",
"1621 111 OFFCURVE",
"1673 334 CURVE",
"1556 371 LINE",
"1513 212 OFFCURVE",
"1387 123 OFFCURVE",
"1251 123 CURVE SMOOTH",
"1209 123 OFFCURVE",
"1171 134 OFFCURVE",
"1137 157 CURVE SMOOTH",
"1068 201 OFFCURVE",
"1030 270 OFFCURVE",
"1002 350 CURVE SMOOTH",
"973 430 OFFCURVE",
"963 498 OFFCURVE",
"963 547 CURVE",
"1624 643 LINE",
"1624 678 OFFCURVE",
"1620 716 OFFCURVE",
"1612 755 CURVE SMOOTH",
"1596 833 OFFCURVE",
"1557 922 OFFCURVE",
"1501 989 CURVE SMOOTH",
"1445 1056 OFFCURVE",
"1353 1104 OFFCURVE",
"1245 1104 CURVE SMOOTH",
"1086 1104 OFFCURVE",
"976 1046 OFFCURVE",
"891 913 CURVE",
"831 1039 OFFCURVE",
"706 1102 OFFCURVE",
"516 1102 CURVE SMOOTH",
"300 1102 OFFCURVE",
"117 982 OFFCURVE",
"117 834 CURVE SMOOTH",
"117 717 OFFCURVE",
"183 655 OFFCURVE",
"264 655 CURVE SMOOTH",
"343 655 OFFCURVE",
"414 714 OFFCURVE",
"414 797 CURVE SMOOTH",
"414 860 OFFCURVE",
"357 913 OFFCURVE",
"270 913 CURVE",
"317 965 OFFCURVE",
"405 997 OFFCURVE",
"498 997 CURVE SMOOTH",
"637 997 OFFCURVE",
"733 921 OFFCURVE",
"733 772 CURVE SMOOTH",
"733 623 LINE",
"697 614 OFFCURVE",
"619 596 OFFCURVE",
"572 585 CURVE SMOOTH",
"524 574 OFFCURVE",
"448 553 OFFCURVE",
"399 537 CURVE SMOOTH",
"350 521 OFFCURVE",
"284 494 OFFCURVE",
"241 468 CURVE SMOOTH",
"198 442 OFFCURVE",
"153 405 OFFCURVE",
"126 366 CURVE SMOOTH",
"99 326 OFFCURVE",
"82 275 OFFCURVE",
"82 219 CURVE SMOOTH",
"82 66 OFFCURVE",
"204 -29 OFFCURVE",
"369 -29 CURVE SMOOTH"
);
},
{
closed = 1;
nodes = (
"320 117 OFFCURVE",
"273 172 OFFCURVE",
"273 245 CURVE SMOOTH",
"273 302 OFFCURVE",
"310 351 OFFCURVE",
"383 392 CURVE SMOOTH",
"456 432 OFFCURVE",
"573 471 OFFCURVE",
"733 508 CURVE",
"737 389 LINE",
"726 344 OFFCURVE",
"692 283 OFFCURVE",
"637 223 CURVE SMOOTH",
"582 163 OFFCURVE",
"491 117 OFFCURVE",
"395 117 CURVE SMOOTH"
);
},
{
closed = 1;
nodes = (
"979 848 OFFCURVE",
"1091 985 OFFCURVE",
"1239 985 CURVE SMOOTH",
"1358 985 OFFCURVE",
"1440 866 OFFCURVE",
"1440 729 CURVE",
"963 651 LINE"
);
}
);
width = 1728;
}
);
leftKerningGroup = a;
note = ae;
unicode = 00E6;
},
{
glyphname = b;
lastChange = "2016-09-02 12:46:05 +0000";
layers = (
{
layerId = "EE746D13-63D7-48F9-B77E-C723CA6A668B";
paths = (
{
closed = 1;
nodes = (
"744 -27 OFFCURVE",
"823 -2 OFFCURVE",
"892 48 CURVE SMOOTH",
"1030 147 OFFCURVE",
"1108 326 OFFCURVE",
"1108 537 CURVE SMOOTH",
"1108 869 OFFCURVE",
"926 1102 OFFCURVE",
"647 1102 CURVE SMOOTH",
"528 1102 OFFCURVE",
"418 1042 OFFCURVE",
"350 942 CURVE",
"350 1505 LINE",
"-72 1505 LINE",
"-72 1382 LINE",
"135 1382 LINE",
"135 0 LINE",
"227 0 LINE",
"305 199 LINE",
"370 46 OFFCURVE",
"510 -27 OFFCURVE",
"657 -27 CURVE SMOOTH"
);
},
{
closed = 1;
nodes = (
"562 94 OFFCURVE",
"515 116 OFFCURVE",
"474 161 CURVE SMOOTH",
"393 249 OFFCURVE",
"350 403 OFFCURVE",
"350 584 CURVE SMOOTH",
"350 672 OFFCURVE",
"372 765 OFFCURVE",
"413 848 CURVE SMOOTH",
"453 931 OFFCURVE",
"528 989 OFFCURVE",
"616 989 CURVE SMOOTH",
"708 989 OFFCURVE",
"781 930 OFFCURVE",
"821 838 CURVE SMOOTH",
"860 746 OFFCURVE",
"879 640 OFFCURVE",
"879 524 CURVE SMOOTH",
"879 451 OFFCURVE",
"869 382 OFFCURVE",
"850 318 CURVE SMOOTH",
"811 190 OFFCURVE",
"725 94 OFFCURVE",
"616 94 CURVE SMOOTH"
);
}
);
width = 1185;
}
);
note = b;
rightKerningGroup = b;
unicode = 0062;
},
{
glyphname = c;
lastChange = "2016-09-02 12:46:05 +0000";
layers = (
{
layerId = "EE746D13-63D7-48F9-B77E-C723CA6A668B";
paths = (
{
closed = 1;
nodes = (
"841 -27 OFFCURVE",
"1012 115 OFFCURVE",
"1063 334 CURVE",
"950 371 LINE",
"937 328 OFFCURVE",
"901 275 OFFCURVE",
"850 224 CURVE SMOOTH",
"798 173 OFFCURVE",
"718 135 OFFCURVE",
"637 135 CURVE SMOOTH",
"426 135 OFFCURVE",
"301 292 OFFCURVE",
"301 549 CURVE SMOOTH",
"301 658 OFFCURVE",
"330 764 OFFCURVE",
"385 849 CURVE SMOOTH",
"440 933 OFFCURVE",
"535 989 OFFCURVE",
"651 989 CURVE SMOOTH",
"755 989 OFFCURVE",
"839 939 OFFCURVE",
"883 868 CURVE",
"800 868 OFFCURVE",
"729 818 OFFCURVE",
"729 731 CURVE SMOOTH",
"729 646 OFFCURVE",
"796 590 OFFCURVE",
"883 590 CURVE SMOOTH",
"982 590 OFFCURVE",
"1040 672 OFFCURVE",
"1040 752 CURVE SMOOTH",
"1040 867 OFFCURVE",
"982 963 OFFCURVE",
"898 1018 CURVE SMOOTH",
"814 1073 OFFCURVE",
"713 1102 OFFCURVE",
"616 1102 CURVE SMOOTH",
"443 1102 OFFCURVE",
"298 1033 OFFCURVE",
"210 923 CURVE SMOOTH",
"122 813 OFFCURVE",
"74 671 OFFCURVE",
"74 516 CURVE SMOOTH",
"74 353 OFFCURVE",
"132 211 OFFCURVE",
"225 119 CURVE SMOOTH",
"318 27 OFFCURVE",
"449 -27 OFFCURVE",
"592 -27 CURVE SMOOTH"
);
}
);
width = 1118;
}
);
leftKerningGroup = c;
note = c;
unicode = 0063;
},
{
glyphname = d;
lastChange = "2016-09-02 12:46:05 +0000";
layers = (
{
layerId = "EE746D13-63D7-48F9-B77E-C723CA6A668B";
paths = (
{
closed = 1;
nodes = (
"636 -27 OFFCURVE",
"763 43 OFFCURVE",
"831 170 CURVE",
"870 0 LINE",
"1225 0 LINE",
"1225 112 LINE",
"1044 112 LINE",
"1044 1505 LINE",
"594 1505 LINE",
"594 1382 LINE",
"829 1382 LINE",
"829 942 LINE",
"762 1041 OFFCURVE",
"646 1102 OFFCURVE",
"535 1102 CURVE SMOOTH",
"255 1102 OFFCURVE",
"80 877 OFFCURVE",
"80 537 CURVE SMOOTH",
"80 198 OFFCURVE",
"255 -27 OFFCURVE",
"520 -27 CURVE SMOOTH"
);
},
{
closed = 1;
nodes = (
"508 100 OFFCURVE",
"460 122 OFFCURVE",
"421 165 CURVE SMOOTH",
"341 251 OFFCURVE",
"309 383 OFFCURVE",
"309 532 CURVE SMOOTH",
"309 645 OFFCURVE",
"328 752 OFFCURVE",
"368 842 CURVE SMOOTH",
"408 932 OFFCURVE",
"480 989 OFFCURVE",
"571 989 CURVE SMOOTH",
"663 989 OFFCURVE",
"737 932 OFFCURVE",
"780 845 CURVE SMOOTH",
"823 758 OFFCURVE",
"844 656 OFFCURVE",
"844 549 CURVE SMOOTH",
"844 289 OFFCURVE",
"726 100 OFFCURVE",
"563 100 CURVE SMOOTH"
);
}
);
width = 1236;
}
);
leftKerningGroup = c;
note = d;
rightKerningGroup = d;
unicode = 0064;
},
{
glyphname = eth;
lastChange = "2016-09-02 12:46:05 +0000";
layers = (
{
layerId = "EE746D13-63D7-48F9-B77E-C723CA6A668B";
paths = (
{
closed = 1;
nodes = (
"682 -20 OFFCURVE",
"737 -13 OFFCURVE",
"787 1 CURVE SMOOTH",
"887 29 OFFCURVE",
"978 95 OFFCURVE",
"1039 196 CURVE SMOOTH",
"1100 296 OFFCURVE",
"1137 452 OFFCURVE",
"1137 647 CURVE SMOOTH",
"1137 910 OFFCURVE",
"1068 1140 OFFCURVE",
"937 1297 CURVE",
"1161 1403 LINE",
"1126 1487 LINE",
"870 1367 LINE",
"755 1469 OFFCURVE",
"616 1520 OFFCURVE",
"451 1520 CURVE SMOOTH",
"389 1520 OFFCURVE",
"321 1512 OFFCURVE",
"246 1495 CURVE",
"266 1386 LINE",
"314 1393 OFFCURVE",
"351 1397 OFFCURVE",
"377 1397 CURVE SMOOTH",
"498 1397 OFFCURVE",
"602 1358 OFFCURVE",
"689 1281 CURVE",
"512 1198 LINE",
"547 1114 LINE",
"754 1211 LINE",
"819 1127 OFFCURVE",
"871 992 OFFCURVE",
"881 949 CURVE SMOOTH",
"886 927 OFFCURVE",
"889 910 OFFCURVE",
"891 897 CURVE",
"888 900 OFFCURVE",
"878 908 OFFCURVE",
"863 921 CURVE SMOOTH",
"832 948 OFFCURVE",
"813 961 OFFCURVE",
"773 983 CURVE SMOOTH",
"732 1005 OFFCURVE",
"676 1016 OFFCURVE",
"612 1016 CURVE SMOOTH",
"453 1016 OFFCURVE",
"322 954 OFFCURVE",
"244 856 CURVE SMOOTH",
"166 758 OFFCURVE",
"123 634 OFFCURVE",
"123 502 CURVE SMOOTH",
"123 451 OFFCURVE",
"129 402 OFFCURVE",
"140 354 CURVE SMOOTH",
"162 258 OFFCURVE",
"214 161 OFFCURVE",
"289 93 CURVE SMOOTH",
"364 25 OFFCURVE",
"482 -20 OFFCURVE",
"623 -20 CURVE SMOOTH"
);
},
{
closed = 1;
nodes = (
"566 104 OFFCURVE",
"513 122 OFFCURVE",
"470 158 CURVE SMOOTH",
"385 230 OFFCURVE",
"352 344 OFFCURVE",
"352 489 CURVE SMOOTH",
"352 700 OFFCURVE",
"467 879 OFFCURVE",
"623 879 CURVE SMOOTH",
"806 879 OFFCURVE",
"913 781 OFFCURVE",
"913 598 CURVE SMOOTH",
"913 265 OFFCURVE",
"828 104 OFFCURVE",
"629 104 CURVE SMOOTH"
);
}
);
width = 1245;
}
);
leftKerningGroup = c;
note = eth;
unicode = 00F0;
},
{
glyphname = dcroat;
lastChange = "2016-09-02 12:46:05 +0000";
layers = (
{
layerId = "EE746D13-63D7-48F9-B77E-C723CA6A668B";
paths = (
{
closed = 1;
nodes = (
"636 -27 OFFCURVE",
"763 43 OFFCURVE",
"831 170 CURVE",
"870 0 LINE",
"1225 0 LINE",
"1225 115 LINE",
"1044 115 LINE",
"1044 1182 LINE",
"1204 1182 LINE",
"1204 1279 LINE",
"1044 1279 LINE",
"1044 1505 LINE",
"594 1505 LINE",
"594 1382 LINE",
"829 1382 LINE",
"829 1279 LINE",
"541 1279 LINE",
"541 1182 LINE",
"829 1182 LINE",
"829 942 LINE",
"762 1041 OFFCURVE",
"646 1102 OFFCURVE",
"535 1102 CURVE SMOOTH",
"255 1102 OFFCURVE",
"80 877 OFFCURVE",
"80 537 CURVE SMOOTH",
"80 198 OFFCURVE",
"255 -27 OFFCURVE",
"520 -27 CURVE SMOOTH"
);
},
{
closed = 1;
nodes = (
"508 100 OFFCURVE",
"460 122 OFFCURVE",
"421 165 CURVE SMOOTH",
"341 251 OFFCURVE",
"309 383 OFFCURVE",
"309 532 CURVE SMOOTH",
"309 645 OFFCURVE",
"328 752 OFFCURVE",
"368 842 CURVE SMOOTH",
"408 932 OFFCURVE",
"480 989 OFFCURVE",
"571 989 CURVE SMOOTH",
"663 989 OFFCURVE",
"737 932 OFFCURVE",
"780 845 CURVE SMOOTH",
"823 758 OFFCURVE",
"844 656 OFFCURVE",
"844 549 CURVE SMOOTH",
"844 289 OFFCURVE",
"726 100 OFFCURVE",
"563 100 CURVE SMOOTH"
);
}
);
width = 1236;
}
);
leftKerningGroup = c;
note = dcroat;
unicode = 0111;
},
{
glyphname = e;
lastChange = "2016-09-02 12:46:05 +0000";
layers = (
{
layerId = "EE746D13-63D7-48F9-B77E-C723CA6A668B";
paths = (
{
closed = 1;
nodes = (
"833 -27 OFFCURVE",
"1001 114 OFFCURVE",
"1053 334 CURVE",
"936 371 LINE",
"893 214 OFFCURVE",
"756 123 OFFCURVE",
"617 123 CURVE SMOOTH",
"510 123 OFFCURVE",
"426 171 OFFCURVE",
"377 250 CURVE SMOOTH",
"328 329 OFFCURVE",
"303 428 OFFCURVE",
"303 543 CURVE SMOOTH",
"303 551 LINE",
"1074 551 LINE",
"1071 726 OFFCURVE",
"1016 870 OFFCURVE",
"928 962 CURVE SMOOTH",
"840 1053 OFFCURVE",
"720 1102 OFFCURVE",
"584 1102 CURVE SMOOTH",
"520 1102 OFFCURVE",
"460 1092 OFFCURVE",
"405 1071 CURVE SMOOTH",
"294 1029 OFFCURVE",
"216 953 OFFCURVE",
"159 856 CURVE SMOOTH",
"102 759 OFFCURVE",
"74 643 OFFCURVE",
"74 523 CURVE SMOOTH",
"74 382 OFFCURVE",
"122 248 OFFCURVE",
"208 144 CURVE SMOOTH",
"294 40 OFFCURVE",
"433 -27 OFFCURVE",
"596 -27 CURVE SMOOTH"
);
},
{
closed = 1;
nodes = (
"326 852 OFFCURVE",
"443 983 OFFCURVE",
"590 983 CURVE SMOOTH",
"735 983 OFFCURVE",
"849 852 OFFCURVE",
"854 659 CURVE",
"310 659 LINE"
);
}
);
width = 1150;
}
);
leftKerningGroup = c;
note = e;
rightKerningGroup = e;
unicode = 0065;
},
{
glyphname = f;
lastChange = "2016-09-02 12:46:05 +0000";
layers = (
{
layerId = "EE746D13-63D7-48F9-B77E-C723CA6A668B";
paths = (
{
closed = 1;
nodes = (
"711 0 LINE",
"711 112 LINE",
"461 112 LINE",
"461 961 LINE",
"774 961 LINE",
"782 1073 LINE",
"455 1073 LINE",
"455 1243 LINE SMOOTH",
"455 1419 OFFCURVE",
"529 1499 OFFCURVE",
"653 1499 CURVE SMOOTH",
"702 1499 OFFCURVE",
"762 1482 OFFCURVE",
"791 1454 CURVE",
"724 1437 OFFCURVE",
"680 1379 OFFCURVE",
"680 1331 CURVE SMOOTH",
"680 1254 OFFCURVE",
"743 1196 OFFCURVE",
"815 1196 CURVE SMOOTH",
"900 1196 OFFCURVE",
"965 1263 OFFCURVE",
"965 1368 CURVE SMOOTH",
"965 1481 OFFCURVE",
"839 1583 OFFCURVE",
"623 1583 CURVE SMOOTH",
"350 1583 OFFCURVE",
"246 1424 OFFCURVE",
"246 1073 CURVE",
"51 1073 LINE",
"51 961 LINE",
"246 961 LINE",
"246 112 LINE",
"51 112 LINE",
"51 0 LINE"
);
}
);
width = 786;
}
);
note = f;
unicode = 0066;
},
{
glyphname = g;
lastChange = "2016-09-02 12:46:03 +0000";
layers = (
{
layerId = "EE746D13-63D7-48F9-B77E-C723CA6A668B";
paths = (
{
closed = 1;
nodes = (
"620 -535 OFFCURVE",
"683 -524 OFFCURVE",
"740 -502 CURVE SMOOTH",
"852 -459 OFFCURVE",
"924 -386 OFFCURVE",
"974 -285 CURVE SMOOTH",
"1024 -184 OFFCURVE",
"1044 -73 OFFCURVE",
"1044 51 CURVE SMOOTH",
"1044 954 LINE",
"1188 954 LINE",
"1188 1073 LINE",
"854 1073 LINE",
"829 881 LINE",
"786 1017 OFFCURVE",
"643 1102 OFFCURVE",
"522 1102 CURVE SMOOTH",
"381 1102 OFFCURVE",
"263 1031 OFFCURVE",
"192 923 CURVE SMOOTH",
"120 814 OFFCURVE",
"82 676 OFFCURVE",
"82 532 CURVE SMOOTH",
"82 475 OFFCURVE",
"88 420 OFFCURVE",
"99 366 CURVE SMOOTH",
"122 258 OFFCURVE",
"170 160 OFFCURVE",
"238 89 CURVE SMOOTH",
"305 17 OFFCURVE",
"403 -27 OFFCURVE",
"516 -27 CURVE SMOOTH",
"661 -27 OFFCURVE",
"786 73 OFFCURVE",
"829 201 CURVE",
"829 23 LINE SMOOTH",
"829 -262 OFFCURVE",
"727 -430 OFFCURVE",
"518 -430 CURVE SMOOTH",
"479 -430 OFFCURVE",
"438 -423 OFFCURVE",
"395 -408 CURVE",
"435 -393 OFFCURVE",
"479 -331 OFFCURVE",
"479 -279 CURVE SMOOTH",
"479 -198 OFFCURVE",
"419 -139 OFFCURVE",
"344 -139 CURVE SMOOTH",
"252 -139 OFFCURVE",
"176 -192 OFFCURVE",
"176 -295 CURVE SMOOTH",
"176 -348 OFFCURVE",
"195 -394 OFFCURVE",
"232 -431 CURVE SMOOTH",
"306 -506 OFFCURVE",
"418 -535 OFFCURVE",
"551 -535 CURVE SMOOTH"
);
},
{
closed = 1;
nodes = (
"467 100 OFFCURVE",
"396 156 OFFCURVE",
"357 245 CURVE SMOOTH",
"318 334 OFFCURVE",
"301 436 OFFCURVE",
"301 551 CURVE SMOOTH",
"301 624 OFFCURVE",
"311 692 OFFCURVE",
"330 754 CURVE SMOOTH",
"369 878 OFFCURVE",
"454 969 OFFCURVE",
"563 969 CURVE SMOOTH",
"728 969 OFFCURVE",
"836 784 OFFCURVE",
"836 512 CURVE SMOOTH",
"836 441 OFFCURVE",
"826 376 OFFCURVE",
"807 315 CURVE SMOOTH",
"767 194 OFFCURVE",
"678 100 OFFCURVE",
"559 100 CURVE SMOOTH"
);
}
);
width = 1198;
}
);
leftKerningGroup = g;
note = g;
unicode = 0067;
},
{
glyphname = h;
lastChange = "2016-09-02 12:46:05 +0000";
layers = (
{
layerId = "EE746D13-63D7-48F9-B77E-C723CA6A668B";
paths = (
{
closed = 1;
nodes = (
"639 0 LINE",
"639 112 LINE",
"444 112 LINE",
"444 598 LINE SMOOTH",
"444 697 OFFCURVE",
"487 793 OFFCURVE",
"547 857 CURVE SMOOTH",
"607 920 OFFCURVE",
"684 961 OFFCURVE",
"752 961 CURVE SMOOTH",
"847 961 OFFCURVE",
"911 886 OFFCURVE",
"911 731 CURVE SMOOTH",
"911 112 LINE",
"717 112 LINE",
"717 0 LINE",
"1341 0 LINE",
"1341 112 LINE",
"1126 112 LINE",
"1126 723 LINE SMOOTH",
"1126 788 OFFCURVE",
"1118 845 OFFCURVE",
"1102 894 CURVE SMOOTH",
"1070 991 OFFCURVE",
"1025 1036 OFFCURVE",
"961 1067 CURVE SMOOTH",
"896 1098 OFFCURVE",
"851 1102 OFFCURVE",
"795 1102 CURVE SMOOTH",
"752 1102 OFFCURVE",
"710 1096 OFFCURVE",
"669 1083 CURVE SMOOTH",
"586 1057 OFFCURVE",
"495 987 OFFCURVE",
"444 883 CURVE",
"444 1505 LINE",
"33 1505 LINE",
"33 1382 LINE",
"229 1382 LINE",
"229 112 LINE",
"45 112 LINE",
"45 0 LINE"
);
}
);
width = 1355;
}
);
leftKerningGroup = h;
note = h;
rightKerningGroup = h;
unicode = 0068;
},
{
glyphname = hbar;
lastChange = "2016-09-02 12:46:05 +0000";
layers = (
{
layerId = "EE746D13-63D7-48F9-B77E-C723CA6A668B";
paths = (
{
closed = 1;
nodes = (
"639 0 LINE",
"639 117 LINE",
"444 117 LINE",
"444 598 LINE SMOOTH",
"444 663 OFFCURVE",
"460 724 OFFCURVE",
"493 781 CURVE SMOOTH",
"558 895 OFFCURVE",
"661 960 OFFCURVE",
"752 960 CURVE SMOOTH",
"847 960 OFFCURVE",
"911 886 OFFCURVE",
"911 731 CURVE SMOOTH",
"911 117 LINE",
"717 117 LINE",
"717 0 LINE",
"1341 0 LINE",
"1341 117 LINE",
"1126 117 LINE",
"1126 723 LINE SMOOTH",
"1126 788 OFFCURVE",
"1118 845 OFFCURVE",
"1102 894 CURVE SMOOTH",
"1070 991 OFFCURVE",
"1025 1036 OFFCURVE",
"961 1067 CURVE SMOOTH",
"896 1098 OFFCURVE",
"851 1102 OFFCURVE",
"795 1102 CURVE SMOOTH",
"752 1102 OFFCURVE",
"710 1096 OFFCURVE",
"669 1083 CURVE SMOOTH",
"586 1057 OFFCURVE",
"495 987 OFFCURVE",
"444 883 CURVE",
"444 1188 LINE",
"732 1188 LINE",
"732 1286 LINE",
"444 1286 LINE",
"444 1505 LINE",
"33 1505 LINE",
"33 1382 LINE",
"229 1382 LINE",
"229 1286 LINE",
"69 1286 LINE",
"69 1188 LINE",
"229 1188 LINE",
"229 117 LINE",
"45 117 LINE",
"45 0 LINE"
);
}
);
width = 1355;
}
);
leftKerningGroup = h;
note = hbar;
rightKerningGroup = h;
unicode = 0127;
},
{
glyphname = i;
lastChange = "2016-09-02 12:46:05 +0000";
layers = (
{
layerId = "EE746D13-63D7-48F9-B77E-C723CA6A668B";
paths = (
{
closed = 1;
nodes = (
"659 0 LINE",
"659 112 LINE",
"463 112 LINE",
"463 1073 LINE",
"53 1073 LINE",
"53 961 LINE",
"248 961 LINE",
"248 112 LINE",
"55 112 LINE",
"55 0 LINE"
);
},
{
closed = 1;
nodes = (
"416 1262 OFFCURVE",
"485 1329 OFFCURVE",
"485 1409 CURVE SMOOTH",
"485 1490 OFFCURVE",
"416 1559 OFFCURVE",
"336 1559 CURVE SMOOTH",
"255 1559 OFFCURVE",
"188 1492 OFFCURVE",
"188 1409 CURVE SMOOTH",
"188 1329 OFFCURVE",
"255 1262 OFFCURVE",
"336 1262 CURVE SMOOTH"
);
}
);
width = 665;
}
);
leftKerningGroup = i;
note = i;
unicode = 0069;
},
{
glyphname = dotlessi;
lastChange = "2016-09-02 12:46:05 +0000";
layers = (
{
layerId = "EE746D13-63D7-48F9-B77E-C723CA6A668B";
paths = (
{
closed = 1;
nodes = (
"657 0 LINE",
"657 117 LINE",
"461 117 LINE",
"461 1073 LINE",
"51 1073 LINE",
"51 961 LINE",
"246 961 LINE",
"246 117 LINE",
"53 117 LINE",
"53 0 LINE"
);
}
);
width = 671;
}
);
leftKerningGroup = i;
note = dotlessi;
unicode = 0131;
},
{
glyphname = j;
lastChange = "2016-09-02 12:46:05 +0000";
layers = (
{
layerId = "EE746D13-63D7-48F9-B77E-C723CA6A668B";
paths = (
{
closed = 1;
nodes = (
"371 -471 OFFCURVE",
"512 -335 OFFCURVE",
"512 -90 CURVE SMOOTH",
"512 1073 LINE",
"53 1073 LINE",
"53 961 LINE",
"297 961 LINE",
"297 -121 LINE SMOOTH",
"297 -218 OFFCURVE",
"276 -287 OFFCURVE",
"241 -319 CURVE SMOOTH",
"205 -351 OFFCURVE",
"173 -362 OFFCURVE",
"133 -362 CURVE SMOOTH",
"107 -362 OFFCURVE",
"83 -358 OFFCURVE",
"61 -350 CURVE",
"100 -333 OFFCURVE",
"119 -291 OFFCURVE",
"119 -223 CURVE SMOOTH",
"119 -154 OFFCURVE",
"66 -113 OFFCURVE",
"2 -113 CURVE SMOOTH",
"-75 -113 OFFCURVE",
"-143 -166 OFFCURVE",
"-143 -254 CURVE SMOOTH",
"-143 -390 OFFCURVE",
"-37 -471 OFFCURVE",
"160 -471 CURVE SMOOTH"
);
},
{
closed = 1;
nodes = (
"455 1262 OFFCURVE",
"524 1329 OFFCURVE",
"524 1409 CURVE SMOOTH",
"524 1490 OFFCURVE",
"455 1559 OFFCURVE",
"375 1559 CURVE SMOOTH",
"294 1559 OFFCURVE",
"227 1492 OFFCURVE",
"227 1409 CURVE SMOOTH",
"227 1329 OFFCURVE",
"294 1262 OFFCURVE",
"375 1262 CURVE SMOOTH"
);
}
);
width = 665;
}
);
note = j;
unicode = 006A;
},
{
glyphname = uni0237;
lastChange = "2016-09-02 12:46:05 +0000";
layers = (
{
layerId = "EE746D13-63D7-48F9-B77E-C723CA6A668B";
paths = (
{
closed = 1;
nodes = (
"168 -471 LINE SMOOTH",
"373 -468 OFFCURVE",
"512 -333 OFFCURVE",
"512 -90 CURVE SMOOTH",
"512 1073 LINE",
"53 1073 LINE",
"53 956 LINE",
"297 956 LINE",
"297 -121 LINE SMOOTH",
"297 -218 OFFCURVE",
"276 -287 OFFCURVE",
"241 -319 CURVE SMOOTH",
"205 -351 OFFCURVE",
"173 -362 OFFCURVE",
"133 -362 CURVE SMOOTH",
"107 -362 OFFCURVE",
"83 -358 OFFCURVE",
"61 -350 CURVE",
"100 -333 OFFCURVE",
"119 -291 OFFCURVE",
"119 -223 CURVE SMOOTH",
"119 -154 OFFCURVE",
"66 -113 OFFCURVE",
"2 -113 CURVE SMOOTH",
"-75 -113 OFFCURVE",
"-143 -166 OFFCURVE",
"-143 -254 CURVE SMOOTH",
"-143 -390 OFFCURVE",
"-37 -471 OFFCURVE",
"160 -471 CURVE SMOOTH"
);
}
);
width = 665;
}
);
note = uni0237;
unicode = 0237;
},
{
glyphname = k;
lastChange = "2016-09-02 12:46:05 +0000";
layers = (
{
layerId = "EE746D13-63D7-48F9-B77E-C723CA6A668B";
paths = (
{
closed = 1;
nodes = (
"1201 -20 OFFCURVE",
"1244 -14 OFFCURVE",
"1309 23 CURVE",
"1280 158 LINE",
"1249 144 OFFCURVE",
"1215 137 OFFCURVE",
"1176 137 CURVE SMOOTH",
"1111 137 OFFCURVE",
"1044 181 OFFCURVE",
"982 259 CURVE SMOOTH",
"920 337 OFFCURVE",
"877 403 OFFCURVE",
"812 508 CURVE SMOOTH",
"779 561 OFFCURVE",
"753 601 OFFCURVE",
"733 629 CURVE",
"1079 961 LINE",
"1270 961 LINE",
"1270 1073 LINE",
"670 1073 LINE",
"670 961 LINE",
"858 961 LINE",
"440 571 LINE",
"440 1505 LINE",
"23 1505 LINE",
"23 1382 LINE",
"225 1382 LINE",
"225 112 LINE",
"23 112 LINE",
"23 0 LINE",
"610 0 LINE",
"610 112 LINE",
"440 112 LINE",
"440 418 LINE",
"606 545 LINE",
"807 199 LINE SMOOTH",
"891 56 OFFCURVE",
"987 -20 OFFCURVE",
"1130 -20 CURVE SMOOTH"
);
}
);
width = 1300;
}
);
leftKerningGroup = k;
note = k;
rightKerningGroup = k;
unicode = 006B;
},
{
glyphname = kgreenlandic;
lastChange = "2016-09-02 12:46:05 +0000";
layers = (
{
layerId = "EE746D13-63D7-48F9-B77E-C723CA6A668B";
paths = (
{
closed = 1;
nodes = (
"1222 -20 OFFCURVE",
"1266 -14 OFFCURVE",
"1331 23 CURVE",
"1303 158 LINE",
"1272 144 OFFCURVE",
"1237 137 OFFCURVE",
"1198 137 CURVE SMOOTH",
"1142 137 OFFCURVE",
"1081 172 OFFCURVE",
"1034 217 CURVE SMOOTH",
"987 262 OFFCURVE",
"925 343 OFFCURVE",
"886 403 CURVE SMOOTH",
"846 463 OFFCURVE",
"781 562 OFFCURVE",
"748 610 CURVE",
"1102 956 LINE",
"1292 956 LINE",
"1292 1073 LINE",
"692 1073 LINE",
"692 956 LINE",
"897 956 LINE",
"463 547 LINE",
"463 1073 LINE",
"45 1073 LINE",
"45 950 LINE",
"248 950 LINE",
"248 117 LINE",
"45 117 LINE",
"45 0 LINE",
"633 0 LINE",
"633 117 LINE",
"463 117 LINE",
"463 393 LINE",
"621 526 LINE",
"829 199 LINE SMOOTH",
"920 55 OFFCURVE",
"1012 -20 OFFCURVE",
"1153 -20 CURVE SMOOTH"
);
}
);
width = 1308;
}
);
note = kgreenlandic;
rightKerningGroup = k;
unicode = 0138;
},
{
glyphname = l;
lastChange = "2016-09-02 12:46:05 +0000";
layers = (
{
layerId = "EE746D13-63D7-48F9-B77E-C723CA6A668B";
paths = (
{
closed = 1;
nodes = (
"690 0 LINE",
"690 112 LINE",
"475 112 LINE",
"475 1505 LINE",
"37 1505 LINE",
"37 1382 LINE",
"260 1382 LINE",
"260 112 LINE",
"37 112 LINE",
"37 0 LINE"
);
}
);
width = 708;
}
);
leftKerningGroup = l;
note = l;
unicode = 006C;
},
{
glyphname = lslash;
lastChange = "2016-09-02 12:46:05 +0000";
layers = (
{
layerId = "EE746D13-63D7-48F9-B77E-C723CA6A668B";
paths = (
{
closed = 1;
nodes = (
"690 0 LINE",
"690 117 LINE",
"475 117 LINE",
"475 834 LINE",
"677 925 LINE",
"677 1073 LINE",
"475 982 LINE",
"475 1505 LINE",
"37 1505 LINE",
"37 1382 LINE",
"260 1382 LINE",
"260 886 LINE",
"61 797 LINE",
"61 649 LINE",
"260 738 LINE",
"260 117 LINE",
"37 117 LINE",
"37 0 LINE"
);
}
);
width = 708;
}
);
note = lslash;
unicode = 0142;
},
{
glyphname = m;
lastChange = "2016-09-02 12:46:05 +0000";
layers = (
{
layerId = "EE746D13-63D7-48F9-B77E-C723CA6A668B";
paths = (
{
closed = 1;
nodes = (
"631 0 LINE",
"631 112 LINE",
"459 112 LINE",
"459 586 LINE SMOOTH",
"459 627 OFFCURVE",
"461 664 OFFCURVE",
"464 698 CURVE SMOOTH",
"471 765 OFFCURVE",
"492 839 OFFCURVE",
"525 886 CURVE SMOOTH",
"558 933 OFFCURVE",
"617 965 OFFCURVE",
"694 965 CURVE SMOOTH",
"813 965 OFFCURVE",
"885 884 OFFCURVE",
"885 711 CURVE SMOOTH",
"885 112 LINE",
"713 112 LINE",
"713 0 LINE",
"1272 0 LINE",
"1272 112 LINE",
"1100 112 LINE",
"1100 731 LINE SMOOTH",
"1100 867 OFFCURVE",
"1185 965 OFFCURVE",
"1325 965 CURVE SMOOTH",
"1444 965 OFFCURVE",
"1516 884 OFFCURVE",
"1516 711 CURVE SMOOTH",
"1516 112 LINE",
"1354 112 LINE",
"1354 0 LINE",
"1915 0 LINE",
"1915 112 LINE",
"1731 112 LINE",
"1731 713 LINE SMOOTH",
"1731 761 OFFCURVE",
"1727 805 OFFCURVE",
"1719 844 CURVE SMOOTH",
"1702 923 OFFCURVE",
"1677 972 OFFCURVE",
"1638 1012 CURVE SMOOTH",
"1599 1052 OFFCURVE",
"1564 1072 OFFCURVE",
"1518 1086 CURVE SMOOTH",
"1472 1100 OFFCURVE",
"1439 1102 OFFCURVE",
"1399 1102 CURVE SMOOTH",
"1264 1102 OFFCURVE",
"1144 1037 OFFCURVE",
"1079 889 CURVE",
"1068 927 OFFCURVE",
"1054 960 OFFCURVE",
"1037 987 CURVE SMOOTH",
"1001 1042 OFFCURVE",
"967 1067 OFFCURVE",
"918 1084 CURVE SMOOTH",
"869 1100 OFFCURVE",
"838 1102 OFFCURVE",
"791 1102 CURVE SMOOTH",
"726 1102 OFFCURVE",
"660 1086 OFFCURVE",
"597 1051 CURVE SMOOTH",
"534 1016 OFFCURVE",
"480 953 OFFCURVE",
"453 872 CURVE",
"428 1090 LINE",
"49 1073 LINE",
"49 961 LINE",
"244 961 LINE",
"244 112 LINE",
"49 112 LINE",
"49 0 LINE"
);
}
);
width = 1929;
}
);
note = m;
rightKerningGroup = h;
unicode = 006D;
},
{
glyphname = n;
lastChange = "2016-09-02 12:46:05 +0000";
layers = (
{
layerId = "EE746D13-63D7-48F9-B77E-C723CA6A668B";
paths = (
{
closed = 1;
nodes = (
"641 0 LINE",
"641 112 LINE",
"459 112 LINE",
"459 586 LINE SMOOTH",
"459 625 OFFCURVE",
"462 662 OFFCURVE",
"469 697 CURVE SMOOTH",
"481 768 OFFCURVE",
"510 837 OFFCURVE",
"552 886 CURVE SMOOTH",
"594 934 OFFCURVE",
"658 965 OFFCURVE",
"735 965 CURVE SMOOTH",
"854 965 OFFCURVE",
"926 884 OFFCURVE",
"926 711 CURVE SMOOTH",
"926 112 LINE",
"743 112 LINE",
"743 0 LINE",
"1346 0 LINE",
"1346 112 LINE",
"1141 112 LINE",
"1141 713 LINE SMOOTH",
"1141 761 OFFCURVE",
"1137 805 OFFCURVE",
"1129 844 CURVE SMOOTH",
"1112 923 OFFCURVE",
"1087 972 OFFCURVE",
"1048 1012 CURVE SMOOTH",
"1009 1052 OFFCURVE",
"974 1072 OFFCURVE",
"928 1086 CURVE SMOOTH",
"882 1100 OFFCURVE",
"849 1102 OFFCURVE",
"809 1102 CURVE SMOOTH",
"670 1102 OFFCURVE",
"518 1021 OFFCURVE",
"453 872 CURVE",
"428 1090 LINE",
"49 1073 LINE",
"49 961 LINE",
"244 961 LINE",
"244 112 LINE",
"49 112 LINE",
"49 0 LINE"
);
}
);
width = 1359;
}
);
note = n;
rightKerningGroup = h;
unicode = 006E;
},
{
glyphname = o;
lastChange = "2016-09-02 12:46:05 +0000";
layers = (
{
layerId = "EE746D13-63D7-48F9-B77E-C723CA6A668B";
paths = (
{
closed = 1;
nodes = (
"704 -27 OFFCURVE",
"797 -2 OFFCURVE",
"876 49 CURVE SMOOTH",
"1035 149 OFFCURVE",
"1116 325 OFFCURVE",
"1116 537 CURVE SMOOTH",
"1116 697 OFFCURVE",
"1067 838 OFFCURVE",
"980 939 CURVE SMOOTH",
"892 1040 OFFCURVE",
"756 1102 OFFCURVE",
"596 1102 CURVE SMOOTH",
"489 1102 OFFCURVE",
"396 1077 OFFCURVE",
"316 1027 CURVE SMOOTH",
"156 927 OFFCURVE",
"74 750 OFFCURVE",
"74 537 CURVE SMOOTH",
"74 210 OFFCURVE",
"278 -27 OFFCURVE",
"598 -27 CURVE SMOOTH"
);
},
{
closed = 1;
nodes = (
"415 100 OFFCURVE",
"303 268 OFFCURVE",
"303 524 CURVE SMOOTH",
"303 613 OFFCURVE",
"313 692 OFFCURVE",
"333 759 CURVE SMOOTH",
"372 894 OFFCURVE",
"464 983 OFFCURVE",
"596 983 CURVE SMOOTH",
"662 983 OFFCURVE",
"717 963 OFFCURVE",
"762 922 CURVE SMOOTH",
"851 840 OFFCURVE",
"887 704 OFFCURVE",
"887 524 CURVE SMOOTH",
"887 269 OFFCURVE",
"777 100 OFFCURVE",
"598 100 CURVE SMOOTH"
);
}
);
width = 1189;
}
);
leftKerningGroup = c;
note = o;
rightKerningGroup = b;
unicode = 006F;
},
{
glyphname = oslash;
lastChange = "2016-09-02 12:46:05 +0000";
layers = (
{
layerId = "EE746D13-63D7-48F9-B77E-C723CA6A668B";
paths = (
{
closed = 1;
nodes = (
"274 78 LINE",
"364 8 OFFCURVE",
"472 -27 OFFCURVE",
"598 -27 CURVE SMOOTH",
"704 -27 OFFCURVE",
"797 -2 OFFCURVE",
"876 49 CURVE SMOOTH",
"1035 149 OFFCURVE",
"1116 325 OFFCURVE",
"1116 537 CURVE SMOOTH",
"1116 690 OFFCURVE",
"1075 818 OFFCURVE",
"994 921 CURVE",
"1178 1137 LINE",
"1112 1190 LINE",
"935 983 LINE",
"844 1062 OFFCURVE",
"731 1102 OFFCURVE",
"596 1102 CURVE SMOOTH",
"489 1102 OFFCURVE",
"396 1077 OFFCURVE",
"316 1027 CURVE SMOOTH",
"156 927 OFFCURVE",
"74 750 OFFCURVE",
"74 537 CURVE SMOOTH",
"74 374 OFFCURVE",
"120 241 OFFCURVE",
"212 136 CURVE",
"47 -57 LINE",
"113 -111 LINE"
);
},
{
closed = 1;
nodes = (
"511 100 OFFCURVE",
"440 137 OFFCURVE",
"387 210 CURVE",
"857 760 LINE",
"877 695 OFFCURVE",
"887 617 OFFCURVE",
"887 524 CURVE SMOOTH",
"887 269 OFFCURVE",
"777 100 OFFCURVE",
"598 100 CURVE SMOOTH"
);
},
{
closed = 1;
nodes = (
"316 357 OFFCURVE",
"303 435 OFFCURVE",
"303 524 CURVE SMOOTH",
"303 613 OFFCURVE",
"313 692 OFFCURVE",
"333 759 CURVE SMOOTH",
"372 894 OFFCURVE",
"464 983 OFFCURVE",
"596 983 CURVE SMOOTH",
"695 983 OFFCURVE",
"769 938 OFFCURVE",
"820 848 CURVE",
"343 290 LINE"
);
}
);
width = 1189;
}
);
leftKerningGroup = c;
note = oslash;
rightKerningGroup = b;
unicode = 00F8;
},
{
glyphname = oe;
lastChange = "2016-09-02 12:46:05 +0000";
layers = (
{
layerId = "EE746D13-63D7-48F9-B77E-C723CA6A668B";
paths = (
{
closed = 1;
nodes = (
"1647 -29 OFFCURVE",
"1815 113 OFFCURVE",
"1867 334 CURVE",
"1750 371 LINE",
"1707 214 OFFCURVE",
"1570 123 OFFCURVE",
"1431 123 CURVE SMOOTH",
"1324 123 OFFCURVE",
"1240 171 OFFCURVE",
"1191 250 CURVE SMOOTH",
"1142 329 OFFCURVE",
"1117 428 OFFCURVE",
"1117 543 CURVE SMOOTH",
"1117 551 LINE",
"1888 551 LINE",
"1885 727 OFFCURVE",
"1830 872 OFFCURVE",
"1742 963 CURVE SMOOTH",
"1654 1054 OFFCURVE",
"1534 1104 OFFCURVE",
"1398 1104 CURVE SMOOTH",
"1230 1104 OFFCURVE",
"1094 1030 OFFCURVE",
"1005 907 CURVE",
"908 1037 OFFCURVE",
"772 1102 OFFCURVE",
"596 1102 CURVE SMOOTH",
"489 1102 OFFCURVE",
"396 1077 OFFCURVE",
"316 1027 CURVE SMOOTH",
"156 927 OFFCURVE",
"74 750 OFFCURVE",
"74 537 CURVE SMOOTH",
"74 210 OFFCURVE",
"278 -27 OFFCURVE",
"598 -27 CURVE SMOOTH",
"771 -27 OFFCURVE",
"911 43 OFFCURVE",
"1003 166 CURVE",
"1095 45 OFFCURVE",
"1234 -29 OFFCURVE",
"1410 -29 CURVE SMOOTH"
);
},
{
closed = 1;
nodes = (
"415 100 OFFCURVE",
"303 268 OFFCURVE",
"303 524 CURVE SMOOTH",
"303 613 OFFCURVE",
"313 692 OFFCURVE",
"333 759 CURVE SMOOTH",
"372 894 OFFCURVE",
"464 983 OFFCURVE",
"596 983 CURVE SMOOTH",
"662 983 OFFCURVE",
"717 963 OFFCURVE",
"762 922 CURVE SMOOTH",
"851 840 OFFCURVE",
"887 704 OFFCURVE",
"887 524 CURVE SMOOTH",
"887 269 OFFCURVE",
"777 100 OFFCURVE",
"598 100 CURVE SMOOTH"
);
},
{
closed = 1;
nodes = (
"1140 854 OFFCURVE",
"1257 985 OFFCURVE",
"1404 985 CURVE SMOOTH",
"1549 985 OFFCURVE",
"1663 852 OFFCURVE",
"1668 659 CURVE",
"1124 659 LINE"
);
}
);
width = 1964;
}
);
leftKerningGroup = c;
note = oe;
rightKerningGroup = e;
unicode = 0153;
},
{
glyphname = p;
lastChange = "2016-09-02 12:46:05 +0000";
layers = (
{
layerId = "EE746D13-63D7-48F9-B77E-C723CA6A668B";
paths = (
{
closed = 1;
nodes = (
"618 -401 LINE",
"618 -279 LINE",
"397 -279 LINE",
"397 133 LINE",
"465 33 OFFCURVE",
"573 -27 OFFCURVE",
"692 -27 CURVE SMOOTH",
"971 -27 OFFCURVE",
"1147 206 OFFCURVE",
"1147 539 CURVE SMOOTH",
"1147 643 OFFCURVE",
"1129 738 OFFCURVE",
"1094 823 CURVE SMOOTH",
"1022 994 OFFCURVE",
"884 1102 OFFCURVE",
"717 1102 CURVE SMOOTH",
"577 1102 OFFCURVE",
"463 1032 OFFCURVE",
"391 901 CURVE",
"391 1102 LINE",
"-12 1073 LINE",
"-12 961 LINE",
"182 961 LINE",
"182 -281 LINE",
"-53 -281 LINE",
"-53 -401 LINE"
);
},
{
closed = 1;
nodes = (
"560 86 OFFCURVE",
"485 144 OFFCURVE",
"445 233 CURVE SMOOTH",
"404 321 OFFCURVE",
"383 424 OFFCURVE",
"383 532 CURVE SMOOTH",
"383 791 OFFCURVE",
"493 975 OFFCURVE",
"653 975 CURVE SMOOTH",
"708 975 OFFCURVE",
"756 954 OFFCURVE",
"797 913 CURVE SMOOTH",
"880 829 OFFCURVE",
"918 698 OFFCURVE",
"918 551 CURVE SMOOTH",
"918 436 OFFCURVE",
"898 329 OFFCURVE",
"858 237 CURVE SMOOTH",
"818 145 OFFCURVE",
"745 86 OFFCURVE",
"653 86 CURVE SMOOTH"
);
}
);
width = 1220;
}
);
note = p;
rightKerningGroup = b;
unicode = 0070;
},
{
glyphname = thorn;
lastChange = "2016-09-02 12:46:05 +0000";
layers = (
{
layerId = "EE746D13-63D7-48F9-B77E-C723CA6A668B";
paths = (
{
closed = 1;
nodes = (
"657 -401 LINE",
"657 -279 LINE",
"436 -279 LINE",
"436 133 LINE",
"504 33 OFFCURVE",
"612 -27 OFFCURVE",
"731 -27 CURVE SMOOTH",
"1010 -27 OFFCURVE",
"1186 206 OFFCURVE",
"1186 539 CURVE SMOOTH",
"1186 643 OFFCURVE",
"1168 738 OFFCURVE",
"1133 823 CURVE SMOOTH",
"1061 994 OFFCURVE",
"923 1102 OFFCURVE",
"756 1102 CURVE SMOOTH",
"616 1102 OFFCURVE",
"502 1032 OFFCURVE",
"430 901 CURVE",
"430 1536 LINE",
"27 1536 LINE",
"27 1423 LINE",
"221 1423 LINE",
"221 -281 LINE",
"-14 -281 LINE",
"-14 -401 LINE"
);
},
{
closed = 1;
nodes = (
"599 86 OFFCURVE",
"524 144 OFFCURVE",
"484 233 CURVE SMOOTH",
"443 321 OFFCURVE",
"422 424 OFFCURVE",
"422 532 CURVE SMOOTH",
"422 791 OFFCURVE",
"532 975 OFFCURVE",
"692 975 CURVE SMOOTH",
"747 975 OFFCURVE",
"795 954 OFFCURVE",
"836 913 CURVE SMOOTH",
"918 829 OFFCURVE",
"956 698 OFFCURVE",
"956 551 CURVE SMOOTH",
"956 436 OFFCURVE",
"937 329 OFFCURVE",
"897 237 CURVE SMOOTH",
"857 145 OFFCURVE",
"784 86 OFFCURVE",
"692 86 CURVE SMOOTH"
);
}
);
width = 1275;
}
);
note = thorn;
rightKerningGroup = b;
unicode = 00FE;
},
{
glyphname = q;
lastChange = "2016-09-02 12:46:05 +0000";
layers = (
{
layerId = "EE746D13-63D7-48F9-B77E-C723CA6A668B";
paths = (
{
closed = 1;
nodes = (
"1253 -399 LINE",
"1253 -276 LINE",
"1047 -276 LINE",
"1047 1073 LINE",
"954 1073 LINE",
"877 877 LINE",
"812 1030 OFFCURVE",
"671 1102 OFFCURVE",
"524 1102 CURVE SMOOTH",
"437 1102 OFFCURVE",
"359 1077 OFFCURVE",
"290 1028 CURVE SMOOTH",
"153 929 OFFCURVE",
"74 750 OFFCURVE",
"74 539 CURVE SMOOTH",
"74 206 OFFCURVE",
"256 -27 OFFCURVE",
"535 -27 CURVE SMOOTH",
"654 -27 OFFCURVE",
"763 33 OFFCURVE",
"831 133 CURVE",
"831 -276 LINE",
"614 -275 LINE",
"614 -399 LINE"
);
},
{
closed = 1;
nodes = (
"473 86 OFFCURVE",
"401 145 OFFCURVE",
"362 237 CURVE SMOOTH",
"322 329 OFFCURVE",
"303 435 OFFCURVE",
"303 551 CURVE SMOOTH",
"303 625 OFFCURVE",
"313 694 OFFCURVE",
"332 758 CURVE SMOOTH",
"370 886 OFFCURVE",
"456 983 OFFCURVE",
"565 983 CURVE SMOOTH",
"619 983 OFFCURVE",
"666 961 OFFCURVE",
"707 917 CURVE SMOOTH",
"788 828 OFFCURVE",
"831 673 OFFCURVE",
"831 492 CURVE SMOOTH",
"831 404 OFFCURVE",
"809 311 OFFCURVE",
"769 228 CURVE SMOOTH",
"728 144 OFFCURVE",
"653 86 OFFCURVE",
"565 86 CURVE SMOOTH"
);
}
);
width = 1196;
}
);
leftKerningGroup = c;
note = q;
unicode = 0071;
},
{
glyphname = r;
lastChange = "2016-09-02 12:46:05 +0000";
layers = (
{
layerId = "EE746D13-63D7-48F9-B77E-C723CA6A668B";
paths = (
{
closed = 1;
nodes = (
"684 0 LINE",
"684 112 LINE",
"459 112 LINE",
"459 575 LINE SMOOTH",
"459 674 OFFCURVE",
"476 767 OFFCURVE",
"510 850 CURVE SMOOTH",
"544 933 OFFCURVE",
"607 987 OFFCURVE",
"687 987 CURVE",
"676 976 LINE",
"663 960 OFFCURVE",
"646 927 OFFCURVE",
"646 899 CURVE SMOOTH",
"646 818 OFFCURVE",
"711 766 OFFCURVE",
"788 766 CURVE SMOOTH",
"871 766 OFFCURVE",
"941 826 OFFCURVE",
"941 930 CURVE SMOOTH",
"941 1039 OFFCURVE",
"851 1102 OFFCURVE",
"743 1102 CURVE SMOOTH",
"663 1102 OFFCURVE",
"592 1068 OFFCURVE",
"546 1016 CURVE SMOOTH",
"500 964 OFFCURVE",
"471 911 OFFCURVE",
"455 856 CURVE",
"428 1090 LINE",
"49 1073 LINE",
"49 961 LINE",
"244 961 LINE",
"244 112 LINE",
"49 112 LINE",
"49 0 LINE"
);
}
);
width = 954;
}
);
leftKerningGroup = r;
note = r;
rightKerningGroup = r;
unicode = 0072;
},
{
glyphname = s;
lastChange = "2016-09-02 12:46:03 +0000";
layers = (
{
layerId = "EE746D13-63D7-48F9-B77E-C723CA6A668B";
paths = (
{
closed = 1;
nodes = (
"559 -27 OFFCURVE",
"603 -24 OFFCURVE",
"644 -18 CURVE SMOOTH",
"726 -6 OFFCURVE",
"810 25 OFFCURVE",
"867 73 CURVE SMOOTH",
"924 120 OFFCURVE",
"963 198 OFFCURVE",
"963 295 CURVE SMOOTH",
"963 391 OFFCURVE",
"920 469 OFFCURVE",
"856 516 CURVE SMOOTH",
"791 563 OFFCURVE",
"706 604 OFFCURVE",
"619 628 CURVE SMOOTH",
"532 651 OFFCURVE",
"447 680 OFFCURVE",
"383 705 CURVE SMOOTH",
"318 729 OFFCURVE",
"275 771 OFFCURVE",
"275 823 CURVE SMOOTH",
"275 932 OFFCURVE",
"383 995 OFFCURVE",
"520 995 CURVE SMOOTH",
"603 995 OFFCURVE",
"678 979 OFFCURVE",
"744 947 CURVE",
"729 937 OFFCURVE",
"717 929 OFFCURVE",
"709 923 CURVE",
"693 910 OFFCURVE",
"668 875 OFFCURVE",
"668 836 CURVE SMOOTH",
"668 756 OFFCURVE",
"729 707 OFFCURVE",
"805 707 CURVE SMOOTH",
"874 707 OFFCURVE",
"934 768 OFFCURVE",
"934 857 CURVE SMOOTH",
"934 934 OFFCURVE",
"875 1001 OFFCURVE",
"791 1041 CURVE SMOOTH",
"706 1080 OFFCURVE",
"604 1102 OFFCURVE",
"508 1102 CURVE SMOOTH",
"475 1102 OFFCURVE",
"441 1099 OFFCURVE",
"406 1094 CURVE SMOOTH",
"335 1082 OFFCURVE",
"252 1051 OFFCURVE",
"192 1007 CURVE SMOOTH",
"132 962 OFFCURVE",
"88 888 OFFCURVE",
"88 797 CURVE SMOOTH",
"88 706 OFFCURVE",
"131 635 OFFCURVE",
"195 592 CURVE SMOOTH",
"259 549 OFFCURVE",
"345 513 OFFCURVE",
"430 491 CURVE SMOOTH",
"515 469 OFFCURVE",
"601 438 OFFCURVE",
"665 409 CURVE SMOOTH",
"729 380 OFFCURVE",
"772 328 OFFCURVE",
"772 264 CURVE SMOOTH",
"772 221 OFFCURVE",
"758 186 OFFCURVE",
"729 159 CURVE SMOOTH",
"672 104 OFFCURVE",
"591 88 OFFCURVE",
"488 88 CURVE SMOOTH",
"400 88 OFFCURVE",
"304 116 OFFCURVE",
"253 153 CURVE",
"304 153 OFFCURVE",
"351 203 OFFCURVE",
"351 271 CURVE SMOOTH",
"351 350 OFFCURVE",
"291 392 OFFCURVE",
"216 392 CURVE SMOOTH",
"143 392 OFFCURVE",
"79 330 OFFCURVE",
"79 243 CURVE SMOOTH",
"79 150 OFFCURVE",
"136 74 OFFCURVE",
"224 34 CURVE SMOOTH",
"311 -7 OFFCURVE",
"410 -27 OFFCURVE",
"514 -27 CURVE SMOOTH"
);
}
);
width = 1040;
}
);
leftKerningGroup = s;
note = s;
rightKerningGroup = s;
unicode = 0073;
},
{
glyphname = germandbls;
lastChange = "2016-09-02 12:46:05 +0000";
layers = (
{
layerId = "EE746D13-63D7-48F9-B77E-C723CA6A668B";
paths = (
{
closed = 1;
nodes = (
"430 0 LINE",
"430 981 LINE SMOOTH",
"430 1218 OFFCURVE",
"512 1354 OFFCURVE",
"680 1354 CURVE SMOOTH",
"809 1354 OFFCURVE",
"891 1278 OFFCURVE",
"891 1149 CURVE SMOOTH",
"891 1097 OFFCURVE",
"862 1047 OFFCURVE",
"823 1012 CURVE SMOOTH",
"696 902 LINE SMOOTH",
"656 868 OFFCURVE",
"627 817 OFFCURVE",
"627 766 CURVE SMOOTH",
"627 745 OFFCURVE",
"634 725 OFFCURVE",
"649 707 CURVE SMOOTH",
"678 670 OFFCURVE",
"727 645 OFFCURVE",
"784 618 CURVE SMOOTH",
"840 590 OFFCURVE",
"900 558 OFFCURVE",
"947 519 CURVE SMOOTH",
"994 479 OFFCURVE",
"1026 420 OFFCURVE",
"1026 348 CURVE SMOOTH",
"1026 270 OFFCURVE",
"989 212 OFFCURVE",
"915 175 CURVE SMOOTH",
"840 138 OFFCURVE",
"722 119 OFFCURVE",
"561 119 CURVE",
"561 0 LINE",
"603 0 OFFCURVE",
"642 1 OFFCURVE",
"678 2 CURVE SMOOTH",
"749 5 OFFCURVE",
"857 16 OFFCURVE",
"934 35 CURVE SMOOTH",
"1010 54 OFFCURVE",
"1098 90 OFFCURVE",
"1151 138 CURVE SMOOTH",
"1203 186 OFFCURVE",
"1241 261 OFFCURVE",
"1241 350 CURVE SMOOTH",
"1241 447 OFFCURVE",
"1194 533 OFFCURVE",
"1132 584 CURVE SMOOTH",
"1070 635 OFFCURVE",
"991 680 OFFCURVE",
"929 705 CURVE SMOOTH",
"898 717 OFFCURVE",
"872 729 OFFCURVE",
"851 740 CURVE SMOOTH",
"830 751 OFFCURVE",
"819 761 OFFCURVE",
"819 770 CURVE SMOOTH",
"819 777 OFFCURVE",
"828 786 OFFCURVE",
"846 799 CURVE SMOOTH",
"881 824 OFFCURVE",
"935 862 OFFCURVE",
"985 911 CURVE SMOOTH",
"1035 960 OFFCURVE",
"1075 1042 OFFCURVE",
"1075 1130 CURVE SMOOTH",
"1075 1371 OFFCURVE",
"917 1489 OFFCURVE",
"672 1489 CURVE SMOOTH",
"379 1489 OFFCURVE",
"215 1314 OFFCURVE",
"215 981 CURVE SMOOTH",
"215 119 LINE",
"68 119 LINE",
"68 0 LINE"
);
}
);
width = 1314;
}
);
note = germandbls;
unicode = 00DF;
},
{
glyphname = t;
lastChange = "2016-09-02 12:46:05 +0000";
layers = (
{
layerId = "EE746D13-63D7-48F9-B77E-C723CA6A668B";
paths = (
{
closed = 1;
nodes = (
"745 -27 OFFCURVE",
"827 107 OFFCURVE",
"827 371 CURVE SMOOTH",
"827 494 LINE",
"707 494 LINE",
"707 350 LINE SMOOTH",
"707 174 OFFCURVE",
"652 113 OFFCURVE",
"545 113 CURVE SMOOTH",
"457 113 OFFCURVE",
"399 172 OFFCURVE",
"399 289 CURVE SMOOTH",
"399 959 LINE",
"793 959 LINE",
"793 1073 LINE",
"399 1073 LINE",
"399 1470 LINE SMOOTH",
"399 1493 OFFCURVE",
"388 1505 OFFCURVE",
"373 1505 CURVE SMOOTH",
"362 1505 OFFCURVE",
"350 1491 OFFCURVE",
"336 1462 CURVE SMOOTH",
"321 1433 OFFCURVE",
"305 1396 OFFCURVE",
"286 1353 CURVE SMOOTH",
"267 1309 OFFCURVE",
"245 1264 OFFCURVE",
"220 1219 CURVE SMOOTH",
"170 1127 OFFCURVE",
"83 1039 OFFCURVE",
"-20 1008 CURVE",
"-20 961 LINE",
"184 961 LINE",
"184 295 LINE SMOOTH",
"184 187 OFFCURVE",
"225 100 OFFCURVE",
"287 49 CURVE SMOOTH",
"349 -2 OFFCURVE",
"425 -27 OFFCURVE",
"508 -27 CURVE SMOOTH"
);
}
);
width = 892;
}
);
leftKerningGroup = t;
note = t;
unicode = 0074;
},
{
glyphname = u;
lastChange = "2016-09-02 12:46:05 +0000";
layers = (
{
layerId = "EE746D13-63D7-48F9-B77E-C723CA6A668B";
paths = (
{
closed = 1;
nodes = (
"1284 0 LINE",
"1284 92 LINE",
"1090 113 LINE",
"1090 1073 LINE",
"692 1073 LINE",
"692 961 LINE",
"874 961 LINE",
"874 375 LINE SMOOTH",
"874 333 OFFCURVE",
"858 291 OFFCURVE",
"826 250 CURVE SMOOTH",
"761 167 OFFCURVE",
"657 112 OFFCURVE",
"573 112 CURVE SMOOTH",
"454 112 OFFCURVE",
"399 185 OFFCURVE",
"399 362 CURVE SMOOTH",
"399 1073 LINE",
"-4 1073 LINE",
"-4 961 LINE",
"184 961 LINE",
"184 360 LINE SMOOTH",
"184 249 OFFCURVE",
"207 160 OFFCURVE",
"245 106 CURVE SMOOTH",
"283 52 OFFCURVE",
"326 13 OFFCURVE",
"380 -4 CURVE SMOOTH",
"434 -21 OFFCURVE",
"473 -27 OFFCURVE",
"520 -27 CURVE SMOOTH",
"677 -27 OFFCURVE",
"797 48 OFFCURVE",
"881 197 CURVE",
"881 -29 LINE"
);
}
);
width = 1286;
}
);
leftKerningGroup = u;
note = u;
rightKerningGroup = u;
unicode = 0075;
},
{
glyphname = v;
lastChange = "2016-09-02 12:46:05 +0000";
layers = (
{
layerId = "EE746D13-63D7-48F9-B77E-C723CA6A668B";
paths = (
{
closed = 1;
nodes = (
"641 -39 LINE SMOOTH",
"718 -39 OFFCURVE",
"764 6 OFFCURVE",
"803 115 CURVE SMOOTH",
"1098 961 LINE",
"1270 961 LINE",
"1270 1073 LINE",
"758 1073 LINE",
"758 961 LINE",
"928 961 LINE",
"672 158 LINE",
"408 961 LINE",
"590 961 LINE",
"590 1073 LINE",
"-14 1073 LINE",
"-14 961 LINE",
"170 961 LINE",
"483 109 LINE SMOOTH",
"520 6 OFFCURVE",
"566 -38 OFFCURVE",
"635 -39 CURVE SMOOTH"
);
}
);
width = 1255;
}
);
leftKerningGroup = v;
note = v;
rightKerningGroup = v;
unicode = 0076;
},
{
glyphname = w;
lastChange = "2016-09-02 12:46:05 +0000";
layers = (
{
layerId = "EE746D13-63D7-48F9-B77E-C723CA6A668B";
paths = (
{
closed = 1;
nodes = (
"605 -39 OFFCURVE",
"638 -1 OFFCURVE",
"674 111 CURVE SMOOTH",
"881 748 LINE",
"1057 102 LINE SMOOTH",
"1085 -1 OFFCURVE",
"1120 -39 OFFCURVE",
"1188 -39 CURVE SMOOTH",
"1261 -39 OFFCURVE",
"1290 -6 OFFCURVE",
"1319 109 CURVE SMOOTH",
"1546 961 LINE",
"1688 961 LINE",
"1688 1073 LINE",
"1227 1073 LINE",
"1227 961 LINE",
"1395 961 LINE",
"1208 213 LINE",
"991 958 LINE",
"809 958 LINE",
"575 219 LINE",
"408 961 LINE",
"569 961 LINE",
"569 1073 LINE",
"8 1073 LINE",
"8 961 LINE",
"176 961 LINE",
"403 104 LINE SMOOTH",
"431 0 OFFCURVE",
"466 -39 OFFCURVE",
"530 -39 CURVE SMOOTH"
);
}
);
width = 1687;
}
);
leftKerningGroup = w;
note = w;
rightKerningGroup = w;
unicode = 0077;
},
{
glyphname = x;
lastChange = "2016-09-02 12:46:05 +0000";
layers = (
{
layerId = "EE746D13-63D7-48F9-B77E-C723CA6A668B";
paths = (
{
closed = 1;
nodes = (
"543 0 LINE",
"543 112 LINE",
"362 112 LINE",
"622 440 LINE",
"860 112 LINE",
"682 112 LINE",
"682 0 LINE",
"1276 0 LINE",
"1276 112 LINE",
"1110 112 LINE",
"737 572 LINE",
"1053 961 LINE",
"1217 961 LINE",
"1217 1073 LINE",
"713 1073 LINE",
"713 961 LINE",
"874 961 LINE",
"647 659 LINE",
"422 961 LINE",
"571 961 LINE",
"571 1073 LINE",
"4 1073 LINE",
"4 961 LINE",
"168 961 LINE",
"522 526 LINE",
"184 112 LINE",
"27 112 LINE",
"27 0 LINE"
);
}
);
width = 1280;
}
);
leftKerningGroup = x;
note = x;
rightKerningGroup = x;
unicode = 0078;
},
{
glyphname = y;
lastChange = "2016-09-02 12:46:03 +0000";
layers = (
{
layerId = "EE746D13-63D7-48F9-B77E-C723CA6A668B";
paths = (
{
closed = 1;
nodes = (
"539 -467 OFFCURVE",
"659 -347 OFFCURVE",
"778 -4 CURVE SMOOTH",
"1122 961 LINE",
"1294 961 LINE",
"1294 1073 LINE",
"780 1073 LINE",
"780 961 LINE",
"946 961 LINE",
"698 176 LINE",
"408 961 LINE",
"590 961 LINE",
"590 1073 LINE",
"-27 1073 LINE",
"-27 961 LINE",
"172 961 LINE",
"569 -23 LINE",
"526 -266 OFFCURVE",
"445 -362 OFFCURVE",
"328 -362 CURVE SMOOTH",
"312 -362 OFFCURVE",
"290 -355 OFFCURVE",
"262 -340 CURVE",
"309 -317 OFFCURVE",
"346 -278 OFFCURVE",
"346 -229 CURVE SMOOTH",
"346 -148 OFFCURVE",
"304 -84 OFFCURVE",
"221 -84 CURVE SMOOTH",
"114 -84 OFFCURVE",
"49 -151 OFFCURVE",
"49 -244 CURVE SMOOTH",
"49 -375 OFFCURVE",
"176 -467 OFFCURVE",
"360 -467 CURVE SMOOTH"
);
}
);
width = 1280;
}
);
leftKerningGroup = y;
note = y;
rightKerningGroup = y;
unicode = 0079;
},
{
glyphname = z;
lastChange = "2016-09-02 12:46:05 +0000";
layers = (
{
layerId = "EE746D13-63D7-48F9-B77E-C723CA6A668B";
paths = (
{
closed = 1;
nodes = (
"1010 0 LINE",
"1010 418 LINE",
"846 418 LINE",
"846 112 LINE",
"324 112 LINE",
"969 924 LINE",
"940 1073 LINE",
"119 1073 LINE",
"119 686 LINE",
"283 686 LINE",
"283 961 LINE",
"748 961 LINE",
"111 158 LINE",
"109 158 LINE",
"127 0 LINE"
);
}
);
width = 1093;
}
);
note = z;
rightKerningGroup = z;
unicode = 007A;
},
{
glyphname = c_h;
lastChange = "2016-09-02 12:46:05 +0000";
layers = (
{
layerId = "EE746D13-63D7-48F9-B77E-C723CA6A668B";
paths = (
{
closed = 1;
nodes = (
"841 -29 OFFCURVE",
"1012 114 OFFCURVE",
"1063 334 CURVE",
"950 371 LINE",
"937 328 OFFCURVE",
"901 276 OFFCURVE",
"850 225 CURVE SMOOTH",
"798 173 OFFCURVE",
"718 135 OFFCURVE",
"637 135 CURVE SMOOTH",
"426 135 OFFCURVE",
"301 292 OFFCURVE",
"301 549 CURVE SMOOTH",
"301 660 OFFCURVE",
"330 764 OFFCURVE",
"385 849 CURVE SMOOTH",
"440 933 OFFCURVE",
"535 989 OFFCURVE",
"651 989 CURVE SMOOTH",
"755 989 OFFCURVE",
"839 939 OFFCURVE",
"883 868 CURVE",
"800 868 OFFCURVE",
"729 818 OFFCURVE",
"729 731 CURVE SMOOTH",
"729 646 OFFCURVE",
"796 590 OFFCURVE",
"883 590 CURVE SMOOTH",
"980 590 OFFCURVE",
"1040 673 OFFCURVE",
"1040 752 CURVE SMOOTH",
"1040 787 OFFCURVE",
"1032 823 OFFCURVE",
"1017 860 CURVE SMOOTH",
"986 934 OFFCURVE",
"939 995 OFFCURVE",
"895 1056 CURVE SMOOTH",
"850 1116 OFFCURVE",
"815 1186 OFFCURVE",
"815 1243 CURVE SMOOTH",
"815 1319 OFFCURVE",
"849 1363 OFFCURVE",
"982 1392 CURVE SMOOTH",
"1048 1406 OFFCURVE",
"1139 1413 OFFCURVE",
"1255 1413 CURVE",
"1255 117 LINE",
"1071 117 LINE",
"1071 0 LINE",
"1665 0 LINE",
"1665 117 LINE",
"1470 117 LINE",
"1470 598 LINE SMOOTH",
"1470 793 OFFCURVE",
"1634 961 OFFCURVE",
"1778 961 CURVE SMOOTH",
"1873 961 OFFCURVE",
"1937 887 OFFCURVE",
"1937 731 CURVE SMOOTH",
"1937 117 LINE",
"1743 117 LINE",
"1743 0 LINE",
"2367 0 LINE",
"2367 117 LINE",
"2152 117 LINE",
"2152 723 LINE SMOOTH",
"2152 788 OFFCURVE",
"2144 845 OFFCURVE",
"2128 894 CURVE SMOOTH",
"2096 991 OFFCURVE",
"2051 1036 OFFCURVE",
"1987 1067 CURVE SMOOTH",
"1922 1098 OFFCURVE",
"1877 1102 OFFCURVE",
"1821 1102 CURVE SMOOTH",
"1778 1102 OFFCURVE",
"1736 1096 OFFCURVE",
"1695 1083 CURVE SMOOTH",
"1612 1057 OFFCURVE",
"1521 987 OFFCURVE",
"1470 883 CURVE",
"1470 1536 LINE",
"1278 1536 LINE SMOOTH",
"1130 1536 OFFCURVE",
"1012 1525 OFFCURVE",
"924 1504 CURVE SMOOTH",
"748 1461 OFFCURVE",
"687 1387 OFFCURVE",
"687 1264 CURVE SMOOTH",
"687 1258 OFFCURVE",
"688 1252 OFFCURVE",
"689 1246 CURVE SMOOTH",
"691 1233 OFFCURVE",
"692 1224 OFFCURVE",
"697 1209 CURVE",
"700 1201 OFFCURVE",
"702 1195 OFFCURVE",
"703 1191 CURVE",
"704 1186 OFFCURVE",
"707 1180 OFFCURVE",
"711 1172 CURVE SMOOTH",
"719 1155 OFFCURVE",
"720 1154 OFFCURVE",
"730 1135 CURVE SMOOTH",
"739 1118 LINE",
"741 1113 OFFCURVE",
"757 1084 OFFCURVE",
"758 1083 CURVE",
"711 1097 OFFCURVE",
"664 1104 OFFCURVE",
"616 1104 CURVE SMOOTH",
"546 1104 OFFCURVE",
"482 1093 OFFCURVE",
"423 1072 CURVE SMOOTH",
"305 1029 OFFCURVE",
"222 954 OFFCURVE",
"162 855 CURVE SMOOTH",
"102 755 OFFCURVE",
"74 639 OFFCURVE",
"74 516 CURVE SMOOTH",
"74 353 OFFCURVE",
"132 210 OFFCURVE",
"225 118 CURVE SMOOTH",
"318 25 OFFCURVE",
"449 -29 OFFCURVE",
"592 -29 CURVE SMOOTH"
);
}
);
width = 2381;
}
);
leftKerningGroup = c;
note = c_h;
rightKerningGroup = h;
},
{
glyphname = c_k;
lastChange = "2016-09-02 12:46:05 +0000";
layers = (
{
layerId = "EE746D13-63D7-48F9-B77E-C723CA6A668B";
paths = (
{
closed = 1;
nodes = (
"841 -29 OFFCURVE",
"1012 114 OFFCURVE",
"1063 334 CURVE",
"950 371 LINE",
"937 328 OFFCURVE",
"901 276 OFFCURVE",
"850 225 CURVE SMOOTH",
"798 173 OFFCURVE",
"718 135 OFFCURVE",
"637 135 CURVE SMOOTH",
"426 135 OFFCURVE",
"301 292 OFFCURVE",
"301 549 CURVE SMOOTH",
"301 660 OFFCURVE",
"330 764 OFFCURVE",
"385 849 CURVE SMOOTH",
"440 933 OFFCURVE",
"535 989 OFFCURVE",
"651 989 CURVE SMOOTH",
"755 989 OFFCURVE",
"839 939 OFFCURVE",
"883 868 CURVE",
"800 868 OFFCURVE",
"729 818 OFFCURVE",
"729 731 CURVE SMOOTH",
"729 646 OFFCURVE",
"796 590 OFFCURVE",
"883 590 CURVE SMOOTH",
"980 590 OFFCURVE",
"1040 673 OFFCURVE",
"1040 752 CURVE SMOOTH",
"1040 787 OFFCURVE",
"1032 823 OFFCURVE",
"1017 860 CURVE SMOOTH",
"986 934 OFFCURVE",
"939 995 OFFCURVE",
"895 1056 CURVE SMOOTH",
"850 1116 OFFCURVE",
"815 1186 OFFCURVE",
"815 1243 CURVE SMOOTH",
"815 1319 OFFCURVE",
"849 1363 OFFCURVE",
"982 1392 CURVE SMOOTH",
"1048 1406 OFFCURVE",
"1139 1413 OFFCURVE",
"1255 1413 CURVE SMOOTH",
"1290 1413 LINE",
"1290 117 LINE",
"1087 117 LINE",
"1087 0 LINE",
"1675 0 LINE",
"1675 117 LINE",
"1505 117 LINE",
"1505 418 LINE",
"1671 545 LINE",
"1872 199 LINE SMOOTH",
"1956 56 OFFCURVE",
"2052 -20 OFFCURVE",
"2195 -20 CURVE SMOOTH",
"2266 -20 OFFCURVE",
"2309 -14 OFFCURVE",
"2374 23 CURVE",
"2345 158 LINE",
"2314 144 OFFCURVE",
"2280 137 OFFCURVE",
"2241 137 CURVE SMOOTH",
"2176 137 OFFCURVE",
"2109 181 OFFCURVE",
"2047 259 CURVE SMOOTH",
"1985 337 OFFCURVE",
"1942 403 OFFCURVE",
"1877 508 CURVE SMOOTH",
"1844 561 OFFCURVE",
"1818 601 OFFCURVE",
"1798 629 CURVE",
"2144 956 LINE",
"2335 956 LINE",
"2335 1073 LINE",
"1735 1073 LINE",
"1735 956 LINE",
"1923 956 LINE",
"1505 571 LINE",
"1505 1536 LINE",
"1278 1536 LINE SMOOTH",
"1130 1536 OFFCURVE",
"1012 1525 OFFCURVE",
"924 1504 CURVE SMOOTH",
"748 1461 OFFCURVE",
"687 1387 OFFCURVE",
"687 1264 CURVE SMOOTH",
"687 1258 OFFCURVE",
"688 1252 OFFCURVE",
"689 1246 CURVE SMOOTH",
"691 1233 OFFCURVE",
"692 1224 OFFCURVE",
"697 1209 CURVE",
"700 1201 OFFCURVE",
"702 1195 OFFCURVE",
"703 1191 CURVE",
"704 1186 OFFCURVE",
"707 1180 OFFCURVE",
"711 1172 CURVE SMOOTH",
"719 1155 OFFCURVE",
"720 1154 OFFCURVE",
"730 1135 CURVE SMOOTH",
"739 1118 LINE",
"741 1113 OFFCURVE",
"757 1084 OFFCURVE",
"758 1083 CURVE",
"711 1097 OFFCURVE",
"664 1104 OFFCURVE",
"616 1104 CURVE SMOOTH",
"546 1104 OFFCURVE",
"482 1093 OFFCURVE",
"423 1072 CURVE SMOOTH",
"305 1029 OFFCURVE",
"222 954 OFFCURVE",
"162 855 CURVE SMOOTH",
"102 755 OFFCURVE",
"74 639 OFFCURVE",
"74 516 CURVE SMOOTH",
"74 353 OFFCURVE",
"132 210 OFFCURVE",
"225 118 CURVE SMOOTH",
"318 25 OFFCURVE",
"449 -29 OFFCURVE",
"592 -29 CURVE SMOOTH"
);
}
);
width = 2351;
}
);
leftKerningGroup = c;
note = c_k;
},
{
glyphname = f_f;
lastChange = "2016-09-02 12:46:05 +0000";
layers = (
{
layerId = "EE746D13-63D7-48F9-B77E-C723CA6A668B";
paths = (
{
closed = 1;
nodes = (
"614 0 LINE",
"614 117 LINE",
"483 117 LINE",
"483 961 LINE",
"860 961 LINE",
"860 117 LINE",
"709 117 LINE",
"709 0 LINE",
"1268 0 LINE",
"1268 117 LINE",
"1075 117 LINE",
"1075 961 LINE",
"1323 961 LINE",
"1323 1073 LINE",
"1069 1073 LINE",
"1069 1243 LINE SMOOTH",
"1069 1418 OFFCURVE",
"1153 1499 OFFCURVE",
"1278 1499 CURVE SMOOTH",
"1347 1499 OFFCURVE",
"1418 1464 OFFCURVE",
"1419 1415 CURVE",
"1359 1415 OFFCURVE",
"1296 1365 OFFCURVE",
"1296 1294 CURVE SMOOTH",
"1296 1215 OFFCURVE",
"1353 1159 OFFCURVE",
"1425 1159 CURVE SMOOTH",
"1512 1159 OFFCURVE",
"1581 1221 OFFCURVE",
"1581 1325 CURVE SMOOTH",
"1581 1389 OFFCURVE",
"1561 1445 OFFCURVE",
"1513 1498 CURVE SMOOTH",
"1465 1550 OFFCURVE",
"1372 1583 OFFCURVE",
"1247 1583 CURVE SMOOTH",
"1159 1583 OFFCURVE",
"1056 1537 OFFCURVE",
"979 1454 CURVE",
"924 1529 OFFCURVE",
"813 1583 OFFCURVE",
"674 1583 CURVE SMOOTH",
"395 1583 OFFCURVE",
"268 1416 OFFCURVE",
"268 1073 CURVE",
"74 1073 LINE",
"74 961 LINE",
"268 961 LINE",
"268 117 LINE",
"90 117 LINE",
"90 0 LINE"
);
},
{
closed = 1;
nodes = (
"477 1243 LINE SMOOTH",
"477 1419 OFFCURVE",
"554 1499 OFFCURVE",
"678 1499 CURVE SMOOTH",
"749 1499 OFFCURVE",
"810 1481 OFFCURVE",
"829 1464 CURVE",
"783 1428 OFFCURVE",
"760 1383 OFFCURVE",
"760 1329 CURVE SMOOTH",
"760 1273 OFFCURVE",
"793 1225 OFFCURVE",
"860 1206 CURVE",
"860 1073 LINE",
"477 1073 LINE"
);
}
);
width = 1406;
}
);
note = f_f;
},
{
glyphname = f_f_i;
lastChange = "2016-09-02 12:46:05 +0000";
layers = (
{
layerId = "EE746D13-63D7-48F9-B77E-C723CA6A668B";
paths = (
{
closed = 1;
nodes = (
"629 0 LINE",
"629 117 LINE",
"483 117 LINE",
"483 961 LINE",
"903 961 LINE",
"903 117 LINE",
"723 117 LINE",
"723 0 LINE",
"1286 0 LINE",
"1286 117 LINE",
"1118 117 LINE",
"1118 961 LINE",
"1528 961 LINE",
"1528 117 LINE",
"1372 117 LINE",
"1372 0 LINE",
"1919 0 LINE",
"1919 117 LINE",
"1743 117 LINE",
"1743 1073 LINE",
"1112 1073 LINE",
"1112 1243 LINE SMOOTH",
"1112 1331 OFFCURVE",
"1153 1402 OFFCURVE",
"1211 1441 CURVE SMOOTH",
"1269 1480 OFFCURVE",
"1332 1499 OFFCURVE",
"1395 1499 CURVE SMOOTH",
"1471 1499 OFFCURVE",
"1580 1463 OFFCURVE",
"1581 1415 CURVE",
"1520 1415 OFFCURVE",
"1452 1365 OFFCURVE",
"1452 1294 CURVE SMOOTH",
"1452 1217 OFFCURVE",
"1515 1159 OFFCURVE",
"1587 1159 CURVE SMOOTH",
"1672 1159 OFFCURVE",
"1737 1222 OFFCURVE",
"1737 1327 CURVE SMOOTH",
"1737 1388 OFFCURVE",
"1708 1448 OFFCURVE",
"1650 1499 CURVE SMOOTH",
"1592 1550 OFFCURVE",
"1489 1583 OFFCURVE",
"1364 1583 CURVE SMOOTH",
"1216 1583 OFFCURVE",
"1102 1540 OFFCURVE",
"1022 1454 CURVE",
"967 1529 OFFCURVE",
"854 1583 OFFCURVE",
"715 1583 CURVE SMOOTH",
"430 1583 OFFCURVE",
"268 1408 OFFCURVE",
"268 1073 CURVE",
"74 1073 LINE",
"74 961 LINE",
"268 961 LINE",
"268 117 LINE",
"84 117 LINE",
"84 0 LINE"
);
},
{
closed = 1;
nodes = (
"477 1243 LINE SMOOTH",
"477 1331 OFFCURVE",
"507 1401 OFFCURVE",
"555 1441 CURVE SMOOTH",
"602 1480 OFFCURVE",
"658 1499 OFFCURVE",
"719 1499 CURVE SMOOTH",
"790 1499 OFFCURVE",
"853 1480 OFFCURVE",
"872 1464 CURVE",
"826 1428 OFFCURVE",
"803 1383 OFFCURVE",
"803 1329 CURVE SMOOTH",
"803 1273 OFFCURVE",
"836 1225 OFFCURVE",
"903 1206 CURVE",
"903 1073 LINE",
"477 1073 LINE"
);
}
);
width = 1933;
}
);
note = f_f_i;
},
{
glyphname = f_f_l;
lastChange = "2016-09-02 12:46:05 +0000";
layers = (
{
layerId = "EE746D13-63D7-48F9-B77E-C723CA6A668B";
paths = (
{
closed = 1;
nodes = (
"629 0 LINE",
"629 117 LINE",
"483 117 LINE",
"483 961 LINE",
"868 961 LINE",
"868 117 LINE",
"737 117 LINE",
"737 0 LINE",
"1278 0 LINE",
"1278 117 LINE",
"1083 117 LINE",
"1083 961 LINE",
"1409 961 LINE",
"1409 1073 LINE",
"1077 1073 LINE",
"1077 1243 LINE SMOOTH",
"1077 1412 OFFCURVE",
"1184 1489 OFFCURVE",
"1317 1489 CURVE SMOOTH",
"1350 1489 OFFCURVE",
"1381 1487 OFFCURVE",
"1412 1483 CURVE SMOOTH",
"1472 1474 OFFCURVE",
"1539 1446 OFFCURVE",
"1550 1403 CURVE",
"1550 117 LINE",
"1376 117 LINE",
"1376 0 LINE",
"1958 0 LINE",
"1958 117 LINE",
"1765 117 LINE",
"1765 1405 LINE SMOOTH",
"1765 1438 OFFCURVE",
"1741 1468 OFFCURVE",
"1693 1496 CURVE SMOOTH",
"1597 1551 OFFCURVE",
"1441 1583 OFFCURVE",
"1286 1583 CURVE SMOOTH",
"1153 1583 OFFCURVE",
"1051 1544 OFFCURVE",
"981 1466 CURVE",
"905 1544 OFFCURVE",
"798 1583 OFFCURVE",
"659 1583 CURVE SMOOTH",
"383 1583 OFFCURVE",
"268 1420 OFFCURVE",
"268 1073 CURVE",
"74 1073 LINE",
"74 961 LINE",
"268 961 LINE",
"268 117 LINE",
"74 117 LINE",
"74 0 LINE"
);
},
{
closed = 1;
nodes = (
"477 1243 LINE SMOOTH",
"477 1418 OFFCURVE",
"563 1499 OFFCURVE",
"690 1499 CURVE SMOOTH",
"759 1499 OFFCURVE",
"837 1472 OFFCURVE",
"864 1425 CURVE",
"799 1420 OFFCURVE",
"760 1368 OFFCURVE",
"760 1309 CURVE SMOOTH",
"760 1249 OFFCURVE",
"800 1195 OFFCURVE",
"872 1182 CURVE",
"869 1151 OFFCURVE",
"868 1120 OFFCURVE",
"868 1087 CURVE SMOOTH",
"868 1073 LINE",
"477 1073 LINE"
);
}
);
width = 1998;
}
);
note = f_f_l;
},
{
glyphname = f_j;
lastChange = "2016-09-02 12:46:05 +0000";
layers = (
{
layerId = "EE746D13-63D7-48F9-B77E-C723CA6A668B";
paths = (
{
closed = 1;
nodes = (
"774 -471 LINE SMOOTH",
"979 -468 OFFCURVE",
"1118 -333 OFFCURVE",
"1118 -90 CURVE SMOOTH",
"1118 1073 LINE",
"455 1073 LINE",
"455 1182 LINE SMOOTH",
"455 1228 OFFCURVE",
"462 1270 OFFCURVE",
"476 1307 CURVE SMOOTH",
"504 1382 OFFCURVE",
"548 1424 OFFCURVE",
"604 1456 CURVE SMOOTH",
"659 1488 OFFCURVE",
"711 1499 OFFCURVE",
"762 1499 CURVE SMOOTH",
"837 1499 OFFCURVE",
"937 1463 OFFCURVE",
"938 1415 CURVE",
"877 1415 OFFCURVE",
"809 1365 OFFCURVE",
"809 1294 CURVE SMOOTH",
"809 1217 OFFCURVE",
"872 1159 OFFCURVE",
"944 1159 CURVE SMOOTH",
"1029 1159 OFFCURVE",
"1094 1226 OFFCURVE",
"1094 1331 CURVE SMOOTH",
"1094 1383 OFFCURVE",
"1059 1444 OFFCURVE",
"1000 1495 CURVE SMOOTH",
"941 1546 OFFCURVE",
"840 1583 OFFCURVE",
"731 1583 CURVE SMOOTH",
"439 1583 OFFCURVE",
"246 1402 OFFCURVE",
"246 1073 CURVE",
"51 1073 LINE",
"51 961 LINE",
"246 961 LINE",
"246 117 LINE",
"51 117 LINE",
"51 0 LINE",
"696 0 LINE",
"696 117 LINE",
"461 117 LINE",
"461 961 LINE",
"903 961 LINE",
"903 -121 LINE SMOOTH",
"903 -218 OFFCURVE",
"882 -287 OFFCURVE",
"847 -319 CURVE SMOOTH",
"811 -351 OFFCURVE",
"779 -362 OFFCURVE",
"739 -362 CURVE SMOOTH",
"713 -362 OFFCURVE",
"689 -358 OFFCURVE",
"668 -350 CURVE",
"706 -334 OFFCURVE",
"725 -292 OFFCURVE",
"725 -223 CURVE SMOOTH",
"725 -154 OFFCURVE",
"672 -113 OFFCURVE",
"608 -113 CURVE SMOOTH",
"531 -113 OFFCURVE",
"463 -166 OFFCURVE",
"463 -254 CURVE SMOOTH",
"463 -390 OFFCURVE",
"569 -471 OFFCURVE",
"766 -471 CURVE SMOOTH"
);
}
);
width = 1282;
}
);
note = f_j;
},
{
glyphname = fi;
lastChange = "2016-09-02 12:46:05 +0000";
layers = (
{
layerId = "EE746D13-63D7-48F9-B77E-C723CA6A668B";
paths = (
{
closed = 1;
nodes = (
"651 0 LINE",
"651 117 LINE",
"483 117 LINE",
"483 961 LINE",
"905 961 LINE",
"905 117 LINE",
"750 117 LINE",
"750 0 LINE",
"1296 0 LINE",
"1296 117 LINE",
"1120 117 LINE",
"1120 1073 LINE",
"477 1073 LINE",
"477 1243 LINE SMOOTH",
"477 1278 OFFCURVE",
"484 1311 OFFCURVE",
"497 1340 CURVE SMOOTH",
"523 1399 OFFCURVE",
"565 1435 OFFCURVE",
"618 1462 CURVE SMOOTH",
"670 1489 OFFCURVE",
"723 1499 OFFCURVE",
"772 1499 CURVE SMOOTH",
"848 1499 OFFCURVE",
"957 1463 OFFCURVE",
"958 1415 CURVE",
"897 1415 OFFCURVE",
"829 1365 OFFCURVE",
"829 1294 CURVE SMOOTH",
"829 1217 OFFCURVE",
"893 1159 OFFCURVE",
"965 1159 CURVE SMOOTH",
"1050 1159 OFFCURVE",
"1114 1222 OFFCURVE",
"1114 1327 CURVE SMOOTH",
"1114 1388 OFFCURVE",
"1085 1448 OFFCURVE",
"1027 1499 CURVE SMOOTH",
"969 1550 OFFCURVE",
"866 1583 OFFCURVE",
"741 1583 CURVE SMOOTH",
"430 1583 OFFCURVE",
"268 1412 OFFCURVE",
"268 1073 CURVE",
"74 1073 LINE",
"74 961 LINE",
"268 961 LINE",
"268 117 LINE",
"74 117 LINE",
"74 0 LINE"
);
}
);
width = 1310;
}
);
note = fi;
unicode = FB01;
},
{
glyphname = fl;
lastChange = "2016-09-02 12:46:05 +0000";
layers = (
{
layerId = "EE746D13-63D7-48F9-B77E-C723CA6A668B";
paths = (
{
closed = 1;
nodes = (
"649 0 LINE",
"649 117 LINE",
"483 117 LINE",
"483 961 LINE",
"809 961 LINE",
"809 1073 LINE",
"477 1073 LINE",
"477 1243 LINE SMOOTH",
"477 1412 OFFCURVE",
"584 1489 OFFCURVE",
"717 1489 CURVE SMOOTH",
"750 1489 OFFCURVE",
"781 1487 OFFCURVE",
"812 1483 CURVE SMOOTH",
"872 1474 OFFCURVE",
"939 1446 OFFCURVE",
"950 1403 CURVE",
"950 117 LINE",
"776 117 LINE",
"776 0 LINE",
"1380 0 LINE",
"1380 117 LINE",
"1165 117 LINE",
"1165 1405 LINE SMOOTH",
"1165 1438 OFFCURVE",
"1141 1468 OFFCURVE",
"1093 1496 CURVE SMOOTH",
"997 1551 OFFCURVE",
"841 1583 OFFCURVE",
"686 1583 CURVE SMOOTH",
"407 1583 OFFCURVE",
"268 1413 OFFCURVE",
"268 1073 CURVE",
"74 1073 LINE",
"74 961 LINE",
"268 961 LINE",
"268 117 LINE",
"74 117 LINE",
"74 0 LINE"
);
}
);
width = 1421;
}
);
note = fl;
unicode = FB02;
},
{
glyphname = s_h;
lastChange = "2016-09-02 12:46:05 +0000";
layers = (
{
layerId = "EE746D13-63D7-48F9-B77E-C723CA6A668B";
paths = (
{
closed = 1;
nodes = (
"631 -27 OFFCURVE",
"732 -4 OFFCURVE",
"821 45 CURVE SMOOTH",
"909 94 OFFCURVE",
"965 187 OFFCURVE",
"965 307 CURVE SMOOTH",
"965 415 OFFCURVE",
"909 501 OFFCURVE",
"828 550 CURVE SMOOTH",
"747 598 OFFCURVE",
"644 635 OFFCURVE",
"547 663 CURVE SMOOTH",
"498 676 OFFCURVE",
"454 690 OFFCURVE",
"413 705 CURVE SMOOTH",
"332 734 OFFCURVE",
"276 777 OFFCURVE",
"276 836 CURVE SMOOTH",
"276 944 OFFCURVE",
"381 995 OFFCURVE",
"522 995 CURVE SMOOTH",
"619 995 OFFCURVE",
"724 968 OFFCURVE",
"780 928 CURVE",
"712 921 OFFCURVE",
"674 880 OFFCURVE",
"674 811 CURVE SMOOTH",
"674 735 OFFCURVE",
"736 694 OFFCURVE",
"815 694 CURVE SMOOTH",
"884 694 OFFCURVE",
"944 757 OFFCURVE",
"944 844 CURVE SMOOTH",
"944 871 OFFCURVE",
"922 937 OFFCURVE",
"878 1040 CURVE SMOOTH",
"833 1143 OFFCURVE",
"811 1211 OFFCURVE",
"811 1243 CURVE SMOOTH",
"811 1266 OFFCURVE",
"814 1286 OFFCURVE",
"819 1302 CURVE SMOOTH",
"830 1334 OFFCURVE",
"863 1367 OFFCURVE",
"923 1384 CURVE SMOOTH",
"982 1401 OFFCURVE",
"1082 1413 OFFCURVE",
"1223 1413 CURVE",
"1223 117 LINE",
"1038 117 LINE",
"1038 0 LINE",
"1632 0 LINE",
"1632 117 LINE",
"1438 117 LINE",
"1438 598 LINE SMOOTH",
"1438 793 OFFCURVE",
"1601 961 OFFCURVE",
"1745 961 CURVE SMOOTH",
"1840 961 OFFCURVE",
"1905 887 OFFCURVE",
"1905 731 CURVE SMOOTH",
"1905 117 LINE",
"1710 117 LINE",
"1710 0 LINE",
"2335 0 LINE",
"2335 117 LINE",
"2120 117 LINE",
"2120 723 LINE SMOOTH",
"2120 788 OFFCURVE",
"2112 845 OFFCURVE",
"2096 894 CURVE SMOOTH",
"2063 991 OFFCURVE",
"2019 1036 OFFCURVE",
"1954 1067 CURVE SMOOTH",
"1889 1098 OFFCURVE",
"1844 1102 OFFCURVE",
"1788 1102 CURVE SMOOTH",
"1745 1102 OFFCURVE",
"1703 1096 OFFCURVE",
"1662 1083 CURVE SMOOTH",
"1579 1057 OFFCURVE",
"1489 987 OFFCURVE",
"1438 883 CURVE",
"1438 1536 LINE",
"1245 1536 LINE SMOOTH",
"1022 1536 OFFCURVE",
"877 1514 OFFCURVE",
"794 1466 CURVE SMOOTH",
"711 1418 OFFCURVE",
"683 1357 OFFCURVE",
"683 1264 CURVE SMOOTH",
"683 1215 OFFCURVE",
"710 1157 OFFCURVE",
"747 1092 CURVE SMOOTH",
"766 1059 OFFCURVE",
"777 1038 OFFCURVE",
"782 1028 CURVE",
"711 1071 OFFCURVE",
"594 1098 OFFCURVE",
"510 1098 CURVE SMOOTH",
"474 1098 OFFCURVE",
"438 1096 OFFCURVE",
"403 1091 CURVE SMOOTH",
"332 1081 OFFCURVE",
"249 1053 OFFCURVE",
"191 1012 CURVE SMOOTH",
"133 971 OFFCURVE",
"90 898 OFFCURVE",
"90 809 CURVE SMOOTH",
"90 718 OFFCURVE",
"133 647 OFFCURVE",
"197 604 CURVE SMOOTH",
"261 561 OFFCURVE",
"347 525 OFFCURVE",
"432 503 CURVE SMOOTH",
"517 481 OFFCURVE",
"603 450 OFFCURVE",
"667 421 CURVE SMOOTH",
"731 392 OFFCURVE",
"774 340 OFFCURVE",
"774 276 CURVE SMOOTH",
"774 151 OFFCURVE",
"646 88 OFFCURVE",
"489 88 CURVE SMOOTH",
"400 88 OFFCURVE",
"302 116 OFFCURVE",
"250 156 CURVE",
"301 156 OFFCURVE",
"348 213 OFFCURVE",
"348 281 CURVE SMOOTH",
"348 361 OFFCURVE",
"290 403 OFFCURVE",
"217 403 CURVE SMOOTH",
"144 403 OFFCURVE",
"76 339 OFFCURVE",
"76 252 CURVE SMOOTH",
"76 213 OFFCURVE",
"85 178 OFFCURVE",
"103 147 CURVE SMOOTH",
"139 83 OFFCURVE",
"198 43 OFFCURVE",
"275 14 CURVE SMOOTH",
"352 -15 OFFCURVE",
"433 -27 OFFCURVE",
"516 -27 CURVE SMOOTH"
);
}
);
width = 2349;
}
);
leftKerningGroup = s;
note = s_h;
rightKerningGroup = h;
},
{
glyphname = t_t;
lastChange = "2016-09-02 12:46:05 +0000";
layers = (
{
layerId = "EE746D13-63D7-48F9-B77E-C723CA6A668B";
paths = (
{
closed = 1;
nodes = (
"555 -27 OFFCURVE",
"597 -20 OFFCURVE",
"632 -6 CURVE SMOOTH",
"703 21 OFFCURVE",
"744 67 OFFCURVE",
"772 139 CURVE SMOOTH",
"799 211 OFFCURVE",
"807 287 OFFCURVE",
"807 391 CURVE SMOOTH",
"807 494 LINE",
"693 494 LINE",
"693 371 LINE SMOOTH",
"693 199 OFFCURVE",
"643 113 OFFCURVE",
"543 113 CURVE SMOOTH",
"448 113 OFFCURVE",
"400 175 OFFCURVE",
"400 299 CURVE SMOOTH",
"400 961 LINE",
"930 961 LINE",
"930 326 LINE SMOOTH",
"930 103 OFFCURVE",
"1065 -27 OFFCURVE",
"1264 -27 CURVE SMOOTH",
"1311 -27 OFFCURVE",
"1352 -20 OFFCURVE",
"1387 -6 CURVE SMOOTH",
"1455 22 OFFCURVE",
"1493 66 OFFCURVE",
"1517 140 CURVE SMOOTH",
"1541 214 OFFCURVE",
"1547 284 OFFCURVE",
"1547 391 CURVE SMOOTH",
"1547 494 LINE",
"1430 494 LINE",
"1430 371 LINE SMOOTH",
"1430 190 OFFCURVE",
"1383 113 OFFCURVE",
"1287 113 CURVE SMOOTH",
"1196 113 OFFCURVE",
"1145 162 OFFCURVE",
"1145 299 CURVE SMOOTH",
"1145 961 LINE",
"1438 961 LINE",
"1438 1073 LINE",
"1145 1073 LINE",
"1145 1591 LINE SMOOTH",
"1145 1614 OFFCURVE",
"1134 1626 OFFCURVE",
"1119 1626 CURVE SMOOTH",
"1104 1626 OFFCURVE",
"1087 1612 OFFCURVE",
"1082 1591 CURVE SMOOTH",
"1077 1572 OFFCURVE",
"1071 1541 OFFCURVE",
"1062 1498 CURVE SMOOTH",
"1045 1413 OFFCURVE",
"1035 1376 OFFCURVE",
"1014 1301 CURVE SMOOTH",
"993 1225 OFFCURVE",
"970 1187 OFFCURVE",
"937 1141 CURVE SMOOTH",
"904 1095 OFFCURVE",
"858 1073 OFFCURVE",
"805 1073 CURVE SMOOTH",
"400 1073 LINE",
"400 1591 LINE SMOOTH",
"400 1612 OFFCURVE",
"388 1626 OFFCURVE",
"373 1626 CURVE SMOOTH",
"358 1626 OFFCURVE",
"341 1612 OFFCURVE",
"336 1591 CURVE SMOOTH",
"324 1540 OFFCURVE",
"306 1451 OFFCURVE",
"297 1403 CURVE SMOOTH",
"288 1354 OFFCURVE",
"267 1279 OFFCURVE",
"248 1235 CURVE SMOOTH",
"228 1191 OFFCURVE",
"194 1135 OFFCURVE",
"154 1100 CURVE SMOOTH",
"113 1064 OFFCURVE",
"53 1029 OFFCURVE",
"-20 1008 CURVE",
"-20 961 LINE",
"185 961 LINE",
"185 305 LINE SMOOTH",
"185 194 OFFCURVE",
"225 105 OFFCURVE",
"286 53 CURVE SMOOTH",
"347 0 OFFCURVE",
"424 -27 OFFCURVE",
"508 -27 CURVE SMOOTH"
);
}
);
width = 1612;
}
);
leftKerningGroup = t;
note = t_t;
},
{
glyphname = ordfeminine;
lastChange = "2016-09-02 12:46:05 +0000";
layers = (
{
layerId = "EE746D13-63D7-48F9-B77E-C723CA6A668B";
paths = (
{
closed = 1;
nodes = (
"515 535 OFFCURVE",
"643 625 OFFCURVE",
"695 750 CURVE",
"707 613 OFFCURVE",
"811 535 OFFCURVE",
"931 535 CURVE SMOOTH",
"935 535 LINE SMOOTH",
"1004 536 OFFCURVE",
"1056 552 OFFCURVE",
"1101 593 CURVE SMOOTH",
"1146 634 OFFCURVE",
"1171 714 OFFCURVE",
"1171 827 CURVE SMOOTH",
"1171 936 LINE",
"1076 936 LINE",
"1076 809 LINE SMOOTH",
"1076 708 OFFCURVE",
"1040 657 OFFCURVE",
"968 657 CURVE SMOOTH",
"943 657 OFFCURVE",
"923 665 OFFCURVE",
"907 682 CURVE SMOOTH",
"874 715 OFFCURVE",
"865 757 OFFCURVE",
"865 801 CURVE SMOOTH",
"865 1194 LINE SMOOTH",
"865 1305 OFFCURVE",
"829 1388 OFFCURVE",
"767 1433 CURVE SMOOTH",
"705 1478 OFFCURVE",
"629 1499 OFFCURVE",
"534 1499 CURVE SMOOTH",
"417 1499 OFFCURVE",
"314 1462 OFFCURVE",
"258 1411 CURVE SMOOTH",
"201 1360 OFFCURVE",
"169 1304 OFFCURVE",
"169 1257 CURVE SMOOTH",
"169 1168 OFFCURVE",
"229 1118 OFFCURVE",
"296 1118 CURVE SMOOTH",
"361 1118 OFFCURVE",
"417 1167 OFFCURVE",
"417 1239 CURVE SMOOTH",
"417 1294 OFFCURVE",
"371 1339 OFFCURVE",
"296 1339 CURVE",
"336 1383 OFFCURVE",
"416 1411 OFFCURVE",
"497 1411 CURVE SMOOTH",
"614 1411 OFFCURVE",
"681 1348 OFFCURVE",
"681 1219 CURVE SMOOTH",
"681 1190 OFFCURVE",
"671 1163 OFFCURVE",
"651 1140 CURVE SMOOTH",
"611 1092 OFFCURVE",
"544 1063 OFFCURVE",
"468 1032 CURVE SMOOTH",
"391 1001 OFFCURVE",
"310 968 OFFCURVE",
"246 928 CURVE SMOOTH",
"182 888 OFFCURVE",
"138 825 OFFCURVE",
"138 748 CURVE SMOOTH",
"138 616 OFFCURVE",
"237 535 OFFCURVE",
"378 535 CURVE SMOOTH"
);
},
{
closed = 1;
nodes = (
"356 659 OFFCURVE",
"323 697 OFFCURVE",
"323 756 CURVE SMOOTH",
"323 824 OFFCURVE",
"375 871 OFFCURVE",
"436 898 CURVE SMOOTH",
"497 925 OFFCURVE",
"608 985 OFFCURVE",
"681 1057 CURVE",
"681 877 LINE SMOOTH",
"681 781 OFFCURVE",
"539 659 OFFCURVE",
"423 659 CURVE SMOOTH"
);
}
);
width = 1312;
}
);
note = ordfeminine;
unicode = 00AA;
},
{
glyphname = ordmasculine;
lastChange = "2016-09-02 12:46:05 +0000";
layers = (
{
layerId = "EE746D13-63D7-48F9-B77E-C723CA6A668B";
paths = (
{
closed = 1;
nodes = (
"682 572 OFFCURVE",
"761 594 OFFCURVE",
"829 637 CURVE SMOOTH",
"964 723 OFFCURVE",
"1033 872 OFFCURVE",
"1033 1053 CURVE SMOOTH",
"1033 1333 OFFCURVE",
"862 1536 OFFCURVE",
"589 1536 CURVE SMOOTH",
"498 1536 OFFCURVE",
"418 1515 OFFCURVE",
"350 1472 CURVE SMOOTH",
"213 1386 OFFCURVE",
"143 1236 OFFCURVE",
"143 1053 CURVE SMOOTH",
"143 774 OFFCURVE",
"316 572 OFFCURVE",
"591 572 CURVE SMOOTH"
);
},
{
closed = 1;
nodes = (
"435 680 OFFCURVE",
"339 823 OFFCURVE",
"339 1043 CURVE SMOOTH",
"339 1119 OFFCURVE",
"348 1186 OFFCURVE",
"365 1243 CURVE SMOOTH",
"399 1358 OFFCURVE",
"477 1434 OFFCURVE",
"589 1434 CURVE SMOOTH",
"646 1434 OFFCURVE",
"693 1416 OFFCURVE",
"731 1381 CURVE SMOOTH",
"807 1310 OFFCURVE",
"837 1196 OFFCURVE",
"837 1043 CURVE SMOOTH",
"837 826 OFFCURVE",
"744 680 OFFCURVE",
"591 680 CURVE SMOOTH"
);
}
);
width = 1177;
}
);
note = ordmasculine;
unicode = 00BA;
},
{
glyphname = uni03BC;
lastChange = "2016-09-02 12:46:05 +0000";
layers = (
{
layerId = "EE746D13-63D7-48F9-B77E-C723CA6A668B";
paths = (
{
closed = 1;
nodes = (
"377 -449 OFFCURVE",
"418 -399 OFFCURVE",
"418 -336 CURVE SMOOTH",
"418 -320 OFFCURVE",
"404 -252 OFFCURVE",
"377 -131 CURVE SMOOTH",
"350 -11 OFFCURVE",
"336 76 OFFCURVE",
"336 131 CURVE",
"355 67 OFFCURVE",
"397 19 OFFCURVE",
"445 -1 CURVE SMOOTH",
"492 -21 OFFCURVE",
"528 -29 OFFCURVE",
"557 -29 CURVE SMOOTH",
"686 -29 OFFCURVE",
"814 41 OFFCURVE",
"907 174 CURVE",
"907 -29 LINE",
"1311 0 LINE",
"1311 92 LINE",
"1116 113 LINE",
"1116 1073 LINE",
"719 1073 LINE",
"719 954 LINE",
"901 954 LINE",
"901 375 LINE SMOOTH",
"901 334 OFFCURVE",
"885 294 OFFCURVE",
"853 253 CURVE SMOOTH",
"788 172 OFFCURVE",
"684 117 OFFCURVE",
"600 117 CURVE SMOOTH",
"481 117 OFFCURVE",
"426 189 OFFCURVE",
"426 362 CURVE SMOOTH",
"426 1073 LINE",
"6 1073 LINE",
"6 954 LINE",
"211 954 LINE",
"211 -301 LINE SMOOTH",
"211 -400 OFFCURVE",
"246 -449 OFFCURVE",
"317 -449 CURVE SMOOTH"
);
}
);
width = 1368;
}
);
note = uni03BC;
unicode = 03BC;
},
{
glyphname = zero;
lastChange = "2016-09-02 12:46:05 +0000";
layers = (
{
layerId = "EE746D13-63D7-48F9-B77E-C723CA6A668B";
paths = (
{
closed = 1;
nodes = (
"712 -27 OFFCURVE",
"843 43 OFFCURVE",
"920 151 CURVE SMOOTH",
"997 258 OFFCURVE",
"1040 395 OFFCURVE",
"1040 539 CURVE SMOOTH",
"1040 682 OFFCURVE",
"997 818 OFFCURVE",
"919 926 CURVE SMOOTH",
"841 1033 OFFCURVE",
"710 1102 OFFCURVE",
"557 1102 CURVE SMOOTH",
"480 1102 OFFCURVE",
"411 1086 OFFCURVE",
"348 1054 CURVE SMOOTH",
"285 1022 OFFCURVE",
"235 979 OFFCURVE",
"196 926 CURVE SMOOTH",
"118 818 OFFCURVE",
"74 682 OFFCURVE",
"74 539 CURVE SMOOTH",
"74 395 OFFCURVE",
"117 258 OFFCURVE",
"194 151 CURVE SMOOTH",
"271 43 OFFCURVE",
"402 -27 OFFCURVE",
"557 -27 CURVE SMOOTH"
);
},
{
closed = 1;
nodes = (
"503 100 OFFCURVE",
"456 122 OFFCURVE",
"415 165 CURVE SMOOTH",
"333 251 OFFCURVE",
"295 387 OFFCURVE",
"295 539 CURVE SMOOTH",
"295 614 OFFCURVE",
"305 685 OFFCURVE",
"325 752 CURVE SMOOTH",
"365 885 OFFCURVE",
"450 983 OFFCURVE",
"557 983 CURVE SMOOTH",
"610 983 OFFCURVE",
"657 961 OFFCURVE",
"698 918 CURVE SMOOTH",
"779 830 OFFCURVE",
"819 690 OFFCURVE",
"819 539 CURVE SMOOTH",
"819 463 OFFCURVE",
"809 392 OFFCURVE",
"790 327 CURVE SMOOTH",
"751 196 OFFCURVE",
"665 100 OFFCURVE",
"557 100 CURVE SMOOTH"
);
}
);
width = 1114;
}
);
note = zero;
unicode = 0030;
},
{
glyphname = one;
lastChange = "2016-09-02 12:46:05 +0000";
layers = (
{
layerId = "EE746D13-63D7-48F9-B77E-C723CA6A668B";
paths = (
{
closed = 1;
nodes = (
"805 0 LINE",
"805 113 LINE",
"575 113 LINE",
"575 1073 LINE",
"453 1073 LINE",
"86 928 LINE",
"147 799 LINE",
"360 897 LINE",
"360 113 LINE",
"117 113 LINE",
"117 0 LINE"
);
}
);
width = 821;
}
);
note = one;
unicode = 0031;
},
{
glyphname = two;
lastChange = "2016-09-02 12:46:05 +0000";
layers = (
{
layerId = "EE746D13-63D7-48F9-B77E-C723CA6A668B";
paths = (
{
closed = 1;
nodes = (
"995 -137 LINE",
"958 164 LINE",
"424 164 LINE",
"694 360 LINE SMOOTH",
"882 497 OFFCURVE",
"963 626 OFFCURVE",
"963 727 CURVE SMOOTH",
"963 967 OFFCURVE",
"809 1106 OFFCURVE",
"561 1106 CURVE SMOOTH",
"301 1106 OFFCURVE",
"86 960 OFFCURVE",
"86 795 CURVE SMOOTH",
"86 703 OFFCURVE",
"141 627 OFFCURVE",
"252 627 CURVE SMOOTH",
"343 627 OFFCURVE",
"406 685 OFFCURVE",
"406 772 CURVE SMOOTH",
"406 837 OFFCURVE",
"360 882 OFFCURVE",
"309 897 CURVE",
"364 960 OFFCURVE",
"435 991 OFFCURVE",
"524 991 CURVE SMOOTH",
"649 991 OFFCURVE",
"756 876 OFFCURVE",
"756 741 CURVE SMOOTH",
"756 702 OFFCURVE",
"744 660 OFFCURVE",
"719 617 CURVE SMOOTH",
"670 529 OFFCURVE",
"600 461 OFFCURVE",
"497 380 CURVE SMOOTH",
"394 299 OFFCURVE",
"320 251 OFFCURVE",
"224 187 CURVE SMOOTH",
"175 155 OFFCURVE",
"142 132 OFFCURVE",
"123 119 CURVE",
"124 119 OFFCURVE",
"131 79 OFFCURVE",
"143 0 CURVE",
"831 0 LINE",
"926 -147 LINE"
);
}
);
width = 1058;
}
);
note = two;
unicode = 0032;
},
{
glyphname = three;
lastChange = "2016-09-02 12:46:03 +0000";
layers = (
{
layerId = "EE746D13-63D7-48F9-B77E-C723CA6A668B";
paths = (
{
closed = 1;
nodes = (
"798 -305 OFFCURVE",
"1026 -120 OFFCURVE",
"1026 133 CURVE SMOOTH",
"1026 321 OFFCURVE",
"914 448 OFFCURVE",
"670 473 CURVE",
"842 517 OFFCURVE",
"926 619 OFFCURVE",
"926 760 CURVE SMOOTH",
"926 847 OFFCURVE",
"895 926 OFFCURVE",
"832 994 CURVE SMOOTH",
"768 1061 OFFCURVE",
"655 1104 OFFCURVE",
"514 1104 CURVE SMOOTH",
"246 1104 OFFCURVE",
"63 976 OFFCURVE",
"63 760 CURVE SMOOTH",
"63 680 OFFCURVE",
"134 598 OFFCURVE",
"238 598 CURVE SMOOTH",
"323 598 OFFCURVE",
"383 658 OFFCURVE",
"383 745 CURVE SMOOTH",
"383 793 OFFCURVE",
"360 831 OFFCURVE",
"328 849 CURVE SMOOTH",
"296 867 OFFCURVE",
"264 874 OFFCURVE",
"233 874 CURVE",
"309 959 OFFCURVE",
"366 983 OFFCURVE",
"475 983 CURVE SMOOTH",
"638 983 OFFCURVE",
"735 894 OFFCURVE",
"735 754 CURVE SMOOTH",
"735 617 OFFCURVE",
"626 533 OFFCURVE",
"408 500 CURVE",
"432 373 LINE",
"481 381 OFFCURVE",
"520 385 OFFCURVE",
"549 385 CURVE SMOOTH",
"720 385 OFFCURVE",
"805 299 OFFCURVE",
"805 127 CURVE SMOOTH",
"805 43 OFFCURVE",
"771 -36 OFFCURVE",
"711 -99 CURVE SMOOTH",
"650 -162 OFFCURVE",
"547 -203 OFFCURVE",
"424 -203 CURVE SMOOTH",
"408 -203 OFFCURVE",
"381 -200 OFFCURVE",
"342 -195 CURVE",
"343 -190 OFFCURVE",
"347 -182 OFFCURVE",
"352 -170 CURVE SMOOTH",
"362 -147 OFFCURVE",
"369 -122 OFFCURVE",
"369 -98 CURVE SMOOTH",
"369 -26 OFFCURVE",
"314 41 OFFCURVE",
"231 41 CURVE SMOOTH",
"136 41 OFFCURVE",
"90 -17 OFFCURVE",
"90 -102 CURVE SMOOTH",
"90 -146 OFFCURVE",
"107 -184 OFFCURVE",
"141 -215 CURVE SMOOTH",
"208 -278 OFFCURVE",
"317 -305 OFFCURVE",
"446 -305 CURVE SMOOTH"
);
}
);
width = 1105;
}
);
note = three;
unicode = 0033;
},
{
glyphname = four;
lastChange = "2016-09-02 12:46:05 +0000";
layers = (
{
layerId = "EE746D13-63D7-48F9-B77E-C723CA6A668B";
paths = (
{
closed = 1;
nodes = (
"1081 -387 LINE",
"1081 -250 LINE",
"858 -250 LINE",
"858 0 LINE",
"1106 0 LINE",
"1124 150 LINE",
"858 150 LINE",
"858 1057 LINE",
"606 1087 LINE",
"84 135 LINE",
"109 0 LINE",
"643 0 LINE",
"643 -250 LINE",
"403 -250 LINE",
"403 -387 LINE"
);
},
{
closed = 1;
nodes = (
"643 924 LINE",
"643 150 LINE",
"268 150 LINE"
);
}
);
width = 1099;
}
);
note = four;
unicode = 0034;
},
{
glyphname = five;
lastChange = "2016-09-02 12:46:05 +0000";
layers = (
{
layerId = "EE746D13-63D7-48F9-B77E-C723CA6A668B";
paths = (
{
closed = 1;
nodes = (
"623 -303 OFFCURVE",
"775 -249 OFFCURVE",
"867 -161 CURVE SMOOTH",
"959 -73 OFFCURVE",
"1010 42 OFFCURVE",
"1010 169 CURVE SMOOTH",
"1010 300 OFFCURVE",
"971 404 OFFCURVE",
"887 485 CURVE SMOOTH",
"803 566 OFFCURVE",
"656 612 OFFCURVE",
"459 612 CURVE SMOOTH",
"406 612 OFFCURVE",
"356 609 OFFCURVE",
"309 604 CURVE",
"356 903 LINE",
"854 903 LINE",
"913 1073 LINE",
"233 1073 LINE",
"158 555 LINE",
"217 483 LINE",
"270 490 OFFCURVE",
"313 494 OFFCURVE",
"346 494 CURVE SMOOTH",
"466 494 OFFCURVE",
"568 469 OFFCURVE",
"652 416 CURVE SMOOTH",
"736 363 OFFCURVE",
"787 269 OFFCURVE",
"787 148 CURVE SMOOTH",
"787 57 OFFCURVE",
"757 -25 OFFCURVE",
"698 -89 CURVE SMOOTH",
"639 -154 OFFCURVE",
"541 -195 OFFCURVE",
"420 -195 CURVE SMOOTH",
"409 -195 OFFCURVE",
"381 -192 OFFCURVE",
"338 -186 CURVE",
"338 -185 OFFCURVE",
"343 -174 OFFCURVE",
"352 -153 CURVE SMOOTH",
"361 -132 OFFCURVE",
"365 -113 OFFCURVE",
"365 -96 CURVE SMOOTH",
"365 -24 OFFCURVE",
"310 43 OFFCURVE",
"227 43 CURVE SMOOTH",
"132 43 OFFCURVE",
"86 -15 OFFCURVE",
"86 -100 CURVE SMOOTH",
"86 -144 OFFCURVE",
"103 -182 OFFCURVE",
"137 -213 CURVE SMOOTH",
"204 -276 OFFCURVE",
"313 -303 OFFCURVE",
"442 -303 CURVE SMOOTH"
);
}
);
width = 1085;
}
);
note = five;
unicode = 0035;
},
{
glyphname = six;
lastChange = "2016-09-02 12:46:05 +0000";
layers = (
{
layerId = "EE746D13-63D7-48F9-B77E-C723CA6A668B";
paths = (
{
closed = 1;
nodes = (
"921 -27 OFFCURVE",
"1126 159 OFFCURVE",
"1126 410 CURVE SMOOTH",
"1126 502 OFFCURVE",
"1106 582 OFFCURVE",
"1067 649 CURVE SMOOTH",
"988 783 OFFCURVE",
"858 844 OFFCURVE",
"705 844 CURVE SMOOTH",
"585 844 OFFCURVE",
"439 793 OFFCURVE",
"352 700 CURVE",
"364 1021 OFFCURVE",
"541 1257 OFFCURVE",
"784 1280 CURVE",
"784 1277 OFFCURVE",
"783 1271 OFFCURVE",
"781 1262 CURVE SMOOTH",
"777 1242 OFFCURVE",
"774 1220 OFFCURVE",
"774 1196 CURVE SMOOTH",
"774 1133 OFFCURVE",
"838 1075 OFFCURVE",
"905 1075 CURVE SMOOTH",
"988 1075 OFFCURVE",
"1040 1128 OFFCURVE",
"1040 1217 CURVE SMOOTH",
"1040 1316 OFFCURVE",
"924 1384 OFFCURVE",
"772 1384 CURVE SMOOTH",
"729 1384 OFFCURVE",
"687 1380 OFFCURVE",
"645 1371 CURVE SMOOTH",
"561 1353 OFFCURVE",
"476 1312 OFFCURVE",
"402 1254 CURVE SMOOTH",
"328 1196 OFFCURVE",
"262 1108 OFFCURVE",
"215 1004 CURVE SMOOTH",
"168 900 OFFCURVE",
"141 761 OFFCURVE",
"141 606 CURVE SMOOTH",
"141 191 OFFCURVE",
"338 -27 OFFCURVE",
"645 -27 CURVE SMOOTH"
);
},
{
closed = 1;
nodes = (
"586 98 OFFCURVE",
"530 117 OFFCURVE",
"484 156 CURVE SMOOTH",
"391 232 OFFCURVE",
"352 357 OFFCURVE",
"352 510 CURVE SMOOTH",
"352 547 OFFCURVE",
"370 582 OFFCURVE",
"406 615 CURVE SMOOTH",
"478 679 OFFCURVE",
"580 713 OFFCURVE",
"657 713 CURVE SMOOTH",
"832 713 OFFCURVE",
"926 592 OFFCURVE",
"926 416 CURVE SMOOTH",
"926 231 OFFCURVE",
"813 98 OFFCURVE",
"653 98 CURVE SMOOTH"
);
}
);
width = 1241;
}
);
note = six;
unicode = 0036;
},
{
glyphname = seven;
lastChange = "2016-09-02 12:46:05 +0000";
layers = (
{
layerId = "EE746D13-63D7-48F9-B77E-C723CA6A668B";
paths = (
{
closed = 1;
nodes = (
"401 -451 OFFCURVE",
"450 -420 OFFCURVE",
"475 -360 CURVE SMOOTH",
"975 922 LINE",
"920 1073 LINE",
"98 1073 LINE",
"98 688 LINE",
"283 688 LINE",
"283 932 LINE",
"813 932 LINE",
"258 -254 LINE SMOOTH",
"246 -280 OFFCURVE",
"240 -307 OFFCURVE",
"240 -334 CURVE SMOOTH",
"240 -405 OFFCURVE",
"291 -451 OFFCURVE",
"352 -451 CURVE SMOOTH"
);
}
);
width = 1042;
}
);
note = seven;
unicode = 0037;
},
{
glyphname = eight;
lastChange = "2016-09-02 12:46:05 +0000";
layers = (
{
layerId = "EE746D13-63D7-48F9-B77E-C723CA6A668B";
paths = (
{
closed = 1;
nodes = (
"945 -27 OFFCURVE",
"1141 121 OFFCURVE",
"1141 350 CURVE SMOOTH",
"1141 391 OFFCURVE",
"1134 430 OFFCURVE",
"1121 467 CURVE SMOOTH",
"1094 541 OFFCURVE",
"1055 594 OFFCURVE",
"990 651 CURVE SMOOTH",
"925 707 OFFCURVE",
"870 743 OFFCURVE",
"789 790 CURVE",
"861 822 OFFCURVE",
"920 861 OFFCURVE",
"980 918 CURVE SMOOTH",
"1040 975 OFFCURVE",
"1077 1055 OFFCURVE",
"1077 1143 CURVE SMOOTH",
"1077 1348 OFFCURVE",
"890 1509 OFFCURVE",
"623 1509 CURVE SMOOTH",
"339 1509 OFFCURVE",
"164 1375 OFFCURVE",
"164 1163 CURVE SMOOTH",
"164 1070 OFFCURVE",
"195 988 OFFCURVE",
"255 922 CURVE SMOOTH",
"314 856 OFFCURVE",
"374 810 OFFCURVE",
"463 757 CURVE",
"437 747 OFFCURVE",
"411 736 OFFCURVE",
"385 723 CURVE SMOOTH",
"332 698 OFFCURVE",
"249 643 OFFCURVE",
"194 584 CURVE SMOOTH",
"139 524 OFFCURVE",
"94 431 OFFCURVE",
"94 332 CURVE SMOOTH",
"94 115 OFFCURVE",
"309 -27 OFFCURVE",
"618 -27 CURVE SMOOTH"
);
},
{
closed = 1;
nodes = (
"427 106 OFFCURVE",
"313 193 OFFCURVE",
"313 362 CURVE SMOOTH",
"313 438 OFFCURVE",
"352 512 OFFCURVE",
"413 568 CURVE SMOOTH",
"473 624 OFFCURVE",
"524 658 OFFCURVE",
"584 690 CURVE",
"587 689 OFFCURVE",
"591 687 OFFCURVE",
"596 684 CURVE",
"700 628 OFFCURVE",
"756 595 OFFCURVE",
"827 540 CURVE SMOOTH",
"898 484 OFFCURVE",
"932 422 OFFCURVE",
"932 350 CURVE SMOOTH",
"932 183 OFFCURVE",
"804 106 OFFCURVE",
"612 106 CURVE SMOOTH"
);
},
{
closed = 1;
nodes = (
"637 873 OFFCURVE",
"613 887 OFFCURVE",
"598 896 CURVE SMOOTH",
"566 914 OFFCURVE",
"499 952 OFFCURVE",
"471 973 CURVE SMOOTH",
"443 994 OFFCURVE",
"398 1029 OFFCURVE",
"381 1056 CURVE SMOOTH",
"364 1083 OFFCURVE",
"348 1118 OFFCURVE",
"348 1151 CURVE SMOOTH",
"348 1295 OFFCURVE",
"465 1383 OFFCURVE",
"622 1383 CURVE SMOOTH",
"786 1383 OFFCURVE",
"893 1276 OFFCURVE",
"893 1153 CURVE SMOOTH",
"893 1076 OFFCURVE",
"862 1007 OFFCURVE",
"814 959 CURVE SMOOTH",
"766 910 OFFCURVE",
"722 881 OFFCURVE",
"670 856 CURVE"
);
}
);
width = 1234;
}
);
note = eight;
unicode = 0038;
},
{
glyphname = nine;
lastChange = "2016-09-02 12:46:03 +0000";
layers = (
{
layerId = "EE746D13-63D7-48F9-B77E-C723CA6A668B";
paths = (
{
closed = 1;
nodes = (
"536 -283 OFFCURVE",
"595 -275 OFFCURVE",
"653 -258 CURVE SMOOTH",
"768 -226 OFFCURVE",
"885 -148 OFFCURVE",
"968 -35 CURVE SMOOTH",
"1051 77 OFFCURVE",
"1106 256 OFFCURVE",
"1106 471 CURVE SMOOTH",
"1106 886 OFFCURVE",
"909 1104 OFFCURVE",
"602 1104 CURVE SMOOTH",
"513 1104 OFFCURVE",
"432 1085 OFFCURVE",
"359 1048 CURVE SMOOTH",
"211 973 OFFCURVE",
"121 834 OFFCURVE",
"121 674 CURVE SMOOTH",
"121 613 OFFCURVE",
"130 557 OFFCURVE",
"149 508 CURVE SMOOTH",
"186 409 OFFCURVE",
"248 350 OFFCURVE",
"332 307 CURVE SMOOTH",
"415 264 OFFCURVE",
"502 248 OFFCURVE",
"598 248 CURVE SMOOTH",
"717 248 OFFCURVE",
"846 288 OFFCURVE",
"915 365 CURVE",
"898 237 OFFCURVE",
"847 112 OFFCURVE",
"773 8 CURVE SMOOTH",
"699 -96 OFFCURVE",
"586 -170 OFFCURVE",
"463 -178 CURVE",
"463 -175 OFFCURVE",
"464 -169 OFFCURVE",
"466 -159 CURVE SMOOTH",
"470 -140 OFFCURVE",
"473 -118 OFFCURVE",
"473 -94 CURVE SMOOTH",
"473 -31 OFFCURVE",
"409 27 OFFCURVE",
"342 27 CURVE SMOOTH",
"259 27 OFFCURVE",
"207 -26 OFFCURVE",
"207 -115 CURVE SMOOTH",
"207 -214 OFFCURVE",
"323 -283 OFFCURVE",
"475 -283 CURVE SMOOTH"
);
},
{
closed = 1;
nodes = (
"430 379 OFFCURVE",
"324 482 OFFCURVE",
"324 682 CURVE SMOOTH",
"324 854 OFFCURVE",
"447 979 OFFCURVE",
"602 979 CURVE SMOOTH",
"649 979 OFFCURVE",
"692 970 OFFCURVE",
"729 951 CURVE SMOOTH",
"804 914 OFFCURVE",
"844 856 OFFCURVE",
"872 780 CURVE SMOOTH",
"900 703 OFFCURVE",
"909 635 OFFCURVE",
"909 563 CURVE SMOOTH",
"909 525 OFFCURVE",
"893 492 OFFCURVE",
"860 463 CURVE SMOOTH",
"795 405 OFFCURVE",
"705 379 OFFCURVE",
"625 379 CURVE SMOOTH"
);
}
);
width = 1239;
}
);
note = nine;
unicode = 0039;
},
{
glyphname = onesuperior;
lastChange = "2016-09-02 12:46:05 +0000";
layers = (
{
layerId = "EE746D13-63D7-48F9-B77E-C723CA6A668B";
paths = (
{
closed = 1;
nodes = (
"547 725 LINE",
"547 811 LINE",
"422 811 LINE",
"422 1536 LINE",
"143 1458 LINE",
"143 1351 LINE",
"276 1386 LINE",
"276 811 LINE",
"143 811 LINE",
"143 725 LINE"
);
}
);
width = 680;
}
);
note = onesuperior;
unicode = 00B9;
},
{
glyphname = twosuperior;
lastChange = "2016-09-02 12:46:05 +0000";
layers = (
{
layerId = "EE746D13-63D7-48F9-B77E-C723CA6A668B";
paths = (
{
closed = 1;
nodes = (
"800 603 LINE",
"773 828 LINE",
"378 828 LINE",
"579 975 LINE SMOOTH",
"716 1075 OFFCURVE",
"777 1174 OFFCURVE",
"777 1250 CURVE SMOOTH",
"777 1430 OFFCURVE",
"662 1536 OFFCURVE",
"478 1536 CURVE SMOOTH",
"286 1536 OFFCURVE",
"126 1425 OFFCURVE",
"126 1301 CURVE SMOOTH",
"126 1297 LINE",
"129 1232 OFFCURVE",
"169 1176 OFFCURVE",
"249 1176 CURVE SMOOTH",
"317 1176 OFFCURVE",
"364 1219 OFFCURVE",
"364 1287 CURVE SMOOTH",
"364 1335 OFFCURVE",
"329 1367 OFFCURVE",
"292 1379 CURVE",
"333 1426 OFFCURVE",
"387 1450 OFFCURVE",
"452 1450 CURVE SMOOTH",
"544 1450 OFFCURVE",
"624 1362 OFFCURVE",
"624 1262 CURVE SMOOTH",
"624 1191 OFFCURVE",
"574 1112 OFFCURVE",
"491 1040 CURVE SMOOTH",
"407 967 OFFCURVE",
"341 920 OFFCURVE",
"247 858 CURVE SMOOTH",
"200 827 OFFCURVE",
"169 806 OFFCURVE",
"155 795 CURVE",
"156 795 OFFCURVE",
"161 765 OFFCURVE",
"169 705 CURVE",
"679 705 LINE",
"749 594 LINE"
);
}
);
width = 924;
}
);
note = twosuperior;
unicode = 00B2;
},
{
glyphname = threesuperior;
lastChange = "2016-09-02 12:46:03 +0000";
layers = (
{
layerId = "EE746D13-63D7-48F9-B77E-C723CA6A668B";
paths = (
{
closed = 1;
nodes = (
"558 682 OFFCURVE",
"704 796 OFFCURVE",
"704 948 CURVE SMOOTH",
"704 1069 OFFCURVE",
"616 1159 OFFCURVE",
"452 1159 CURVE",
"568 1182 OFFCURVE",
"638 1255 OFFCURVE",
"638 1342 CURVE SMOOTH",
"638 1447 OFFCURVE",
"549 1536 OFFCURVE",
"384 1536 CURVE SMOOTH",
"235 1536 OFFCURVE",
"112 1437 OFFCURVE",
"112 1337 CURVE SMOOTH",
"112 1281 OFFCURVE",
"146 1233 OFFCURVE",
"210 1233 CURVE SMOOTH",
"263 1233 OFFCURVE",
"306 1272 OFFCURVE",
"306 1323 CURVE SMOOTH",
"306 1376 OFFCURVE",
"269 1401 OFFCURVE",
"225 1409 CURVE",
"269 1449 OFFCURVE",
"317 1469 OFFCURVE",
"370 1469 CURVE SMOOTH",
"454 1469 OFFCURVE",
"519 1414 OFFCURVE",
"519 1333 CURVE SMOOTH",
"519 1248 OFFCURVE",
"452 1190 OFFCURVE",
"321 1170 CURVE",
"335 1094 LINE",
"358 1098 OFFCURVE",
"379 1100 OFFCURVE",
"397 1100 CURVE SMOOTH",
"423 1100 OFFCURVE",
"446 1097 OFFCURVE",
"465 1091 CURVE SMOOTH",
"504 1078 OFFCURVE",
"525 1059 OFFCURVE",
"539 1031 CURVE SMOOTH",
"553 1003 OFFCURVE",
"556 977 OFFCURVE",
"556 944 CURVE SMOOTH",
"556 840 OFFCURVE",
"470 756 OFFCURVE",
"345 756 CURVE SMOOTH",
"327 756 OFFCURVE",
"307 758 OFFCURVE",
"284 762 CURVE",
"295 777 OFFCURVE",
"300 796 OFFCURVE",
"300 819 CURVE SMOOTH",
"300 862 OFFCURVE",
"265 897 OFFCURVE",
"214 897 CURVE SMOOTH",
"157 897 OFFCURVE",
"128 861 OFFCURVE",
"128 809 CURVE SMOOTH",
"128 730 OFFCURVE",
"223 682 OFFCURVE",
"343 682 CURVE SMOOTH"
);
}
);
width = 814;
}
);
note = threesuperior;
unicode = 00B3;
},
{
glyphname = uni2074;
lastChange = "2016-09-02 12:46:05 +0000";
layers = (
{
layerId = "EE746D13-63D7-48F9-B77E-C723CA6A668B";
paths = (
{
closed = 1;
nodes = (
"743 836 LINE",
"743 922 LINE",
"612 922 LINE",
"612 1104 LINE",
"743 1104 LINE",
"743 1188 LINE",
"612 1188 LINE",
"612 1641 LINE",
"454 1641 LINE",
"138 1196 LINE",
"138 1104 LINE",
"487 1104 LINE",
"487 922 LINE",
"341 922 LINE",
"341 836 LINE"
);
},
{
closed = 1;
nodes = (
"487 1532 LINE",
"487 1188 LINE",
"251 1188 LINE"
);
}
);
width = 885;
}
);
note = uni2074;
unicode = 2074;
},
{
glyphname = fraction;
lastChange = "2016-09-02 12:46:03 +0000";
layers = (
{
layerId = "EE746D13-63D7-48F9-B77E-C723CA6A668B";
paths = (
{
closed = 1;
nodes = (
"1228 1419 LINE",
"1128 1479 LINE",
"63 -2 LINE",
"163 -61 LINE"
);
}
);
width = 1290;
}
);
note = fraction;
unicode = 2044;
},
{
glyphname = onehalf;
lastChange = "2016-09-02 12:46:05 +0000";
layers = (
{
layerId = "EE746D13-63D7-48F9-B77E-C723CA6A668B";
paths = (
{
closed = 1;
nodes = (
"1319 1419 LINE",
"1219 1479 LINE",
"154 -2 LINE",
"254 -61 LINE"
);
},
{
closed = 1;
nodes = (
"474 750 LINE",
"474 836 LINE",
"349 836 LINE",
"349 1561 LINE",
"70 1483 LINE",
"70 1376 LINE",
"203 1411 LINE",
"203 836 LINE",
"70 836 LINE",
"70 750 LINE"
);
},
{
closed = 1;
nodes = (
"1602 -102 LINE",
"1575 123 LINE",
"1180 123 LINE",
"1381 270 LINE SMOOTH",
"1518 370 OFFCURVE",
"1579 469 OFFCURVE",
"1579 545 CURVE SMOOTH",
"1579 725 OFFCURVE",
"1464 831 OFFCURVE",
"1280 831 CURVE SMOOTH",
"1088 831 OFFCURVE",
"928 720 OFFCURVE",
"928 596 CURVE SMOOTH",
"928 592 LINE",
"931 527 OFFCURVE",
"971 471 OFFCURVE",
"1051 471 CURVE SMOOTH",
"1119 471 OFFCURVE",
"1166 514 OFFCURVE",
"1166 582 CURVE SMOOTH",
"1166 630 OFFCURVE",
"1131 662 OFFCURVE",
"1094 674 CURVE",
"1135 721 OFFCURVE",
"1189 745 OFFCURVE",
"1254 745 CURVE SMOOTH",
"1346 745 OFFCURVE",
"1426 657 OFFCURVE",
"1426 557 CURVE SMOOTH",
"1426 486 OFFCURVE",
"1376 407 OFFCURVE",
"1293 335 CURVE SMOOTH",
"1209 262 OFFCURVE",
"1143 215 OFFCURVE",
"1049 153 CURVE SMOOTH",
"1002 122 OFFCURVE",
"971 101 OFFCURVE",
"957 90 CURVE",
"958 90 OFFCURVE",
"963 60 OFFCURVE",
"971 0 CURVE",
"1481 0 LINE",
"1551 -111 LINE"
);
}
);
width = 1668;
}
);
note = onehalf;
unicode = 00BD;
},
{
glyphname = onequarter;
lastChange = "2016-09-02 12:46:05 +0000";
layers = (
{
layerId = "EE746D13-63D7-48F9-B77E-C723CA6A668B";
paths = (
{
closed = 1;
nodes = (
"1318 1419 LINE",
"1218 1479 LINE",
"153 -2 LINE",
"253 -61 LINE"
);
},
{
closed = 1;
nodes = (
"473 750 LINE",
"473 836 LINE",
"348 836 LINE",
"348 1561 LINE",
"69 1483 LINE",
"69 1376 LINE",
"202 1411 LINE",
"202 836 LINE",
"69 836 LINE",
"69 750 LINE"
);
},
{
closed = 1;
nodes = (
"1458 0 LINE",
"1458 86 LINE",
"1327 86 LINE",
"1327 268 LINE",
"1458 268 LINE",
"1458 352 LINE",
"1327 352 LINE",
"1327 805 LINE",
"1169 805 LINE",
"853 360 LINE",
"853 268 LINE",
"1202 268 LINE",
"1202 86 LINE",
"1056 86 LINE",
"1056 0 LINE"
);
},
{
closed = 1;
nodes = (
"1202 696 LINE",
"1202 352 LINE",
"966 352 LINE"
);
}
);
width = 1526;
}
);
note = onequarter;
unicode = 00BC;
},
{
glyphname = threequarters;
lastChange = "2016-09-02 12:46:05 +0000";
layers = (
{
layerId = "EE746D13-63D7-48F9-B77E-C723CA6A668B";
paths = (
{
closed = 1;
nodes = (
"1367 1419 LINE",
"1267 1479 LINE",
"202 -2 LINE",
"302 -61 LINE"
);
},
{
closed = 1;
nodes = (
"513 729 OFFCURVE",
"659 843 OFFCURVE",
"659 995 CURVE SMOOTH",
"659 1116 OFFCURVE",
"571 1206 OFFCURVE",
"407 1206 CURVE",
"523 1229 OFFCURVE",
"593 1302 OFFCURVE",
"593 1389 CURVE SMOOTH",
"593 1494 OFFCURVE",
"504 1583 OFFCURVE",
"339 1583 CURVE SMOOTH",
"190 1583 OFFCURVE",
"67 1484 OFFCURVE",
"67 1384 CURVE SMOOTH",
"67 1328 OFFCURVE",
"101 1280 OFFCURVE",
"165 1280 CURVE SMOOTH",
"218 1280 OFFCURVE",
"261 1319 OFFCURVE",
"261 1370 CURVE SMOOTH",
"261 1423 OFFCURVE",
"224 1448 OFFCURVE",
"180 1456 CURVE",
"224 1496 OFFCURVE",
"272 1516 OFFCURVE",
"325 1516 CURVE SMOOTH",
"409 1516 OFFCURVE",
"474 1461 OFFCURVE",
"474 1380 CURVE SMOOTH",
"474 1295 OFFCURVE",
"407 1237 OFFCURVE",
"276 1217 CURVE",
"290 1141 LINE",
"313 1145 OFFCURVE",
"333 1147 OFFCURVE",
"352 1147 CURVE SMOOTH",
"458 1147 OFFCURVE",
"511 1096 OFFCURVE",
"511 995 CURVE SMOOTH",
"511 888 OFFCURVE",
"428 803 OFFCURVE",
"300 803 CURVE SMOOTH",
"283 803 OFFCURVE",
"262 805 OFFCURVE",
"239 809 CURVE",
"250 824 OFFCURVE",
"255 843 OFFCURVE",
"255 866 CURVE SMOOTH",
"255 909 OFFCURVE",
"220 944 OFFCURVE",
"169 944 CURVE SMOOTH",
"112 944 OFFCURVE",
"83 908 OFFCURVE",
"83 856 CURVE SMOOTH",
"83 777 OFFCURVE",
"178 729 OFFCURVE",
"298 729 CURVE SMOOTH"
);
},
{
closed = 1;
nodes = (
"1507 0 LINE",
"1507 86 LINE",
"1376 86 LINE",
"1376 268 LINE",
"1507 268 LINE",
"1507 352 LINE",
"1376 352 LINE",
"1376 805 LINE",
"1218 805 LINE",
"902 360 LINE",
"902 268 LINE",
"1251 268 LINE",
"1251 86 LINE",
"1105 86 LINE",
"1105 0 LINE"
);
},
{
closed = 1;
nodes = (
"1251 696 LINE",
"1251 352 LINE",
"1015 352 LINE"
);
}
);
width = 1576;
}
);
note = threequarters;
unicode = 00BE;
},
{
glyphname = asterisk;
lastChange = "2016-09-02 12:46:05 +0000";
layers = (
{
layerId = "EE746D13-63D7-48F9-B77E-C723CA6A668B";
paths = (
{
closed = 1;
nodes = (
"726 853 LINE",
"1022 368 LINE",
"1194 522 LINE",
"811 919 LINE",
"1329 1081 LINE",
"1247 1276 LINE",
"770 1003 LINE",
"836 1536 LINE",
"616 1536 LINE",
"682 1003 LINE",
"205 1276 LINE",
"123 1081 LINE",
"641 919 LINE",
"258 522 LINE",
"430 368 LINE"
);
}
);
width = 1454;
}
);
note = asterisk;
unicode = 002A;
},
{
glyphname = backslash;
lastChange = "2016-09-02 12:46:05 +0000";
layers = (
{
layerId = "EE746D13-63D7-48F9-B77E-C723CA6A668B";
paths = (
{
closed = 1;
nodes = (
"756 1561 LINE",
"637 1597 LINE",
"63 -133 LINE",
"182 -170 LINE"
);
}
);
width = 819;
}
);
note = backslash;
unicode = 005C;
},
{
glyphname = periodcentered;
lastChange = "2016-09-02 12:46:05 +0000";
layers = (
{
layerId = "EE746D13-63D7-48F9-B77E-C723CA6A668B";
paths = (
{
closed = 1;
nodes = (
"414 776 OFFCURVE",
"483 844 OFFCURVE",
"483 924 CURVE SMOOTH",
"483 1005 OFFCURVE",
"414 1073 OFFCURVE",
"334 1073 CURVE SMOOTH",
"253 1073 OFFCURVE",
"186 1007 OFFCURVE",
"186 924 CURVE SMOOTH",
"186 844 OFFCURVE",
"253 776 OFFCURVE",
"334 776 CURVE SMOOTH"
);
}
);
width = 669;
}
);
note = periodcentered;
unicode = 00B7;
},
{
glyphname = bullet;
lastChange = "2016-09-02 12:46:05 +0000";
layers = (
{
layerId = "EE746D13-63D7-48F9-B77E-C723CA6A668B";
paths = (
{
closed = 1;
nodes = (
"651 463 OFFCURVE",
"775 606 OFFCURVE",
"775 778 CURVE SMOOTH",
"775 950 OFFCURVE",
"651 1092 OFFCURVE",
"460 1092 CURVE SMOOTH",
"267 1092 OFFCURVE",
"144 951 OFFCURVE",
"144 778 CURVE SMOOTH",
"144 603 OFFCURVE",
"269 463 OFFCURVE",
"460 463 CURVE SMOOTH"
);
}
);
width = 920;
}
);
note = bullet;
unicode = 2022;
},
{
glyphname = colon;
lastChange = "2016-09-02 12:46:05 +0000";
layers = (
{
layerId = "EE746D13-63D7-48F9-B77E-C723CA6A668B";
paths = (
{
closed = 1;
nodes = (
"374 774 OFFCURVE",
"443 842 OFFCURVE",
"443 922 CURVE SMOOTH",
"443 1003 OFFCURVE",
"374 1071 OFFCURVE",
"294 1071 CURVE SMOOTH",
"213 1071 OFFCURVE",
"146 1005 OFFCURVE",
"146 922 CURVE SMOOTH",
"146 842 OFFCURVE",
"213 774 OFFCURVE",
"294 774 CURVE SMOOTH"
);
},
{
closed = 1;
nodes = (
"374 0 OFFCURVE",
"443 67 OFFCURVE",
"443 147 CURVE SMOOTH",
"443 228 OFFCURVE",
"374 297 OFFCURVE",
"294 297 CURVE SMOOTH",
"213 297 OFFCURVE",
"146 230 OFFCURVE",
"146 147 CURVE SMOOTH",
"146 67 OFFCURVE",
"213 0 OFFCURVE",
"294 0 CURVE SMOOTH"
);
}
);
width = 588;
}
);
leftKerningGroup = colon;
note = colon;
unicode = 003A;
},
{
glyphname = comma;
lastChange = "2016-09-02 12:46:03 +0000";
layers = (
{
layerId = "EE746D13-63D7-48F9-B77E-C723CA6A668B";
paths = (
{
closed = 1;
nodes = (
"289 -248 OFFCURVE",
"293 -245 OFFCURVE",
"297 -244 CURVE",
"420 -160 OFFCURVE",
"477 -48 OFFCURVE",
"477 55 CURVE SMOOTH",
"477 188 OFFCURVE",
"384 264 OFFCURVE",
"289 264 CURVE SMOOTH",
"216 264 OFFCURVE",
"139 196 OFFCURVE",
"139 121 CURVE SMOOTH",
"139 53 OFFCURVE",
"203 -12 OFFCURVE",
"272 -12 CURVE SMOOTH",
"302 -12 OFFCURVE",
"330 -4 OFFCURVE",
"356 12 CURVE",
"361 5 OFFCURVE",
"364 -5 OFFCURVE",
"364 -16 CURVE SMOOTH",
"364 -68 OFFCURVE",
"299 -135 OFFCURVE",
"235 -174 CURVE",
"285 -252 LINE"
);
}
);
width = 617;
}
);
leftKerningGroup = comma;
note = comma;
unicode = 002C;
},
{
glyphname = exclam;
lastChange = "2016-09-02 12:46:05 +0000";
layers = (
{
layerId = "EE746D13-63D7-48F9-B77E-C723CA6A668B";
paths = (
{
closed = 1;
nodes = (
"471 451 LINE",
"565 1479 LINE",
"305 1479 LINE",
"399 451 LINE"
);
},
{
closed = 1;
nodes = (
"518 -20 OFFCURVE",
"588 47 OFFCURVE",
"588 127 CURVE SMOOTH",
"588 208 OFFCURVE",
"518 276 OFFCURVE",
"438 276 CURVE SMOOTH",
"357 276 OFFCURVE",
"291 210 OFFCURVE",
"291 127 CURVE SMOOTH",
"291 47 OFFCURVE",
"357 -20 OFFCURVE",
"438 -20 CURVE SMOOTH"
);
}
);
width = 856;
}
);
note = exclam;
unicode = 0021;
},
{
glyphname = numbersign;
lastChange = "2016-09-02 12:46:05 +0000";
layers = (
{
layerId = "EE746D13-63D7-48F9-B77E-C723CA6A668B";
paths = (
{
closed = 1;
nodes = (
"435 578 LINE",
"761 578 LINE",
"525 -133 LINE",
"644 -170 LINE",
"892 578 LINE",
"1168 578 LINE",
"1168 645 LINE",
"914 645 LINE",
"1033 1006 LINE",
"1289 1006 LINE",
"1289 1073 LINE",
"1055 1073 LINE",
"1217 1561 LINE",
"1099 1597 LINE",
"925 1073 LINE",
"599 1073 LINE",
"761 1561 LINE",
"642 1597 LINE",
"468 1073 LINE",
"202 1073 LINE",
"202 1006 LINE",
"446 1006 LINE",
"326 645 LINE",
"81 645 LINE",
"81 578 LINE",
"304 578 LINE",
"68 -133 LINE",
"187 -170 LINE"
);
},
{
closed = 1;
nodes = (
"577 1006 LINE",
"903 1006 LINE",
"783 645 LINE",
"457 645 LINE"
);
}
);
width = 1350;
}
);
note = numbersign;
unicode = 0023;
},
{
glyphname = period;
lastChange = "2016-09-02 12:46:05 +0000";
layers = (
{
layerId = "EE746D13-63D7-48F9-B77E-C723CA6A668B";
paths = (
{
closed = 1;
nodes = (
"373 -20 OFFCURVE",
"443 47 OFFCURVE",
"443 127 CURVE SMOOTH",
"443 208 OFFCURVE",
"373 276 OFFCURVE",
"293 276 CURVE SMOOTH",
"212 276 OFFCURVE",
"146 210 OFFCURVE",
"146 127 CURVE SMOOTH",
"146 47 OFFCURVE",
"212 -20 OFFCURVE",
"293 -20 CURVE SMOOTH"
);
}
);
width = 589;
}
);
leftKerningGroup = period;
note = period;
unicode = 002E;
},
{
glyphname = question;
lastChange = "2016-09-02 12:46:05 +0000";
layers = (
{
layerId = "EE746D13-63D7-48F9-B77E-C723CA6A668B";
paths = (
{
closed = 1;
nodes = (
"492 406 LINE",
"520 498 OFFCURVE",
"601 593 OFFCURVE",
"680 670 CURVE SMOOTH",
"719 708 OFFCURVE",
"758 748 OFFCURVE",
"796 791 CURVE SMOOTH",
"871 876 OFFCURVE",
"926 992 OFFCURVE",
"926 1123 CURVE SMOOTH",
"926 1185 OFFCURVE",
"917 1241 OFFCURVE",
"898 1291 CURVE SMOOTH",
"860 1390 OFFCURVE",
"802 1444 OFFCURVE",
"728 1484 CURVE SMOOTH",
"654 1524 OFFCURVE",
"588 1536 OFFCURVE",
"528 1536 CURVE SMOOTH",
"448 1536 OFFCURVE",
"375 1523 OFFCURVE",
"308 1496 CURVE SMOOTH",
"175 1443 OFFCURVE",
"82 1329 OFFCURVE",
"82 1182 CURVE SMOOTH",
"82 1103 OFFCURVE",
"152 1024 OFFCURVE",
"256 1024 CURVE SMOOTH",
"341 1024 OFFCURVE",
"401 1085 OFFCURVE",
"401 1172 CURVE SMOOTH",
"401 1191 OFFCURVE",
"398 1209 OFFCURVE",
"391 1225 CURVE SMOOTH",
"377 1256 OFFCURVE",
"356 1273 OFFCURVE",
"328 1285 CURVE SMOOTH",
"300 1297 OFFCURVE",
"276 1301 OFFCURVE",
"252 1301 CURVE",
"289 1384 OFFCURVE",
"374 1432 OFFCURVE",
"465 1432 CURVE SMOOTH",
"528 1432 OFFCURVE",
"586 1409 OFFCURVE",
"634 1365 CURVE SMOOTH",
"681 1321 OFFCURVE",
"711 1245 OFFCURVE",
"711 1153 CURVE SMOOTH",
"711 1053 OFFCURVE",
"666 958 OFFCURVE",
"610 878 CURVE SMOOTH",
"582 838 OFFCURVE",
"554 797 OFFCURVE",
"527 754 CURVE SMOOTH",
"471 669 OFFCURVE",
"426 545 OFFCURVE",
"426 406 CURVE"
);
},
{
closed = 1;
nodes = (
"535 -20 OFFCURVE",
"604 47 OFFCURVE",
"604 127 CURVE SMOOTH",
"604 208 OFFCURVE",
"535 276 OFFCURVE",
"455 276 CURVE SMOOTH",
"374 276 OFFCURVE",
"307 210 OFFCURVE",
"307 127 CURVE SMOOTH",
"307 47 OFFCURVE",
"374 -20 OFFCURVE",
"455 -20 CURVE SMOOTH"
);
}
);
width = 1009;
}
);
note = question;
unicode = 003F;
},
{
glyphname = quotedbl;
lastChange = "2016-09-02 12:46:05 +0000";
layers = (
{
layerId = "EE746D13-63D7-48F9-B77E-C723CA6A668B";
paths = (
{
closed = 1;
nodes = (
"510 1004 OFFCURVE",
"520 1012 OFFCURVE",
"522 1028 CURVE SMOOTH",
"575 1456 LINE",
"575 1509 OFFCURVE",
"547 1536 OFFCURVE",
"491 1536 CURVE SMOOTH",
"436 1536 OFFCURVE",
"405 1503 OFFCURVE",
"405 1456 CURVE SMOOTH",
"405 1453 OFFCURVE",
"423 1311 OFFCURVE",
"458 1028 CURVE SMOOTH",
"460 1012 OFFCURVE",
"471 1004 OFFCURVE",
"491 1004 CURVE SMOOTH"
);
},
{
closed = 1;
nodes = (
"248 1004 OFFCURVE",
"258 1012 OFFCURVE",
"260 1028 CURVE SMOOTH",
"313 1456 LINE",
"313 1509 OFFCURVE",
"285 1536 OFFCURVE",
"229 1536 CURVE SMOOTH",
"174 1536 OFFCURVE",
"143 1503 OFFCURVE",
"143 1456 CURVE SMOOTH",
"143 1453 OFFCURVE",
"161 1311 OFFCURVE",
"196 1028 CURVE SMOOTH",
"198 1012 OFFCURVE",
"209 1004 OFFCURVE",
"229 1004 CURVE SMOOTH"
);
}
);
width = 717;
}
);
note = quotedbl;
unicode = 0022;
},
{
glyphname = quotesingle;
lastChange = "2016-09-02 12:46:03 +0000";
layers = (
{
layerId = "EE746D13-63D7-48F9-B77E-C723CA6A668B";
paths = (
{
closed = 1;
nodes = (
"266 1004 OFFCURVE",
"313 1364 OFFCURVE",
"313 1456 CURVE SMOOTH",
"313 1509 OFFCURVE",
"285 1536 OFFCURVE",
"229 1536 CURVE SMOOTH",
"174 1536 OFFCURVE",
"143 1503 OFFCURVE",
"143 1456 CURVE SMOOTH",
"143 1357 OFFCURVE",
"188 1004 OFFCURVE",
"229 1004 CURVE SMOOTH"
);
}
);
width = 455;
}
);
note = quotesingle;
unicode = 0027;
},
{
glyphname = semicolon;
lastChange = "2016-09-02 12:46:05 +0000";
layers = (
{
layerId = "EE746D13-63D7-48F9-B77E-C723CA6A668B";
paths = (
{
closed = 1;
nodes = (
"343 -154 OFFCURVE",
"366 -131 OFFCURVE",
"403 -79 CURVE SMOOTH",
"440 -28 OFFCURVE",
"452 14 OFFCURVE",
"452 70 CURVE SMOOTH",
"452 195 OFFCURVE",
"378 268 OFFCURVE",
"286 268 CURVE SMOOTH",
"211 268 OFFCURVE",
"139 204 OFFCURVE",
"139 131 CURVE SMOOTH",
"139 67 OFFCURVE",
"199 4 OFFCURVE",
"262 4 CURVE SMOOTH",
"289 4 OFFCURVE",
"315 12 OFFCURVE",
"339 29 CURVE",
"345 21 OFFCURVE",
"348 11 OFFCURVE",
"348 0 CURVE SMOOTH",
"348 -49 OFFCURVE",
"288 -114 OFFCURVE",
"229 -150 CURVE",
"274 -223 LINE"
);
},
{
closed = 1;
nodes = (
"366 774 OFFCURVE",
"436 842 OFFCURVE",
"436 922 CURVE SMOOTH",
"436 1003 OFFCURVE",
"366 1071 OFFCURVE",
"286 1071 CURVE SMOOTH",
"205 1071 OFFCURVE",
"139 1005 OFFCURVE",
"139 922 CURVE SMOOTH",
"139 842 OFFCURVE",
"205 774 OFFCURVE",
"286 774 CURVE SMOOTH"
);
}
);
width = 590;
}
);
leftKerningGroup = semicolon;
note = semicolon;
unicode = 003B;
},
{
glyphname = slash;
lastChange = "2016-09-02 12:46:05 +0000";
layers = (
{
layerId = "EE746D13-63D7-48F9-B77E-C723CA6A668B";
paths = (
{
closed = 1;
nodes = (
"756 1561 LINE",
"637 1597 LINE",
"63 -133 LINE",
"182 -170 LINE"
);
}
);
width = 819;
}
);
note = slash;
unicode = 002F;
},
{
glyphname = underscore;
lastChange = "2016-09-02 12:46:05 +0000";
layers = (
{
layerId = "EE746D13-63D7-48F9-B77E-C723CA6A668B";
paths = (
{
closed = 1;
nodes = (
"748 -127 LINE",
"748 10 LINE",
"-8 10 LINE",
"-8 -127 LINE"
);
}
);
width = 739;
}
);
note = underscore;
unicode = 005F;
},
{
glyphname = braceleft;
lastChange = "2016-09-02 12:46:05 +0000";
layers = (
{
layerId = "EE746D13-63D7-48F9-B77E-C723CA6A668B";
paths = (
{
closed = 1;
nodes = (
"794 -248 LINE",
"741 -248 OFFCURVE",
"700 -244 OFFCURVE",
"665 -231 CURVE SMOOTH",
"630 -219 OFFCURVE",
"605 -208 OFFCURVE",
"585 -180 CURVE SMOOTH",
"565 -152 OFFCURVE",
"551 -133 OFFCURVE",
"542 -88 CURVE SMOOTH",
"533 -44 OFFCURVE",
"528 -15 OFFCURVE",
"525 49 CURVE SMOOTH",
"522 112 OFFCURVE",
"522 153 OFFCURVE",
"522 236 CURVE SMOOTH",
"522 333 OFFCURVE",
"521 387 OFFCURVE",
"514 448 CURVE SMOOTH",
"506 508 OFFCURVE",
"495 538 OFFCURVE",
"473 569 CURVE SMOOTH",
"451 600 OFFCURVE",
"421 614 OFFCURVE",
"376 625 CURVE",
"421 636 OFFCURVE",
"451 650 OFFCURVE",
"473 681 CURVE SMOOTH",
"495 712 OFFCURVE",
"506 742 OFFCURVE",
"514 803 CURVE SMOOTH",
"521 863 OFFCURVE",
"522 917 OFFCURVE",
"522 1014 CURVE SMOOTH",
"522 1098 OFFCURVE",
"523 1161 OFFCURVE",
"526 1204 CURVE SMOOTH",
"530 1289 OFFCURVE",
"546 1395 OFFCURVE",
"586 1433 CURVE SMOOTH",
"625 1471 OFFCURVE",
"689 1497 OFFCURVE",
"794 1497 CURVE",
"794 1583 LINE",
"651 1583 OFFCURVE",
"549 1567 OFFCURVE",
"475 1524 CURVE SMOOTH",
"401 1481 OFFCURVE",
"357 1430 OFFCURVE",
"330 1339 CURVE SMOOTH",
"303 1248 OFFCURVE",
"296 1157 OFFCURVE",
"296 1014 CURVE SMOOTH",
"296 987 OFFCURVE",
"296 955 OFFCURVE",
"297 917 CURVE SMOOTH",
"297 842 LINE SMOOTH",
"297 710 OFFCURVE",
"284 692 OFFCURVE",
"180 692 CURVE SMOOTH",
"65 692 LINE",
"65 557 LINE",
"180 557 LINE SMOOTH",
"284 557 OFFCURVE",
"297 539 OFFCURVE",
"297 407 CURVE SMOOTH",
"297 332 LINE SMOOTH",
"296 295 OFFCURVE",
"296 263 OFFCURVE",
"296 236 CURVE SMOOTH",
"296 93 OFFCURVE",
"303 2 OFFCURVE",
"330 -89 CURVE SMOOTH",
"357 -180 OFFCURVE",
"401 -232 OFFCURVE",
"475 -275 CURVE SMOOTH",
"549 -318 OFFCURVE",
"651 -334 OFFCURVE",
"794 -334 CURVE"
);
}
);
width = 862;
}
);
note = braceleft;
unicode = 007B;
},
{
glyphname = braceright;
lastChange = "2016-09-02 12:46:05 +0000";
layers = (
{
layerId = "EE746D13-63D7-48F9-B77E-C723CA6A668B";
paths = (
{
closed = 1;
nodes = (
"214 -334 OFFCURVE",
"317 -318 OFFCURVE",
"390 -275 CURVE SMOOTH",
"463 -232 OFFCURVE",
"509 -180 OFFCURVE",
"535 -89 CURVE SMOOTH",
"561 2 OFFCURVE",
"568 93 OFFCURVE",
"568 236 CURVE SMOOTH",
"568 320 OFFCURVE",
"568 356 OFFCURVE",
"571 409 CURVE SMOOTH",
"574 462 OFFCURVE",
"577 480 OFFCURVE",
"588 509 CURVE SMOOTH",
"599 537 OFFCURVE",
"610 543 OFFCURVE",
"631 554 CURVE SMOOTH",
"652 565 OFFCURVE",
"675 565 OFFCURVE",
"712 565 CURVE SMOOTH",
"800 565 LINE",
"800 684 LINE",
"712 684 LINE SMOOTH",
"675 684 OFFCURVE",
"652 684 OFFCURVE",
"631 696 CURVE",
"610 707 OFFCURVE",
"599 713 OFFCURVE",
"588 742 CURVE SMOOTH",
"577 770 OFFCURVE",
"574 788 OFFCURVE",
"571 841 CURVE SMOOTH",
"568 894 OFFCURVE",
"568 930 OFFCURVE",
"568 1014 CURVE SMOOTH",
"568 1075 OFFCURVE",
"566 1127 OFFCURVE",
"563 1172 CURVE SMOOTH",
"556 1261 OFFCURVE",
"539 1350 OFFCURVE",
"507 1407 CURVE SMOOTH",
"475 1463 OFFCURVE",
"428 1513 OFFCURVE",
"357 1541 CURVE SMOOTH",
"286 1568 OFFCURVE",
"194 1583 OFFCURVE",
"71 1583 CURVE",
"71 1497 LINE",
"124 1497 OFFCURVE",
"167 1491 OFFCURVE",
"200 1479 CURVE SMOOTH",
"267 1455 OFFCURVE",
"305 1427 OFFCURVE",
"323 1336 CURVE SMOOTH",
"341 1245 OFFCURVE",
"343 1182 OFFCURVE",
"343 1014 CURVE SMOOTH",
"343 755 OFFCURVE",
"397 657 OFFCURVE",
"534 625 CURVE",
"397 593 OFFCURVE",
"343 495 OFFCURVE",
"343 236 CURVE SMOOTH",
"343 153 OFFCURVE",
"343 112 OFFCURVE",
"340 49 CURVE SMOOTH",
"337 -15 OFFCURVE",
"332 -44 OFFCURVE",
"323 -88 CURVE SMOOTH",
"314 -133 OFFCURVE",
"300 -152 OFFCURVE",
"280 -180 CURVE SMOOTH",
"260 -208 OFFCURVE",
"235 -219 OFFCURVE",
"200 -231 CURVE SMOOTH",
"165 -244 OFFCURVE",
"124 -248 OFFCURVE",
"71 -248 CURVE",
"71 -334 LINE"
);
}
);
width = 862;
}
);
note = braceright;
unicode = 007D;
},
{
glyphname = bracketleft;
lastChange = "2016-09-02 12:46:05 +0000";
layers = (
{
layerId = "EE746D13-63D7-48F9-B77E-C723CA6A668B";
paths = (
{
closed = 1;
nodes = (
"896 -246 LINE",
"896 -109 LINE",
"386 -109 LINE",
"386 1464 LINE",
"896 1464 LINE",
"896 1602 LINE",
"151 1602 LINE",
"151 -246 LINE"
);
}
);
width = 1040;
}
);
note = bracketleft;
unicode = 005B;
},
{
glyphname = bracketright;
lastChange = "2016-09-02 12:46:05 +0000";
layers = (
{
layerId = "EE746D13-63D7-48F9-B77E-C723CA6A668B";
paths = (
{
closed = 1;
nodes = (
"890 -246 LINE",
"890 1602 LINE",
"145 1602 LINE",
"145 1464 LINE",
"655 1464 LINE",
"655 -109 LINE",
"145 -109 LINE",
"145 -246 LINE"
);
}
);
width = 1040;
}
);
note = bracketright;
unicode = 005D;
},
{
glyphname = parenleft;
lastChange = "2016-09-02 12:46:05 +0000";
layers = (
{
layerId = "EE746D13-63D7-48F9-B77E-C723CA6A668B";
paths = (
{
closed = 1;
nodes = (
"671 -143 LINE",
"551 -120 OFFCURVE",
"449 -8 OFFCURVE",
"389 145 CURVE SMOOTH",
"329 298 OFFCURVE",
"296 483 OFFCURVE",
"296 668 CURVE SMOOTH",
"296 852 OFFCURVE",
"329 1037 OFFCURVE",
"389 1190 CURVE SMOOTH",
"449 1343 OFFCURVE",
"551 1456 OFFCURVE",
"671 1479 CURVE",
"671 1565 LINE",
"479 1546 OFFCURVE",
"317 1425 OFFCURVE",
"221 1254 CURVE SMOOTH",
"124 1083 OFFCURVE",
"71 876 OFFCURVE",
"71 668 CURVE SMOOTH",
"71 459 OFFCURVE",
"124 252 OFFCURVE",
"221 82 CURVE SMOOTH",
"317 -88 OFFCURVE",
"479 -210 OFFCURVE",
"671 -229 CURVE"
);
}
);
width = 738;
}
);
note = parenleft;
unicode = 0028;
},
{
glyphname = parenright;
lastChange = "2016-09-02 12:46:05 +0000";
layers = (
{
layerId = "EE746D13-63D7-48F9-B77E-C723CA6A668B";
paths = (
{
closed = 1;
nodes = (
"260 -210 OFFCURVE",
"422 -89 OFFCURVE",
"519 82 CURVE SMOOTH",
"615 253 OFFCURVE",
"668 460 OFFCURVE",
"668 668 CURVE SMOOTH",
"668 877 OFFCURVE",
"615 1085 OFFCURVE",
"519 1255 CURVE SMOOTH",
"422 1425 OFFCURVE",
"260 1546 OFFCURVE",
"68 1565 CURVE",
"68 1479 LINE",
"188 1456 OFFCURVE",
"290 1344 OFFCURVE",
"350 1191 CURVE SMOOTH",
"410 1038 OFFCURVE",
"443 853 OFFCURVE",
"443 668 CURVE SMOOTH",
"443 484 OFFCURVE",
"410 299 OFFCURVE",
"350 146 CURVE SMOOTH",
"290 -7 OFFCURVE",
"188 -120 OFFCURVE",
"68 -143 CURVE",
"68 -229 LINE"
);
}
);
width = 737;
}
);
note = parenright;
unicode = 0029;
},
{
glyphname = hyphen;
lastChange = "2016-09-02 12:46:05 +0000";
layers = (
{
layerId = "EE746D13-63D7-48F9-B77E-C723CA6A668B";
paths = (
{
closed = 1;
nodes = (
"735 547 LINE",
"735 684 LINE",
"153 684 LINE",
"153 547 LINE"
);
}
);
width = 889;
}
);
leftKerningGroup = hyphen;
note = hyphen;
unicode = 002D;
},
{
glyphname = uni00AD;
lastChange = "2016-09-02 12:46:05 +0000";
layers = (
{
layerId = "EE746D13-63D7-48F9-B77E-C723CA6A668B";
paths = (
{
closed = 1;
nodes = (
"816 649 LINE",
"816 797 LINE",
"153 797 LINE",
"153 649 LINE"
);
}
);
width = 970;
}
);
note = uni00AD;
unicode = 00AD;
},
{
glyphname = guillemotleft;
lastChange = "2016-09-02 13:15:55 +0000";
layers = (
{
layerId = "EE746D13-63D7-48F9-B77E-C723CA6A668B";
paths = (
{
closed = 1;
nodes = (
"464 485 LINE",
"224 672 LINE",
"464 846 LINE",
"464 1061 LINE",
"77 731 LINE",
"77 596 LINE",
"464 258 LINE"
);
},
{
closed = 1;
nodes = (
"882 485 LINE",
"642 672 LINE",
"882 846 LINE",
"882 1061 LINE",
"495 731 LINE",
"495 596 LINE",
"882 258 LINE"
);
}
);
width = 966;
}
);
note = guillemotleft;
unicode = 00AB;
},
{
glyphname = guillemotright;
lastChange = "2016-09-02 12:46:05 +0000";
layers = (
{
layerId = "EE746D13-63D7-48F9-B77E-C723CA6A668B";
paths = (
{
closed = 1;
nodes = (
"889 596 LINE",
"889 731 LINE",
"502 1061 LINE",
"502 846 LINE",
"742 672 LINE",
"502 485 LINE",
"502 258 LINE"
);
},
{
closed = 1;
nodes = (
"471 596 LINE",
"471 731 LINE",
"84 1061 LINE",
"84 846 LINE",
"324 672 LINE",
"84 485 LINE",
"84 258 LINE"
);
}
);
width = 966;
}
);
note = guillemotright;
unicode = 00BB;
},
{
glyphname = guilsinglleft;
lastChange = "2016-09-02 12:46:05 +0000";
layers = (
{
layerId = "EE746D13-63D7-48F9-B77E-C723CA6A668B";
paths = (
{
closed = 1;
nodes = (
"465 485 LINE",
"225 672 LINE",
"465 846 LINE",
"465 1061 LINE",
"408 1012 OFFCURVE",
"279 902 OFFCURVE",
"78 731 CURVE",
"78 596 LINE",
"465 258 LINE"
);
}
);
width = 549;
}
);
note = guilsinglleft;
unicode = 2039;
},
{
glyphname = guilsinglright;
lastChange = "2016-09-02 12:46:05 +0000";
layers = (
{
layerId = "EE746D13-63D7-48F9-B77E-C723CA6A668B";
paths = (
{
closed = 1;
nodes = (
"471 596 LINE",
"471 731 LINE",
"84 1061 LINE",
"84 846 LINE",
"324 672 LINE",
"84 485 LINE",
"84 258 LINE"
);
}
);
width = 548;
}
);
note = guilsinglright;
unicode = 203A;
},
{
glyphname = quotedblbase;
lastChange = "2016-09-02 12:46:03 +0000";
layers = (
{
layerId = "EE746D13-63D7-48F9-B77E-C723CA6A668B";
paths = (
{
closed = 1;
nodes = (
"506 -397 OFFCURVE",
"553 -53 OFFCURVE",
"553 35 CURVE SMOOTH",
"553 88 OFFCURVE",
"525 115 OFFCURVE",
"469 115 CURVE SMOOTH",
"414 115 OFFCURVE",
"383 82 OFFCURVE",
"383 35 CURVE SMOOTH",
"383 -60 OFFCURVE",
"429 -397 OFFCURVE",
"469 -397 CURVE SMOOTH"
);
},
{
closed = 1;
nodes = (
"266 -397 OFFCURVE",
"313 -53 OFFCURVE",
"313 35 CURVE SMOOTH",
"313 88 OFFCURVE",
"285 115 OFFCURVE",
"229 115 CURVE SMOOTH",
"174 115 OFFCURVE",
"143 82 OFFCURVE",
"143 35 CURVE SMOOTH",
"143 -56 OFFCURVE",
"190 -397 OFFCURVE",
"229 -397 CURVE SMOOTH"
);
}
);
width = 695;
}
);
note = quotedblbase;
unicode = 201E;
},
{
glyphname = quotedblleft;
lastChange = "2016-09-02 12:46:05 +0000";
layers = (
{
layerId = "EE746D13-63D7-48F9-B77E-C723CA6A668B";
paths = (
{
closed = 1;
nodes = (
"385 1044 OFFCURVE",
"456 1110 OFFCURVE",
"456 1182 CURVE SMOOTH",
"456 1246 OFFCURVE",
"396 1309 OFFCURVE",
"333 1309 CURVE SMOOTH",
"305 1309 OFFCURVE",
"279 1301 OFFCURVE",
"255 1284 CURVE",
"250 1291 OFFCURVE",
"247 1301 OFFCURVE",
"247 1313 CURVE SMOOTH",
"247 1362 OFFCURVE",
"307 1426 OFFCURVE",
"366 1462 CURVE",
"321 1536 LINE",
"258 1473 LINE SMOOTH",
"233 1447 OFFCURVE",
"187 1393 OFFCURVE",
"172 1362 CURVE SMOOTH",
"156 1331 OFFCURVE",
"142 1288 OFFCURVE",
"142 1243 CURVE SMOOTH",
"142 1116 OFFCURVE",
"229 1044 OFFCURVE",
"316 1044 CURVE SMOOTH"
);
},
{
closed = 1;
nodes = (
"744 1044 OFFCURVE",
"814 1110 OFFCURVE",
"814 1182 CURVE SMOOTH",
"814 1246 OFFCURVE",
"754 1309 OFFCURVE",
"691 1309 CURVE SMOOTH",
"663 1309 OFFCURVE",
"637 1301 OFFCURVE",
"613 1284 CURVE",
"608 1291 OFFCURVE",
"605 1301 OFFCURVE",
"605 1313 CURVE SMOOTH",
"605 1362 OFFCURVE",
"665 1426 OFFCURVE",
"724 1462 CURVE",
"679 1536 LINE",
"610 1467 OFFCURVE",
"587 1444 OFFCURVE",
"550 1393 CURVE SMOOTH",
"513 1341 OFFCURVE",
"501 1299 OFFCURVE",
"501 1243 CURVE SMOOTH",
"501 1116 OFFCURVE",
"588 1044 OFFCURVE",
"675 1044 CURVE SMOOTH"
);
}
);
width = 952;
}
);
note = quotedblleft;
unicode = 201C;
},
{
glyphname = quotedblright;
lastChange = "2016-09-02 12:46:05 +0000";
layers = (
{
layerId = "EE746D13-63D7-48F9-B77E-C723CA6A668B";
paths = (
{
closed = 1;
nodes = (
"349 1119 OFFCURVE",
"364 1134 OFFCURVE",
"404 1187 CURVE SMOOTH",
"443 1239 OFFCURVE",
"453 1280 OFFCURVE",
"453 1337 CURVE SMOOTH",
"453 1464 OFFCURVE",
"365 1536 OFFCURVE",
"278 1536 CURVE SMOOTH",
"209 1536 OFFCURVE",
"139 1471 OFFCURVE",
"139 1399 CURVE SMOOTH",
"139 1335 OFFCURVE",
"199 1272 OFFCURVE",
"262 1272 CURVE SMOOTH",
"291 1272 OFFCURVE",
"317 1280 OFFCURVE",
"340 1296 CURVE",
"345 1289 OFFCURVE",
"348 1279 OFFCURVE",
"348 1268 CURVE SMOOTH",
"348 1219 OFFCURVE",
"288 1154 OFFCURVE",
"229 1118 CURVE",
"274 1044 LINE"
);
},
{
closed = 1;
nodes = (
"707 1116 OFFCURVE",
"725 1135 OFFCURVE",
"764 1187 CURVE SMOOTH",
"803 1239 OFFCURVE",
"813 1281 OFFCURVE",
"813 1337 CURVE SMOOTH",
"813 1464 OFFCURVE",
"726 1536 OFFCURVE",
"639 1536 CURVE SMOOTH",
"570 1536 OFFCURVE",
"500 1471 OFFCURVE",
"500 1399 CURVE SMOOTH",
"500 1335 OFFCURVE",
"560 1272 OFFCURVE",
"623 1272 CURVE SMOOTH",
"652 1272 OFFCURVE",
"677 1280 OFFCURVE",
"700 1296 CURVE",
"706 1288 OFFCURVE",
"709 1279 OFFCURVE",
"709 1268 CURVE SMOOTH",
"709 1219 OFFCURVE",
"649 1154 OFFCURVE",
"590 1118 CURVE",
"635 1044 LINE"
);
}
);
width = 954;
}
);
leftKerningGroup = quotedblright;
note = quotedblright;
unicode = 201D;
},
{
glyphname = quoteleft;
lastChange = "2016-09-02 12:46:05 +0000";
layers = (
{
layerId = "EE746D13-63D7-48F9-B77E-C723CA6A668B";
paths = (
{
closed = 1;
nodes = (
"385 1044 OFFCURVE",
"455 1110 OFFCURVE",
"455 1182 CURVE SMOOTH",
"455 1246 OFFCURVE",
"395 1309 OFFCURVE",
"332 1309 CURVE SMOOTH",
"305 1309 OFFCURVE",
"279 1301 OFFCURVE",
"255 1284 CURVE",
"249 1292 OFFCURVE",
"246 1302 OFFCURVE",
"246 1313 CURVE SMOOTH",
"246 1362 OFFCURVE",
"306 1426 OFFCURVE",
"365 1462 CURVE",
"320 1536 LINE",
"251 1467 OFFCURVE",
"228 1444 OFFCURVE",
"191 1393 CURVE SMOOTH",
"154 1341 OFFCURVE",
"142 1299 OFFCURVE",
"142 1243 CURVE SMOOTH",
"142 1116 OFFCURVE",
"229 1044 OFFCURVE",
"316 1044 CURVE SMOOTH"
);
}
);
width = 593;
}
);
note = quoteleft;
unicode = 2018;
},
{
glyphname = quoteright;
lastChange = "2016-09-02 12:46:03 +0000";
layers = (
{
layerId = "EE746D13-63D7-48F9-B77E-C723CA6A668B";
paths = (
{
closed = 1;
nodes = (
"347 1116 OFFCURVE",
"365 1135 OFFCURVE",
"404 1187 CURVE SMOOTH",
"443 1239 OFFCURVE",
"453 1281 OFFCURVE",
"453 1337 CURVE SMOOTH",
"453 1464 OFFCURVE",
"366 1536 OFFCURVE",
"279 1536 CURVE SMOOTH",
"210 1536 OFFCURVE",
"139 1471 OFFCURVE",
"139 1399 CURVE SMOOTH",
"139 1335 OFFCURVE",
"199 1272 OFFCURVE",
"262 1272 CURVE SMOOTH",
"291 1272 OFFCURVE",
"317 1280 OFFCURVE",
"340 1296 CURVE",
"345 1289 OFFCURVE",
"348 1279 OFFCURVE",
"348 1268 CURVE SMOOTH",
"348 1219 OFFCURVE",
"289 1154 OFFCURVE",
"230 1118 CURVE",
"275 1044 LINE"
);
}
);
width = 594;
}
);
leftKerningGroup = quoteright;
note = quoteright;
unicode = 2019;
},
{
glyphname = quotesinglbase;
lastChange = "2016-09-02 12:46:03 +0000";
layers = (
{
layerId = "EE746D13-63D7-48F9-B77E-C723CA6A668B";
paths = (
{
closed = 1;
nodes = (
"266 -397 OFFCURVE",
"313 -53 OFFCURVE",
"313 35 CURVE SMOOTH",
"313 88 OFFCURVE",
"285 115 OFFCURVE",
"229 115 CURVE SMOOTH",
"174 115 OFFCURVE",
"143 82 OFFCURVE",
"143 35 CURVE SMOOTH",
"143 -56 OFFCURVE",
"190 -397 OFFCURVE",
"229 -397 CURVE SMOOTH"
);
}
);
width = 455;
}
);
note = quotesinglbase;
unicode = 201A;
},
{
glyphname = Euro;
lastChange = "2016-09-02 12:46:05 +0000";
layers = (
{
layerId = "EE746D13-63D7-48F9-B77E-C723CA6A668B";
paths = (
{
closed = 1;
nodes = (
"1313 -27 OFFCURVE",
"1533 149 OFFCURVE",
"1604 457 CURVE",
"1470 522 LINE",
"1447 434 OFFCURVE",
"1399 349 OFFCURVE",
"1328 278 CURVE SMOOTH",
"1257 206 OFFCURVE",
"1149 158 OFFCURVE",
"1032 158 CURVE SMOOTH",
"801 158 OFFCURVE",
"633 317 OFFCURVE",
"558 541 CURVE",
"823 541 LINE",
"823 679 LINE",
"527 679 LINE",
"524 704 OFFCURVE",
"522 734 OFFCURVE",
"522 770 CURVE SMOOTH",
"522 789 OFFCURVE",
"523 817 OFFCURVE",
"526 853 CURVE",
"913 853 LINE",
"913 990 LINE",
"548 990 LINE",
"609 1245 OFFCURVE",
"777 1396 OFFCURVE",
"989 1396 CURVE SMOOTH",
"1157 1396 OFFCURVE",
"1291 1317 OFFCURVE",
"1356 1217 CURVE",
"1276 1217 OFFCURVE",
"1178 1160 OFFCURVE",
"1178 1057 CURVE SMOOTH",
"1178 954 OFFCURVE",
"1247 891 OFFCURVE",
"1348 891 CURVE SMOOTH",
"1467 891 OFFCURVE",
"1544 982 OFFCURVE",
"1544 1073 CURVE SMOOTH",
"1544 1161 OFFCURVE",
"1517 1241 OFFCURVE",
"1462 1313 CURVE SMOOTH",
"1353 1457 OFFCURVE",
"1174 1536 OFFCURVE",
"991 1536 CURVE SMOOTH",
"634 1536 OFFCURVE",
"371 1322 OFFCURVE",
"287 990 CURVE",
"70 990 LINE",
"70 853 LINE",
"263 853 LINE",
"260 818 OFFCURVE",
"258 786 OFFCURVE",
"258 757 CURVE SMOOTH",
"258 731 OFFCURVE",
"259 705 OFFCURVE",
"261 679 CURVE",
"125 679 LINE",
"125 541 LINE",
"284 541 LINE",
"367 209 OFFCURVE",
"634 -27 OFFCURVE",
"969 -27 CURVE SMOOTH"
);
}
);
width = 1666;
}
);
note = Euro;
unicode = 20AC;
},
{
glyphname = cent;
lastChange = "2016-09-02 12:46:05 +0000";
layers = (
{
layerId = "EE746D13-63D7-48F9-B77E-C723CA6A668B";
paths = (
{
closed = 1;
nodes = (
"647 -213 LINE",
"647 -27 LINE",
"867 -7 OFFCURVE",
"1016 131 OFFCURVE",
"1063 334 CURVE",
"950 371 LINE",
"937 328 OFFCURVE",
"903 278 OFFCURVE",
"853 227 CURVE SMOOTH",
"803 176 OFFCURVE",
"726 138 OFFCURVE",
"647 135 CURVE",
"647 989 LINE",
"651 989 LINE SMOOTH",
"755 989 OFFCURVE",
"839 939 OFFCURVE",
"883 868 CURVE",
"800 868 OFFCURVE",
"729 818 OFFCURVE",
"729 731 CURVE SMOOTH",
"729 646 OFFCURVE",
"796 590 OFFCURVE",
"883 590 CURVE SMOOTH",
"982 590 OFFCURVE",
"1040 672 OFFCURVE",
"1040 752 CURVE SMOOTH",
"1040 861 OFFCURVE",
"988 954 OFFCURVE",
"911 1010 CURVE SMOOTH",
"834 1065 OFFCURVE",
"742 1098 OFFCURVE",
"647 1103 CURVE",
"647 1290 LINE",
"559 1290 LINE",
"559 1102 LINE",
"456 1093 OFFCURVE",
"367 1060 OFFCURVE",
"292 1002 CURVE SMOOTH",
"143 886 OFFCURVE",
"74 713 OFFCURVE",
"74 516 CURVE SMOOTH",
"74 203 OFFCURVE",
"280 -12 OFFCURVE",
"559 -28 CURVE",
"559 -213 LINE"
);
},
{
closed = 1;
nodes = (
"396 178 OFFCURVE",
"301 326 OFFCURVE",
"301 549 CURVE SMOOTH",
"301 613 OFFCURVE",
"310 674 OFFCURVE",
"328 731 CURVE SMOOTH",
"363 845 OFFCURVE",
"446 945 OFFCURVE",
"559 977 CURVE",
"559 143 LINE"
);
}
);
width = 1146;
}
);
note = cent;
unicode = 00A2;
},
{
glyphname = currency;
lastChange = "2016-09-02 12:46:05 +0000";
layers = (
{
layerId = "EE746D13-63D7-48F9-B77E-C723CA6A668B";
paths = (
{
closed = 1;
nodes = (
"719 571 OFFCURVE",
"818 605 OFFCURVE",
"897 672 CURVE",
"991 578 LINE",
"1050 637 LINE",
"956 731 LINE",
"1020 814 OFFCURVE",
"1052 911 OFFCURVE",
"1052 1020 CURVE SMOOTH",
"1052 1137 OFFCURVE",
"1019 1236 OFFCURVE",
"952 1319 CURVE",
"1050 1417 LINE",
"991 1477 LINE",
"892 1378 LINE",
"814 1444 OFFCURVE",
"717 1477 OFFCURVE",
"600 1477 CURVE SMOOTH",
"483 1477 OFFCURVE",
"386 1445 OFFCURVE",
"307 1380 CURVE",
"210 1477 LINE",
"151 1417 LINE",
"245 1323 LINE",
"177 1239 OFFCURVE",
"143 1139 OFFCURVE",
"143 1024 CURVE SMOOTH",
"143 912 OFFCURVE",
"176 814 OFFCURVE",
"243 729 CURVE",
"151 637 LINE",
"210 578 LINE",
"303 670 LINE",
"388 604 OFFCURVE",
"488 571 OFFCURVE",
"602 571 CURVE SMOOTH"
);
},
{
closed = 1;
nodes = (
"414 686 OFFCURVE",
"284 813 OFFCURVE",
"284 1020 CURVE SMOOTH",
"284 1232 OFFCURVE",
"413 1368 OFFCURVE",
"600 1368 CURVE SMOOTH",
"693 1368 OFFCURVE",
"769 1337 OFFCURVE",
"828 1274 CURVE SMOOTH",
"886 1211 OFFCURVE",
"915 1126 OFFCURVE",
"915 1020 CURVE SMOOTH",
"915 816 OFFCURVE",
"787 686 OFFCURVE",
"602 686 CURVE SMOOTH"
);
}
);
width = 1196;
}
);
note = currency;
unicode = 00A4;
},
{
glyphname = dollar;
lastChange = "2016-09-02 12:46:05 +0000";
layers = (
{
layerId = "EE746D13-63D7-48F9-B77E-C723CA6A668B";
paths = (
{
closed = 1;
nodes = (
"735 -190 LINE",
"735 -25 LINE",
"1087 -9 OFFCURVE",
"1264 134 OFFCURVE",
"1264 385 CURVE SMOOTH",
"1264 498 OFFCURVE",
"1239 577 OFFCURVE",
"1164 655 CURVE SMOOTH",
"1088 733 OFFCURVE",
"950 795 OFFCURVE",
"735 848 CURVE",
"735 1380 LINE",
"855 1373 OFFCURVE",
"951 1339 OFFCURVE",
"1022 1276 CURVE",
"949 1276 OFFCURVE",
"885 1227 OFFCURVE",
"885 1120 CURVE SMOOTH",
"885 1035 OFFCURVE",
"964 979 OFFCURVE",
"1053 979 CURVE SMOOTH",
"1161 979 OFFCURVE",
"1223 1063 OFFCURVE",
"1223 1180 CURVE SMOOTH",
"1223 1284 OFFCURVE",
"1156 1370 OFFCURVE",
"1056 1419 CURVE SMOOTH",
"956 1468 OFFCURVE",
"848 1497 OFFCURVE",
"735 1505 CURVE",
"735 1661 LINE",
"639 1659 LINE",
"639 1509 LINE",
"311 1501 OFFCURVE",
"106 1328 OFFCURVE",
"106 1080 CURVE SMOOTH",
"106 980 OFFCURVE",
"133 903 OFFCURVE",
"208 827 CURVE SMOOTH",
"283 750 OFFCURVE",
"421 686 OFFCURVE",
"621 637 CURVE",
"629 634 OFFCURVE",
"635 633 OFFCURVE",
"639 633 CURVE",
"639 109 LINE",
"506 116 OFFCURVE",
"388 151 OFFCURVE",
"287 215 CURVE",
"374 226 OFFCURVE",
"428 272 OFFCURVE",
"428 360 CURVE SMOOTH",
"428 445 OFFCURVE",
"357 526 OFFCURVE",
"268 526 CURVE SMOOTH",
"172 526 OFFCURVE",
"88 447 OFFCURVE",
"88 336 CURVE SMOOTH",
"88 291 OFFCURVE",
"100 248 OFFCURVE",
"124 209 CURVE SMOOTH",
"171 130 OFFCURVE",
"249 79 OFFCURVE",
"347 39 CURVE SMOOTH",
"445 -2 OFFCURVE",
"544 -22 OFFCURVE",
"639 -27 CURVE",
"639 -193 LINE"
);
},
{
closed = 1;
nodes = (
"735 608 LINE",
"968 547 OFFCURVE",
"1067 491 OFFCURVE",
"1067 362 CURVE SMOOTH",
"1067 214 OFFCURVE",
"929 121 OFFCURVE",
"741 109 CURVE",
"735 109 LINE"
);
},
{
closed = 1;
nodes = (
"582 883 OFFCURVE",
"534 898 OFFCURVE",
"494 914 CURVE SMOOTH",
"413 945 OFFCURVE",
"372 973 OFFCURVE",
"346 1012 CURVE SMOOTH",
"320 1051 OFFCURVE",
"315 1081 OFFCURVE",
"315 1126 CURVE SMOOTH",
"315 1269 OFFCURVE",
"458 1365 OFFCURVE",
"639 1380 CURVE",
"639 870 LINE"
);
}
);
width = 1394;
}
);
note = dollar;
unicode = 0024;
},
{
glyphname = florin;
lastChange = "2016-09-02 12:46:05 +0000";
layers = (
{
layerId = "EE746D13-63D7-48F9-B77E-C723CA6A668B";
paths = (
{
closed = 1;
nodes = (
"122 -389 OFFCURVE",
"218 -350 OFFCURVE",
"282 -262 CURVE SMOOTH",
"346 -174 OFFCURVE",
"381 -60 OFFCURVE",
"402 116 CURVE SMOOTH",
"505 956 LINE",
"818 956 LINE",
"840 1073 LINE",
"513 1073 LINE",
"532 1223 LINE SMOOTH",
"557 1422 OFFCURVE",
"593 1499 OFFCURVE",
"704 1499 CURVE SMOOTH",
"729 1499 OFFCURVE",
"752 1496 OFFCURVE",
"773 1489 CURVE",
"734 1446 OFFCURVE",
"715 1405 OFFCURVE",
"715 1364 CURVE SMOOTH",
"715 1296 OFFCURVE",
"768 1246 OFFCURVE",
"835 1246 CURVE SMOOTH",
"928 1246 OFFCURVE",
"1004 1299 OFFCURVE",
"1004 1411 CURVE SMOOTH",
"1004 1511 OFFCURVE",
"903 1583 OFFCURVE",
"727 1583 CURVE SMOOTH",
"586 1583 OFFCURVE",
"489 1545 OFFCURVE",
"425 1457 CURVE SMOOTH",
"360 1368 OFFCURVE",
"325 1253 OFFCURVE",
"304 1073 CURVE",
"109 1073 LINE",
"95 956 LINE",
"290 956 LINE",
"167 -49 LINE SMOOTH",
"144 -230 OFFCURVE",
"82 -305 OFFCURVE",
"-37 -305 CURVE SMOOTH",
"-60 -305 OFFCURVE",
"-83 -301 OFFCURVE",
"-105 -292 CURVE",
"-49 -246 OFFCURVE",
"-21 -195 OFFCURVE",
"-21 -140 CURVE SMOOTH",
"-21 -73 OFFCURVE",
"-77 -30 OFFCURVE",
"-145 -30 CURVE SMOOTH",
"-238 -30 OFFCURVE",
"-315 -90 OFFCURVE",
"-315 -203 CURVE SMOOTH",
"-315 -308 OFFCURVE",
"-218 -389 OFFCURVE",
"-17 -389 CURVE SMOOTH"
);
}
);
width = 786;
}
);
note = florin;
unicode = 0192;
},
{
glyphname = sterling;
lastChange = "2016-09-02 12:46:05 +0000";
layers = (
{
layerId = "EE746D13-63D7-48F9-B77E-C723CA6A668B";
paths = (
{
closed = 1;
nodes = (
"1110 0 LINE",
"1110 496 LINE",
"924 496 LINE",
"924 117 LINE",
"344 117 LINE",
"457 249 OFFCURVE",
"549 465 OFFCURVE",
"549 662 CURVE",
"821 659 LINE",
"848 780 LINE",
"535 780 LINE",
"524 827 OFFCURVE",
"508 874 OFFCURVE",
"485 923 CURVE SMOOTH",
"439 1020 OFFCURVE",
"402 1095 OFFCURVE",
"402 1182 CURVE SMOOTH",
"402 1327 OFFCURVE",
"515 1424 OFFCURVE",
"682 1424 CURVE SMOOTH",
"767 1424 OFFCURVE",
"837 1395 OFFCURVE",
"893 1336 CURVE",
"841 1327 OFFCURVE",
"770 1260 OFFCURVE",
"770 1188 CURVE SMOOTH",
"770 1103 OFFCURVE",
"849 1047 OFFCURVE",
"938 1047 CURVE SMOOTH",
"1041 1047 OFFCURVE",
"1108 1124 OFFCURVE",
"1108 1229 CURVE SMOOTH",
"1108 1413 OFFCURVE",
"914 1536 OFFCURVE",
"674 1536 CURVE SMOOTH",
"371 1536 OFFCURVE",
"166 1391 OFFCURVE",
"166 1182 CURVE SMOOTH",
"166 1098 OFFCURVE",
"202 1026 OFFCURVE",
"248 929 CURVE SMOOTH",
"271 880 OFFCURVE",
"288 831 OFFCURVE",
"299 780 CURVE",
"164 780 LINE",
"141 659 LINE",
"313 659 LINE",
"313 456 OFFCURVE",
"225 272 OFFCURVE",
"106 135 CURVE",
"170 0 LINE"
);
}
);
width = 1234;
}
);
note = sterling;
unicode = 00A3;
},
{
glyphname = yen;
lastChange = "2016-09-02 12:46:05 +0000";
layers = (
{
layerId = "EE746D13-63D7-48F9-B77E-C723CA6A668B";
paths = (
{
closed = 1;
nodes = (
"1124 0 LINE",
"1124 137 LINE",
"895 137 LINE",
"895 397 LINE",
"1143 397 LINE",
"1143 528 LINE",
"895 528 LINE",
"895 590 LINE",
"903 603 LINE",
"950 603 LINE SMOOTH",
"1079 603 OFFCURVE",
"1143 603 OFFCURVE",
"1143 604 CURVE SMOOTH",
"1143 735 LINE",
"979 735 LINE",
"1343 1362 LINE",
"1532 1362 LINE",
"1532 1505 LINE",
"926 1505 LINE",
"926 1362 LINE",
"1149 1362 LINE",
"801 741 LINE",
"463 1362 LINE",
"692 1362 LINE",
"692 1505 LINE",
"23 1505 LINE",
"23 1362 LINE",
"227 1362 LINE",
"580 735 LINE",
"397 735 LINE",
"397 604 LINE",
"568 603 OFFCURVE",
"654 603 OFFCURVE",
"654 603 CURVE",
"659 595 LINE",
"659 528 LINE",
"397 528 LINE",
"397 397 LINE",
"659 397 LINE",
"659 137 LINE",
"416 137 LINE",
"416 0 LINE"
);
}
);
width = 1601;
}
);
note = yen;
unicode = 00A5;
},
{
glyphname = plus;
lastChange = "2016-09-02 12:46:05 +0000";
layers = (
{
layerId = "EE746D13-63D7-48F9-B77E-C723CA6A668B";
paths = (
{
closed = 1;
nodes = (
"650 156 LINE",
"650 532 LINE",
"982 532 LINE",
"982 680 LINE",
"650 680 LINE",
"650 1047 LINE",
"480 1047 LINE",
"480 680 LINE",
"148 680 LINE",
"148 532 LINE",
"480 532 LINE",
"480 156 LINE"
);
}
);
width = 1131;
}
);
note = plus;
unicode = 002B;
},
{
glyphname = minus;
lastChange = "2016-09-02 12:46:05 +0000";
layers = (
{
layerId = "EE746D13-63D7-48F9-B77E-C723CA6A668B";
paths = (
{
closed = 1;
nodes = (
"735 547 LINE",
"735 711 LINE",
"153 711 LINE",
"153 547 LINE"
);
}
);
width = 889;
}
);
note = minus;
unicode = 2212;
},
{
glyphname = multiply;
lastChange = "2016-09-02 12:46:05 +0000";
layers = (
{
layerId = "EE746D13-63D7-48F9-B77E-C723CA6A668B";
paths = (
{
closed = 1;
nodes = (
"842 301 LINE",
"577 565 LINE",
"842 829 LINE",
"739 930 LINE",
"476 666 LINE",
"209 932 LINE",
"109 829 LINE",
"373 564 LINE",
"109 299 LINE",
"211 199 LINE",
"475 462 LINE",
"739 197 LINE"
);
}
);
width = 956;
}
);
note = multiply;
unicode = 00D7;
},
{
glyphname = divide;
lastChange = "2016-09-02 12:46:05 +0000";
layers = (
{
layerId = "EE746D13-63D7-48F9-B77E-C723CA6A668B";
paths = (
{
closed = 1;
nodes = (
"788 528 LINE",
"788 684 LINE",
"125 684 LINE",
"125 528 LINE"
);
},
{
closed = 1;
nodes = (
"538 139 OFFCURVE",
"598 199 OFFCURVE",
"598 268 CURVE SMOOTH",
"598 340 OFFCURVE",
"538 399 OFFCURVE",
"467 399 CURVE SMOOTH",
"395 399 OFFCURVE",
"338 340 OFFCURVE",
"338 268 CURVE SMOOTH",
"338 197 OFFCURVE",
"395 139 OFFCURVE",
"467 139 CURVE SMOOTH"
);
},
{
closed = 1;
nodes = (
"538 813 OFFCURVE",
"598 873 OFFCURVE",
"598 942 CURVE SMOOTH",
"598 1014 OFFCURVE",
"538 1073 OFFCURVE",
"467 1073 CURVE SMOOTH",
"395 1073 OFFCURVE",
"338 1014 OFFCURVE",
"338 942 CURVE SMOOTH",
"338 871 OFFCURVE",
"395 813 OFFCURVE",
"467 813 CURVE SMOOTH"
);
}
);
width = 913;
}
);
note = divide;
unicode = 00F7;
},
{
glyphname = equal;
lastChange = "2016-09-02 12:46:03 +0000";
layers = (
{
layerId = "EE746D13-63D7-48F9-B77E-C723CA6A668B";
paths = (
{
closed = 1;
nodes = (
"851 358 LINE",
"851 496 LINE",
"153 496 LINE",
"153 358 LINE"
);
},
{
closed = 1;
nodes = (
"851 723 LINE",
"851 860 LINE",
"153 860 LINE",
"153 723 LINE"
);
}
);
width = 1005;
}
);
note = equal;
unicode = 003D;
},
{
glyphname = notequal;
lastChange = "2016-09-02 12:46:05 +0000";
layers = (
{
layerId = "EE746D13-63D7-48F9-B77E-C723CA6A668B";
paths = (
{
closed = 1;
nodes = (
"423 368 LINE",
"953 368 LINE",
"953 506 LINE",
"522 506 LINE",
"685 733 LINE",
"953 733 LINE",
"953 870 LINE",
"784 870 LINE",
"969 1127 LINE",
"869 1187 LINE",
"641 870 LINE",
"155 870 LINE",
"155 733 LINE",
"542 733 LINE",
"379 506 LINE",
"155 506 LINE",
"155 368 LINE",
"280 368 LINE",
"93 108 LINE",
"193 49 LINE"
);
}
);
width = 1074;
}
);
note = notequal;
unicode = 2260;
},
{
glyphname = greater;
lastChange = "2016-09-02 12:46:05 +0000";
layers = (
{
layerId = "EE746D13-63D7-48F9-B77E-C723CA6A668B";
paths = (
{
closed = 1;
nodes = (
"874 604 LINE",
"874 801 LINE",
"73 1155 LINE",
"73 989 LINE",
"718 711 LINE",
"73 449 LINE",
"73 279 LINE"
);
}
);
width = 943;
}
);
note = greater;
unicode = 003E;
},
{
glyphname = less;
lastChange = "2016-09-02 12:46:05 +0000";
layers = (
{
layerId = "EE746D13-63D7-48F9-B77E-C723CA6A668B";
paths = (
{
closed = 1;
nodes = (
"871 449 LINE",
"226 711 LINE",
"871 989 LINE",
"871 1155 LINE",
"70 801 LINE",
"70 604 LINE",
"871 279 LINE"
);
}
);
width = 943;
}
);
note = less;
unicode = 003C;
},
{
glyphname = greaterequal;
lastChange = "2016-09-02 12:46:05 +0000";
layers = (
{
layerId = "EE746D13-63D7-48F9-B77E-C723CA6A668B";
paths = (
{
closed = 1;
nodes = (
"949 604 LINE",
"949 801 LINE",
"148 1155 LINE",
"148 989 LINE",
"792 711 LINE",
"148 449 LINE",
"148 279 LINE"
);
},
{
closed = 1;
nodes = (
"949 70 LINE",
"949 208 LINE",
"148 208 LINE",
"148 70 LINE"
);
}
);
width = 1093;
}
);
note = greaterequal;
unicode = 2265;
},
{
glyphname = lessequal;
lastChange = "2016-09-02 12:46:05 +0000";
layers = (
{
layerId = "EE746D13-63D7-48F9-B77E-C723CA6A668B";
paths = (
{
closed = 1;
nodes = (
"946 449 LINE",
"302 711 LINE",
"946 989 LINE",
"946 1155 LINE",
"145 801 LINE",
"145 604 LINE",
"946 279 LINE"
);
},
{
closed = 1;
nodes = (
"946 70 LINE",
"946 208 LINE",
"145 208 LINE",
"145 70 LINE"
);
}
);
width = 1093;
}
);
note = lessequal;
unicode = 2264;
},
{
glyphname = plusminus;
lastChange = "2016-09-02 12:46:05 +0000";
layers = (
{
layerId = "EE746D13-63D7-48F9-B77E-C723CA6A668B";
paths = (
{
closed = 1;
nodes = (
"563 326 LINE",
"563 621 LINE",
"854 621 LINE",
"854 768 LINE",
"563 768 LINE",
"563 1053 LINE",
"393 1053 LINE",
"393 768 LINE",
"102 768 LINE",
"102 621 LINE",
"393 621 LINE",
"393 326 LINE"
);
},
{
closed = 1;
nodes = (
"854 0 LINE",
"854 147 LINE",
"102 147 LINE",
"102 0 LINE"
);
}
);
width = 956;
}
);
note = plusminus;
unicode = 00B1;
},
{
glyphname = approxequal;
lastChange = "2016-09-02 12:46:05 +0000";
layers = (
{
layerId = "EE746D13-63D7-48F9-B77E-C723CA6A668B";
paths = (
{
closed = 1;
nodes = (
"258 752 LINE",
"258 856 OFFCURVE",
"272 887 OFFCURVE",
"360 887 CURVE SMOOTH",
"382 887 OFFCURVE",
"423 876 OFFCURVE",
"483 854 CURVE SMOOTH",
"602 809 OFFCURVE",
"757 752 OFFCURVE",
"846 752 CURVE SMOOTH",
"938 752 OFFCURVE",
"995 768 OFFCURVE",
"1040 816 CURVE SMOOTH",
"1084 863 OFFCURVE",
"1104 944 OFFCURVE",
"1104 1071 CURVE",
"979 1071 LINE",
"979 966 OFFCURVE",
"964 928 OFFCURVE",
"876 928 CURVE SMOOTH",
"853 928 OFFCURVE",
"812 940 OFFCURVE",
"752 964 CURVE SMOOTH",
"632 1012 OFFCURVE",
"478 1073 OFFCURVE",
"391 1073 CURVE SMOOTH",
"299 1073 OFFCURVE",
"241 1056 OFFCURVE",
"197 1008 CURVE SMOOTH",
"152 960 OFFCURVE",
"133 879 OFFCURVE",
"133 752 CURVE"
);
},
{
closed = 1;
nodes = (
"258 344 LINE",
"258 447 OFFCURVE",
"272 478 OFFCURVE",
"360 478 CURVE SMOOTH",
"382 478 OFFCURVE",
"423 467 OFFCURVE",
"483 445 CURVE SMOOTH",
"602 400 OFFCURVE",
"757 344 OFFCURVE",
"846 344 CURVE SMOOTH",
"907 344 OFFCURVE",
"956 353 OFFCURVE",
"992 370 CURVE SMOOTH",
"1063 404 OFFCURVE",
"1104 494 OFFCURVE",
"1104 662 CURVE",
"979 662 LINE",
"979 557 OFFCURVE",
"964 520 OFFCURVE",
"876 520 CURVE SMOOTH",
"853 520 OFFCURVE",
"812 532 OFFCURVE",
"752 556 CURVE SMOOTH",
"632 604 OFFCURVE",
"478 664 OFFCURVE",
"391 664 CURVE SMOOTH",
"330 664 OFFCURVE",
"281 655 OFFCURVE",
"245 638 CURVE SMOOTH",
"173 602 OFFCURVE",
"133 511 OFFCURVE",
"133 344 CURVE"
);
}
);
width = 1235;
}
);
note = approxequal;
unicode = 2248;
},
{
glyphname = asciitilde;
lastChange = "2016-09-02 12:46:05 +0000";
layers = (
{
layerId = "EE746D13-63D7-48F9-B77E-C723CA6A668B";
paths = (
{
closed = 1;
nodes = (
"170 752 LINE",
"170 856 OFFCURVE",
"184 887 OFFCURVE",
"272 887 CURVE SMOOTH",
"294 887 OFFCURVE",
"335 876 OFFCURVE",
"395 854 CURVE SMOOTH",
"514 809 OFFCURVE",
"669 752 OFFCURVE",
"758 752 CURVE SMOOTH",
"850 752 OFFCURVE",
"907 768 OFFCURVE",
"952 816 CURVE SMOOTH",
"996 863 OFFCURVE",
"1016 944 OFFCURVE",
"1016 1071 CURVE",
"891 1071 LINE",
"891 966 OFFCURVE",
"876 928 OFFCURVE",
"788 928 CURVE SMOOTH",
"765 928 OFFCURVE",
"724 940 OFFCURVE",
"664 964 CURVE SMOOTH",
"544 1012 OFFCURVE",
"390 1073 OFFCURVE",
"303 1073 CURVE SMOOTH",
"211 1073 OFFCURVE",
"153 1056 OFFCURVE",
"109 1008 CURVE SMOOTH",
"64 960 OFFCURVE",
"45 879 OFFCURVE",
"45 752 CURVE"
);
}
);
width = 1060;
}
);
note = asciitilde;
unicode = 007E;
},
{
glyphname = logicalnot;
lastChange = "2016-09-02 12:46:05 +0000";
layers = (
{
layerId = "EE746D13-63D7-48F9-B77E-C723CA6A668B";
paths = (
{
closed = 1;
nodes = (
"984 289 LINE",
"984 797 LINE",
"150 797 LINE",
"150 649 LINE",
"814 649 LINE",
"814 289 LINE"
);
}
);
width = 1136;
}
);
note = logicalnot;
unicode = 00AC;
},
{
glyphname = infinity;
lastChange = "2016-09-02 12:46:05 +0000";
layers = (
{
layerId = "EE746D13-63D7-48F9-B77E-C723CA6A668B";
paths = (
{
closed = 1;
nodes = (
"637 200 OFFCURVE",
"749 293 OFFCURVE",
"853 446 CURVE",
"906 374 OFFCURVE",
"948 327 OFFCURVE",
"1010 279 CURVE SMOOTH",
"1072 231 OFFCURVE",
"1143 206 OFFCURVE",
"1226 206 CURVE SMOOTH",
"1270 206 OFFCURVE",
"1310 216 OFFCURVE",
"1346 235 CURVE SMOOTH",
"1417 273 OFFCURVE",
"1458 331 OFFCURVE",
"1487 404 CURVE SMOOTH",
"1516 476 OFFCURVE",
"1527 542 OFFCURVE",
"1527 601 CURVE SMOOTH",
"1527 696 OFFCURVE",
"1508 779 OFFCURVE",
"1462 856 CURVE SMOOTH",
"1416 933 OFFCURVE",
"1328 983 OFFCURVE",
"1211 983 CURVE SMOOTH",
"1051 983 OFFCURVE",
"926 891 OFFCURVE",
"811 742 CURVE",
"710 880 OFFCURVE",
"590 949 OFFCURVE",
"449 949 CURVE SMOOTH",
"403 949 OFFCURVE",
"362 941 OFFCURVE",
"326 926 CURVE SMOOTH",
"254 895 OFFCURVE",
"212 846 OFFCURVE",
"183 778 CURVE SMOOTH",
"154 709 OFFCURVE",
"144 642 OFFCURVE",
"144 566 CURVE SMOOTH",
"144 536 OFFCURVE",
"147 506 OFFCURVE",
"154 475 CURVE SMOOTH",
"166 413 OFFCURVE",
"199 340 OFFCURVE",
"247 289 CURVE SMOOTH",
"295 237 OFFCURVE",
"376 200 OFFCURVE",
"473 200 CURVE SMOOTH"
);
},
{
closed = 1;
nodes = (
"320 366 OFFCURVE",
"254 457 OFFCURVE",
"251 572 CURVE",
"251 577 LINE SMOOTH",
"251 637 OFFCURVE",
"263 688 OFFCURVE",
"292 733 CURVE SMOOTH",
"320 777 OFFCURVE",
"373 805 OFFCURVE",
"445 805 CURVE SMOOTH",
"541 805 OFFCURVE",
"635 745 OFFCURVE",
"728 626 CURVE",
"616 458 OFFCURVE",
"532 366 OFFCURVE",
"436 366 CURVE SMOOTH"
);
},
{
closed = 1;
nodes = (
"1092 361 OFFCURVE",
"1010 431 OFFCURVE",
"926 558 CURVE",
"929 562 OFFCURVE",
"937 574 OFFCURVE",
"950 595 CURVE SMOOTH",
"978 638 LINE SMOOTH",
"989 654 OFFCURVE",
"1024 703 OFFCURVE",
"1044 722 CURVE SMOOTH",
"1063 741 OFFCURVE",
"1100 776 OFFCURVE",
"1128 790 CURVE SMOOTH",
"1156 804 OFFCURVE",
"1195 816 OFFCURVE",
"1232 816 CURVE SMOOTH",
"1299 816 OFFCURVE",
"1350 786 OFFCURVE",
"1378 739 CURVE SMOOTH",
"1406 692 OFFCURVE",
"1419 642 OFFCURVE",
"1420 589 CURVE SMOOTH",
"1420 584 LINE SMOOTH",
"1420 453 OFFCURVE",
"1352 361 OFFCURVE",
"1223 361 CURVE SMOOTH"
);
}
);
width = 1671;
}
);
note = infinity;
unicode = 221E;
},
{
glyphname = integral;
lastChange = "2016-09-02 12:46:05 +0000";
layers = (
{
layerId = "EE746D13-63D7-48F9-B77E-C723CA6A668B";
paths = (
{
closed = 1;
nodes = (
"475 -389 OFFCURVE",
"571 -350 OFFCURVE",
"635 -262 CURVE SMOOTH",
"699 -174 OFFCURVE",
"734 -60 OFFCURVE",
"755 116 CURVE SMOOTH",
"858 956 LINE SMOOTH",
"861 977 OFFCURVE",
"864 1007 OFFCURVE",
"867 1046 CURVE SMOOTH",
"873 1122 OFFCURVE",
"878 1174 OFFCURVE",
"887 1249 CURVE SMOOTH",
"896 1324 OFFCURVE",
"913 1375 OFFCURVE",
"935 1424 CURVE SMOOTH",
"957 1473 OFFCURVE",
"993 1499 OFFCURVE",
"1037 1499 CURVE SMOOTH",
"1062 1499 OFFCURVE",
"1085 1496 OFFCURVE",
"1106 1489 CURVE",
"1067 1446 OFFCURVE",
"1048 1405 OFFCURVE",
"1048 1364 CURVE SMOOTH",
"1048 1296 OFFCURVE",
"1101 1246 OFFCURVE",
"1168 1246 CURVE SMOOTH",
"1261 1246 OFFCURVE",
"1337 1299 OFFCURVE",
"1337 1411 CURVE SMOOTH",
"1337 1511 OFFCURVE",
"1236 1583 OFFCURVE",
"1060 1583 CURVE SMOOTH",
"927 1583 OFFCURVE",
"836 1545 OFFCURVE",
"774 1457 CURVE SMOOTH",
"712 1368 OFFCURVE",
"679 1253 OFFCURVE",
"658 1073 CURVE SMOOTH",
"520 -49 LINE SMOOTH",
"497 -230 OFFCURVE",
"445 -305 OFFCURVE",
"346 -305 CURVE SMOOTH",
"323 -305 OFFCURVE",
"300 -301 OFFCURVE",
"278 -292 CURVE",
"334 -246 OFFCURVE",
"362 -195 OFFCURVE",
"362 -140 CURVE SMOOTH",
"362 -73 OFFCURVE",
"306 -30 OFFCURVE",
"238 -30 CURVE SMOOTH",
"145 -30 OFFCURVE",
"68 -90 OFFCURVE",
"68 -205 CURVE SMOOTH",
"68 -309 OFFCURVE",
"155 -389 OFFCURVE",
"336 -389 CURVE SMOOTH"
);
}
);
width = 1404;
}
);
note = integral;
unicode = 222B;
},
{
glyphname = Delta;
lastChange = "2016-09-02 12:46:03 +0000";
layers = (
{
layerId = "EE746D13-63D7-48F9-B77E-C723CA6A668B";
paths = (
{
closed = 1;
nodes = (
"1049 188 LINE",
"693 1249 LINE",
"497 1249 LINE",
"122 188 LINE"
);
},
{
closed = 1;
nodes = (
"586 1131 LINE",
"849 312 LINE",
"308 312 LINE"
);
}
);
width = 1172;
}
);
note = Delta;
unicode = 2206;
},
{
glyphname = percent;
lastChange = "2016-09-02 12:46:05 +0000";
layers = (
{
layerId = "EE746D13-63D7-48F9-B77E-C723CA6A668B";
paths = (
{
closed = 1;
nodes = (
"1479 1419 LINE",
"1379 1479 LINE",
"314 -2 LINE",
"414 -61 LINE"
);
},
{
closed = 1;
nodes = (
"579 778 OFFCURVE",
"681 823 OFFCURVE",
"742 893 CURVE SMOOTH",
"803 963 OFFCURVE",
"836 1050 OFFCURVE",
"836 1143 CURVE SMOOTH",
"836 1236 OFFCURVE",
"803 1326 OFFCURVE",
"741 1396 CURVE SMOOTH",
"679 1466 OFFCURVE",
"576 1511 OFFCURVE",
"453 1511 CURVE SMOOTH",
"330 1511 OFFCURVE",
"228 1465 OFFCURVE",
"166 1396 CURVE SMOOTH",
"104 1327 OFFCURVE",
"70 1238 OFFCURVE",
"70 1145 CURVE SMOOTH",
"70 1050 OFFCURVE",
"104 963 OFFCURVE",
"165 893 CURVE SMOOTH",
"226 823 OFFCURVE",
"331 778 OFFCURVE",
"455 778 CURVE SMOOTH"
);
},
{
closed = 1;
nodes = (
"316 872 OFFCURVE",
"226 1008 OFFCURVE",
"226 1157 CURVE SMOOTH",
"226 1304 OFFCURVE",
"308 1421 OFFCURVE",
"453 1421 CURVE SMOOTH",
"598 1421 OFFCURVE",
"681 1302 OFFCURVE",
"681 1155 CURVE SMOOTH",
"681 1006 OFFCURVE",
"592 872 OFFCURVE",
"455 872 CURVE SMOOTH"
);
},
{
closed = 1;
nodes = (
"1454 -37 OFFCURVE",
"1556 8 OFFCURVE",
"1617 78 CURVE SMOOTH",
"1678 148 OFFCURVE",
"1711 235 OFFCURVE",
"1711 328 CURVE SMOOTH",
"1711 421 OFFCURVE",
"1678 511 OFFCURVE",
"1616 581 CURVE SMOOTH",
"1554 651 OFFCURVE",
"1451 696 OFFCURVE",
"1328 696 CURVE SMOOTH",
"1205 696 OFFCURVE",
"1103 650 OFFCURVE",
"1041 581 CURVE SMOOTH",
"979 512 OFFCURVE",
"945 423 OFFCURVE",
"945 330 CURVE SMOOTH",
"945 235 OFFCURVE",
"979 148 OFFCURVE",
"1040 78 CURVE SMOOTH",
"1101 8 OFFCURVE",
"1206 -37 OFFCURVE",
"1330 -37 CURVE SMOOTH"
);
},
{
closed = 1;
nodes = (
"1191 57 OFFCURVE",
"1100 193 OFFCURVE",
"1100 342 CURVE SMOOTH",
"1100 487 OFFCURVE",
"1183 606 OFFCURVE",
"1328 606 CURVE SMOOTH",
"1473 606 OFFCURVE",
"1555 487 OFFCURVE",
"1555 340 CURVE SMOOTH",
"1555 191 OFFCURVE",
"1467 57 OFFCURVE",
"1330 57 CURVE SMOOTH"
);
}
);
width = 1779;
}
);
note = percent;
unicode = 0025;
},
{
glyphname = perthousand;
lastChange = "2016-09-02 12:46:05 +0000";
layers = (
{
layerId = "EE746D13-63D7-48F9-B77E-C723CA6A668B";
paths = (
{
closed = 1;
nodes = (
"1479 1419 LINE",
"1379 1479 LINE",
"314 -2 LINE",
"414 -61 LINE"
);
},
{
closed = 1;
nodes = (
"579 778 OFFCURVE",
"681 823 OFFCURVE",
"742 893 CURVE SMOOTH",
"803 963 OFFCURVE",
"836 1050 OFFCURVE",
"836 1143 CURVE SMOOTH",
"836 1236 OFFCURVE",
"803 1326 OFFCURVE",
"741 1396 CURVE SMOOTH",
"679 1466 OFFCURVE",
"576 1511 OFFCURVE",
"453 1511 CURVE SMOOTH",
"330 1511 OFFCURVE",
"228 1465 OFFCURVE",
"166 1396 CURVE SMOOTH",
"104 1327 OFFCURVE",
"70 1238 OFFCURVE",
"70 1145 CURVE SMOOTH",
"70 1050 OFFCURVE",
"104 963 OFFCURVE",
"165 893 CURVE SMOOTH",
"226 823 OFFCURVE",
"331 778 OFFCURVE",
"455 778 CURVE SMOOTH"
);
},
{
closed = 1;
nodes = (
"316 872 OFFCURVE",
"226 1008 OFFCURVE",
"226 1157 CURVE SMOOTH",
"226 1304 OFFCURVE",
"308 1421 OFFCURVE",
"453 1421 CURVE SMOOTH",
"598 1421 OFFCURVE",
"681 1302 OFFCURVE",
"681 1155 CURVE SMOOTH",
"681 1006 OFFCURVE",
"592 872 OFFCURVE",
"455 872 CURVE SMOOTH"
);
},
{
closed = 1;
nodes = (
"1454 -37 OFFCURVE",
"1556 8 OFFCURVE",
"1617 78 CURVE SMOOTH",
"1678 148 OFFCURVE",
"1711 235 OFFCURVE",
"1711 328 CURVE SMOOTH",
"1711 421 OFFCURVE",
"1678 511 OFFCURVE",
"1616 581 CURVE SMOOTH",
"1554 651 OFFCURVE",
"1451 696 OFFCURVE",
"1328 696 CURVE SMOOTH",
"1205 696 OFFCURVE",
"1103 650 OFFCURVE",
"1041 581 CURVE SMOOTH",
"979 512 OFFCURVE",
"945 423 OFFCURVE",
"945 330 CURVE SMOOTH",
"945 235 OFFCURVE",
"979 148 OFFCURVE",
"1040 78 CURVE SMOOTH",
"1101 8 OFFCURVE",
"1206 -37 OFFCURVE",
"1330 -37 CURVE SMOOTH"
);
},
{
closed = 1;
nodes = (
"1191 57 OFFCURVE",
"1100 193 OFFCURVE",
"1100 342 CURVE SMOOTH",
"1100 487 OFFCURVE",
"1183 606 OFFCURVE",
"1328 606 CURVE SMOOTH",
"1473 606 OFFCURVE",
"1555 487 OFFCURVE",
"1555 340 CURVE SMOOTH",
"1555 191 OFFCURVE",
"1467 57 OFFCURVE",
"1330 57 CURVE SMOOTH"
);
}
);
width = 1779;
}
);
note = perthousand;
unicode = 2030;
},
{
glyphname = lozenge;
lastChange = "2016-09-02 12:46:05 +0000";
layers = (
{
layerId = "EE746D13-63D7-48F9-B77E-C723CA6A668B";
paths = (
{
closed = 1;
nodes = (
"625 125 LINE",
"960 705 LINE",
"654 1286 LINE",
"458 1286 LINE",
"123 705 LINE",
"429 125 LINE"
);
},
{
closed = 1;
nodes = (
"289 705 LINE",
"548 1165 LINE",
"794 705 LINE",
"535 226 LINE"
);
}
);
width = 1085;
}
);
note = lozenge;
unicode = 25CA;
},
{
glyphname = at;
lastChange = "2016-09-02 12:46:05 +0000";
layers = (
{
layerId = "EE746D13-63D7-48F9-B77E-C723CA6A668B";
paths = (
{
closed = 1;
nodes = (
"989 -28 OFFCURVE",
"1215 37 OFFCURVE",
"1348 133 CURVE",
"1348 136 OFFCURVE",
"1327 164 OFFCURVE",
"1286 215 CURVE",
"1174 136 OFFCURVE",
"980 85 OFFCURVE",
"836 85 CURVE SMOOTH",
"619 85 OFFCURVE",
"443 155 OFFCURVE",
"340 267 CURVE SMOOTH",
"236 379 OFFCURVE",
"183 521 OFFCURVE",
"183 680 CURVE SMOOTH",
"183 751 OFFCURVE",
"193 822 OFFCURVE",
"214 893 CURVE SMOOTH",
"254 1034 OFFCURVE",
"338 1165 OFFCURVE",
"450 1262 CURVE SMOOTH",
"562 1359 OFFCURVE",
"722 1421 OFFCURVE",
"897 1421 CURVE SMOOTH",
"1006 1421 OFFCURVE",
"1104 1394 OFFCURVE",
"1193 1340 CURVE SMOOTH",
"1369 1231 OFFCURVE",
"1471 1037 OFFCURVE",
"1471 817 CURVE SMOOTH",
"1471 762 OFFCURVE",
"1465 710 OFFCURVE",
"1454 663 CURVE SMOOTH",
"1430 567 OFFCURVE",
"1393 507 OFFCURVE",
"1350 462 CURVE SMOOTH",
"1306 417 OFFCURVE",
"1265 397 OFFCURVE",
"1233 397 CURVE SMOOTH",
"1177 397 OFFCURVE",
"1149 437 OFFCURVE",
"1149 518 CURVE SMOOTH",
"1149 549 OFFCURVE",
"1188 771 OFFCURVE",
"1266 1183 CURVE",
"1106 1183 LINE",
"1101 1166 OFFCURVE",
"1089 1133 OFFCURVE",
"1071 1083 CURVE",
"1033 1120 LINE SMOOTH",
"982 1171 OFFCURVE",
"902 1232 OFFCURVE",
"870 1232 CURVE SMOOTH",
"742 1232 OFFCURVE",
"613 1148 OFFCURVE",
"526 1032 CURVE SMOOTH",
"438 915 OFFCURVE",
"381 763 OFFCURVE",
"381 628 CURVE SMOOTH",
"381 521 OFFCURVE",
"415 438 OFFCURVE",
"467 392 CURVE SMOOTH",
"519 346 OFFCURVE",
"579 323 OFFCURVE",
"643 323 CURVE SMOOTH",
"683 323 OFFCURVE",
"719 327 OFFCURVE",
"752 335 CURVE SMOOTH",
"816 351 OFFCURVE",
"859 375 OFFCURVE",
"897 419 CURVE SMOOTH",
"935 463 OFFCURVE",
"957 503 OFFCURVE",
"985 567 CURVE",
"994 390 OFFCURVE",
"1067 305 OFFCURVE",
"1208 305 CURVE SMOOTH",
"1335 305 OFFCURVE",
"1443 364 OFFCURVE",
"1509 459 CURVE SMOOTH",
"1575 554 OFFCURVE",
"1612 679 OFFCURVE",
"1612 815 CURVE SMOOTH",
"1612 884 OFFCURVE",
"1603 953 OFFCURVE",
"1585 1020 CURVE SMOOTH",
"1549 1155 OFFCURVE",
"1469 1285 OFFCURVE",
"1358 1380 CURVE SMOOTH",
"1247 1475 OFFCURVE",
"1081 1536 OFFCURVE",
"889 1536 CURVE SMOOTH",
"668 1536 OFFCURVE",
"450 1442 OFFCURVE",
"295 1295 CURVE SMOOTH",
"139 1148 OFFCURVE",
"37 933 OFFCURVE",
"37 706 CURVE SMOOTH",
"37 501 OFFCURVE",
"109 319 OFFCURVE",
"238 186 CURVE SMOOTH",
"367 53 OFFCURVE",
"573 -28 OFFCURVE",
"817 -28 CURVE SMOOTH"
);
},
{
closed = 1;
nodes = (
"636 442 OFFCURVE",
"557 511 OFFCURVE",
"557 651 CURVE SMOOTH",
"557 716 OFFCURVE",
"571 784 OFFCURVE",
"600 857 CURVE SMOOTH",
"656 1001 OFFCURVE",
"759 1116 OFFCURVE",
"858 1116 CURVE SMOOTH",
"885 1116 OFFCURVE",
"923 1093 OFFCURVE",
"950 1069 CURVE SMOOTH",
"977 1045 OFFCURVE",
"1011 1008 OFFCURVE",
"1021 996 CURVE",
"1026 989 OFFCURVE",
"1029 984 OFFCURVE",
"1032 981 CURVE",
"1031 977 OFFCURVE",
"1027 952 OFFCURVE",
"1020 906 CURVE SMOOTH",
"1012 859 OFFCURVE",
"1004 814 OFFCURVE",
"997 770 CURVE SMOOTH",
"985 702 LINE",
"960 593 OFFCURVE",
"824 442 OFFCURVE",
"709 442 CURVE SMOOTH"
);
}
);
width = 1642;
}
);
note = at;
unicode = 0040;
},
{
glyphname = ampersand;
lastChange = "2016-09-02 12:46:05 +0000";
layers = (
{
layerId = "EE746D13-63D7-48F9-B77E-C723CA6A668B";
paths = (
{
closed = 1;
nodes = (
"575 -27 OFFCURVE",
"608 -23 OFFCURVE",
"640 -16 CURVE SMOOTH",
"703 -1 OFFCURVE",
"738 12 OFFCURVE",
"793 50 CURVE SMOOTH",
"848 88 OFFCURVE",
"860 99 OFFCURVE",
"915 149 CURVE SMOOTH",
"942 174 OFFCURVE",
"961 190 OFFCURVE",
"971 199 CURVE",
"1083 47 OFFCURVE",
"1219 -27 OFFCURVE",
"1343 -27 CURVE SMOOTH",
"1464 -27 OFFCURVE",
"1546 12 OFFCURVE",
"1591 95 CURVE SMOOTH",
"1635 178 OFFCURVE",
"1651 279 OFFCURVE",
"1651 434 CURVE SMOOTH",
"1651 518 LINE",
"1520 518 LINE",
"1520 375 LINE SMOOTH",
"1520 274 OFFCURVE",
"1502 208 OFFCURVE",
"1470 177 CURVE SMOOTH",
"1437 145 OFFCURVE",
"1405 137 OFFCURVE",
"1356 137 CURVE SMOOTH",
"1284 137 OFFCURVE",
"1174 214 OFFCURVE",
"1106 334 CURVE",
"1548 862 LINE",
"1714 862 LINE",
"1714 958 LINE",
"1139 958 LINE",
"1139 862 LINE",
"1339 862 LINE",
"1014 465 LINE",
"797 782 LINE",
"900 851 OFFCURVE",
"968 907 OFFCURVE",
"1039 984 CURVE SMOOTH",
"1110 1060 OFFCURVE",
"1147 1146 OFFCURVE",
"1147 1237 CURVE SMOOTH",
"1147 1413 OFFCURVE",
"1010 1536 OFFCURVE",
"823 1536 CURVE SMOOTH",
"600 1536 OFFCURVE",
"432 1384 OFFCURVE",
"432 1167 CURVE SMOOTH",
"432 1095 OFFCURVE",
"480 961 OFFCURVE",
"549 848 CURVE",
"528 835 OFFCURVE",
"499 817 OFFCURVE",
"463 796 CURVE SMOOTH",
"391 753 OFFCURVE",
"356 733 OFFCURVE",
"296 691 CURVE SMOOTH",
"235 649 OFFCURVE",
"203 613 OFFCURVE",
"167 562 CURVE SMOOTH",
"131 510 OFFCURVE",
"115 450 OFFCURVE",
"115 379 CURVE SMOOTH",
"115 140 OFFCURVE",
"274 -27 OFFCURVE",
"541 -27 CURVE SMOOTH"
);
},
{
closed = 1;
nodes = (
"429 143 OFFCURVE",
"344 234 OFFCURVE",
"344 342 CURVE SMOOTH",
"344 418 OFFCURVE",
"348 452 OFFCURVE",
"393 506 CURVE SMOOTH",
"437 560 OFFCURVE",
"495 599 OFFCURVE",
"635 690 CURVE",
"874 334 LINE",
"739 206 OFFCURVE",
"650 143 OFFCURVE",
"565 143 CURVE SMOOTH"
);
},
{
closed = 1;
nodes = (
"661 1043 OFFCURVE",
"631 1130 OFFCURVE",
"631 1188 CURVE SMOOTH",
"631 1323 OFFCURVE",
"721 1396 OFFCURVE",
"840 1396 CURVE SMOOTH",
"923 1396 OFFCURVE",
"975 1324 OFFCURVE",
"975 1223 CURVE SMOOTH",
"975 1202 OFFCURVE",
"971 1181 OFFCURVE",
"963 1160 CURVE SMOOTH",
"947 1119 OFFCURVE",
"929 1092 OFFCURVE",
"890 1056 CURVE SMOOTH",
"850 1020 OFFCURVE",
"829 1005 OFFCURVE",
"779 969 CURVE SMOOTH",
"754 950 OFFCURVE",
"734 936 OFFCURVE",
"721 926 CURVE"
);
}
);
width = 1810;
}
);
note = ampersand;
unicode = 0026;
},
{
glyphname = paragraph;
lastChange = "2016-09-02 12:46:05 +0000";
layers = (
{
layerId = "EE746D13-63D7-48F9-B77E-C723CA6A668B";
paths = (
{
closed = 1;
nodes = (
"797 -57 LINE",
"797 735 LINE",
"942 735 LINE",
"942 -57 LINE",
"1106 -57 LINE",
"1106 1479 LINE",
"555 1479 LINE SMOOTH",
"424 1479 OFFCURVE",
"316 1433 OFFCURVE",
"250 1362 CURVE SMOOTH",
"184 1291 OFFCURVE",
"147 1201 OFFCURVE",
"147 1106 CURVE SMOOTH",
"147 1011 OFFCURVE",
"183 922 OFFCURVE",
"250 851 CURVE SMOOTH",
"317 780 OFFCURVE",
"429 735 OFFCURVE",
"565 735 CURVE SMOOTH",
"627 735 LINE",
"627 -57 LINE"
);
}
);
width = 1210;
}
);
note = paragraph;
unicode = 00B6;
},
{
glyphname = section;
lastChange = "2016-09-02 12:46:03 +0000";
layers = (
{
layerId = "EE746D13-63D7-48F9-B77E-C723CA6A668B";
paths = (
{
closed = 1;
nodes = (
"643 -8 OFFCURVE",
"699 -1 OFFCURVE",
"764 15 CURVE SMOOTH",
"829 31 OFFCURVE",
"886 62 OFFCURVE",
"933 103 CURVE SMOOTH",
"980 143 OFFCURVE",
"1008 206 OFFCURVE",
"1008 281 CURVE SMOOTH",
"1008 353 OFFCURVE",
"983 412 OFFCURVE",
"932 459 CURVE",
"1005 518 OFFCURVE",
"1041 597 OFFCURVE",
"1041 696 CURVE SMOOTH",
"1041 804 OFFCURVE",
"985 890 OFFCURVE",
"904 939 CURVE SMOOTH",
"823 987 OFFCURVE",
"720 1024 OFFCURVE",
"623 1052 CURVE SMOOTH",
"574 1065 OFFCURVE",
"530 1079 OFFCURVE",
"489 1094 CURVE SMOOTH",
"408 1123 OFFCURVE",
"352 1166 OFFCURVE",
"352 1225 CURVE SMOOTH",
"352 1333 OFFCURVE",
"457 1384 OFFCURVE",
"598 1384 CURVE SMOOTH",
"695 1384 OFFCURVE",
"792 1359 OFFCURVE",
"848 1319 CURVE",
"780 1312 OFFCURVE",
"742 1271 OFFCURVE",
"742 1202 CURVE SMOOTH",
"742 1126 OFFCURVE",
"804 1085 OFFCURVE",
"883 1085 CURVE SMOOTH",
"952 1085 OFFCURVE",
"1012 1148 OFFCURVE",
"1012 1235 CURVE SMOOTH",
"1012 1331 OFFCURVE",
"956 1402 OFFCURVE",
"868 1438 CURVE SMOOTH",
"779 1473 OFFCURVE",
"689 1487 OFFCURVE",
"586 1487 CURVE SMOOTH",
"531 1487 OFFCURVE",
"475 1480 OFFCURVE",
"410 1464 CURVE SMOOTH",
"345 1448 OFFCURVE",
"288 1417 OFFCURVE",
"241 1377 CURVE SMOOTH",
"194 1336 OFFCURVE",
"166 1273 OFFCURVE",
"166 1198 CURVE SMOOTH",
"166 1126 OFFCURVE",
"191 1067 OFFCURVE",
"242 1020 CURVE",
"169 961 OFFCURVE",
"133 882 OFFCURVE",
"133 782 CURVE SMOOTH",
"133 686 OFFCURVE",
"176 608 OFFCURVE",
"241 561 CURVE SMOOTH",
"305 514 OFFCURVE",
"390 473 OFFCURVE",
"477 450 CURVE SMOOTH",
"564 426 OFFCURVE",
"649 397 OFFCURVE",
"714 373 CURVE SMOOTH",
"778 348 OFFCURVE",
"821 306 OFFCURVE",
"821 254 CURVE SMOOTH",
"821 146 OFFCURVE",
"717 94 OFFCURVE",
"576 94 CURVE SMOOTH",
"480 94 OFFCURVE",
"383 119 OFFCURVE",
"326 160 CURVE",
"394 167 OFFCURVE",
"432 207 OFFCURVE",
"432 276 CURVE SMOOTH",
"432 352 OFFCURVE",
"370 393 OFFCURVE",
"291 393 CURVE SMOOTH",
"222 393 OFFCURVE",
"162 331 OFFCURVE",
"162 244 CURVE SMOOTH",
"162 148 OFFCURVE",
"218 77 OFFCURVE",
"307 42 CURVE SMOOTH",
"395 6 OFFCURVE",
"485 -8 OFFCURVE",
"588 -8 CURVE SMOOTH"
);
},
{
closed = 1;
nodes = (
"761 556 OFFCURVE",
"720 571 OFFCURVE",
"669 586 CURVE SMOOTH",
"568 616 OFFCURVE",
"504 634 OFFCURVE",
"433 667 CURVE SMOOTH",
"362 700 OFFCURVE",
"324 749 OFFCURVE",
"324 813 CURVE SMOOTH",
"324 865 OFFCURVE",
"343 906 OFFCURVE",
"381 936 CURVE",
"413 923 OFFCURVE",
"454 909 OFFCURVE",
"505 894 CURVE SMOOTH",
"606 864 OFFCURVE",
"670 845 OFFCURVE",
"741 812 CURVE SMOOTH",
"812 779 OFFCURVE",
"850 730 OFFCURVE",
"850 666 CURVE SMOOTH",
"850 613 OFFCURVE",
"831 572 OFFCURVE",
"793 543 CURVE"
);
}
);
width = 1171;
}
);
note = section;
unicode = 00A7;
},
{
glyphname = copyright;
lastChange = "2016-09-02 12:46:05 +0000";
layers = (
{
layerId = "EE746D13-63D7-48F9-B77E-C723CA6A668B";
paths = (
{
closed = 1;
nodes = (
"974 -27 OFFCURVE",
"1075 -6 OFFCURVE",
"1172 36 CURVE SMOOTH",
"1269 77 OFFCURVE",
"1352 133 OFFCURVE",
"1422 204 CURVE SMOOTH",
"1562 344 OFFCURVE",
"1652 547 OFFCURVE",
"1652 758 CURVE SMOOTH",
"1652 898 OFFCURVE",
"1617 1028 OFFCURVE",
"1547 1147 CURVE SMOOTH",
"1406 1386 OFFCURVE",
"1150 1536 OFFCURVE",
"869 1536 CURVE SMOOTH",
"658 1536 OFFCURVE",
"457 1447 OFFCURVE",
"317 1308 CURVE SMOOTH",
"176 1168 OFFCURVE",
"86 967 OFFCURVE",
"86 758 CURVE SMOOTH",
"86 547 OFFCURVE",
"176 344 OFFCURVE",
"317 204 CURVE SMOOTH",
"457 64 OFFCURVE",
"658 -27 OFFCURVE",
"869 -27 CURVE SMOOTH"
);
},
{
closed = 1;
nodes = (
"686 72 OFFCURVE",
"508 151 OFFCURVE",
"385 274 CURVE SMOOTH",
"261 397 OFFCURVE",
"182 575 OFFCURVE",
"182 760 CURVE SMOOTH",
"182 884 OFFCURVE",
"213 999 OFFCURVE",
"275 1104 CURVE SMOOTH",
"399 1315 OFFCURVE",
"623 1446 OFFCURVE",
"871 1446 CURVE SMOOTH",
"1058 1446 OFFCURVE",
"1235 1368 OFFCURVE",
"1359 1245 CURVE SMOOTH",
"1482 1122 OFFCURVE",
"1561 945 OFFCURVE",
"1561 760 CURVE SMOOTH",
"1561 575 OFFCURVE",
"1482 397 OFFCURVE",
"1359 274 CURVE SMOOTH",
"1235 151 OFFCURVE",
"1058 72 OFFCURVE",
"871 72 CURVE SMOOTH"
);
},
{
closed = 1;
nodes = (
"1077 333 OFFCURVE",
"1229 442 OFFCURVE",
"1270 614 CURVE",
"1190 654 LINE",
"1161 542 OFFCURVE",
"1056 439 OFFCURVE",
"921 439 CURVE SMOOTH",
"864 439 OFFCURVE",
"813 457 OFFCURVE",
"769 492 CURVE SMOOTH",
"681 563 OFFCURVE",
"640 672 OFFCURVE",
"640 787 CURVE SMOOTH",
"640 1010 OFFCURVE",
"749 1149 OFFCURVE",
"909 1149 CURVE SMOOTH",
"1008 1149 OFFCURVE",
"1082 1104 OFFCURVE",
"1122 1044 CURVE",
"1071 1044 OFFCURVE",
"1001 1003 OFFCURVE",
"1001 936 CURVE SMOOTH",
"1001 876 OFFCURVE",
"1053 831 OFFCURVE",
"1114 831 CURVE SMOOTH",
"1191 831 OFFCURVE",
"1243 893 OFFCURVE",
"1243 953 CURVE SMOOTH",
"1243 1008 OFFCURVE",
"1226 1058 OFFCURVE",
"1193 1101 CURVE SMOOTH",
"1125 1188 OFFCURVE",
"1019 1232 OFFCURVE",
"911 1232 CURVE SMOOTH",
"652 1232 OFFCURVE",
"472 1044 OFFCURVE",
"472 783 CURVE SMOOTH",
"472 532 OFFCURVE",
"658 333 OFFCURVE",
"901 333 CURVE SMOOTH"
);
}
);
width = 1703;
}
);
note = copyright;
unicode = 00A9;
},
{
glyphname = registered;
lastChange = "2016-09-02 12:46:05 +0000";
layers = (
{
layerId = "EE746D13-63D7-48F9-B77E-C723CA6A668B";
paths = (
{
closed = 1;
nodes = (
"1080 -27 OFFCURVE",
"1283 64 OFFCURVE",
"1423 204 CURVE SMOOTH",
"1563 344 OFFCURVE",
"1652 547 OFFCURVE",
"1652 758 CURVE SMOOTH",
"1652 967 OFFCURVE",
"1563 1168 OFFCURVE",
"1423 1308 CURVE SMOOTH",
"1283 1447 OFFCURVE",
"1081 1536 OFFCURVE",
"869 1536 CURVE SMOOTH",
"658 1536 OFFCURVE",
"456 1447 OFFCURVE",
"316 1308 CURVE SMOOTH",
"176 1168 OFFCURVE",
"86 967 OFFCURVE",
"86 758 CURVE SMOOTH",
"86 547 OFFCURVE",
"176 344 OFFCURVE",
"316 204 CURVE SMOOTH",
"456 64 OFFCURVE",
"658 -27 OFFCURVE",
"869 -27 CURVE SMOOTH"
);
},
{
closed = 1;
nodes = (
"686 72 OFFCURVE",
"508 151 OFFCURVE",
"384 274 CURVE SMOOTH",
"260 397 OFFCURVE",
"182 575 OFFCURVE",
"182 760 CURVE SMOOTH",
"182 945 OFFCURVE",
"260 1123 OFFCURVE",
"384 1246 CURVE SMOOTH",
"508 1369 OFFCURVE",
"686 1446 OFFCURVE",
"871 1446 CURVE SMOOTH",
"1058 1446 OFFCURVE",
"1236 1369 OFFCURVE",
"1359 1246 CURVE SMOOTH",
"1482 1123 OFFCURVE",
"1561 945 OFFCURVE",
"1561 760 CURVE SMOOTH",
"1561 575 OFFCURVE",
"1482 397 OFFCURVE",
"1359 274 CURVE SMOOTH",
"1236 151 OFFCURVE",
"1058 72 OFFCURVE",
"871 72 CURVE SMOOTH"
);
},
{
closed = 1;
nodes = (
"1162 335 OFFCURVE",
"1179 336 OFFCURVE",
"1196 339 CURVE SMOOTH",
"1228 344 OFFCURVE",
"1268 363 OFFCURVE",
"1294 391 CURVE SMOOTH",
"1320 419 OFFCURVE",
"1339 470 OFFCURVE",
"1339 534 CURVE SMOOTH",
"1339 620 LINE",
"1234 620 LINE",
"1234 548 LINE SMOOTH",
"1234 464 OFFCURVE",
"1213 432 OFFCURVE",
"1170 432 CURVE SMOOTH",
"1141 432 OFFCURVE",
"1125 466 OFFCURVE",
"1122 512 CURVE SMOOTH",
"1118 558 OFFCURVE",
"1107 618 OFFCURVE",
"1091 668 CURVE SMOOTH",
"1075 718 OFFCURVE",
"1030 762 OFFCURVE",
"963 777 CURVE",
"1030 790 OFFCURVE",
"1077 806 OFFCURVE",
"1122 837 CURVE SMOOTH",
"1166 868 OFFCURVE",
"1190 914 OFFCURVE",
"1190 977 CURVE SMOOTH",
"1190 1008 OFFCURVE",
"1185 1035 OFFCURVE",
"1176 1060 CURVE",
"1156 1108 OFFCURVE",
"1128 1138 OFFCURVE",
"1081 1162 CURVE SMOOTH",
"1033 1185 OFFCURVE",
"994 1195 OFFCURVE",
"934 1202 CURVE SMOOTH",
"873 1209 OFFCURVE",
"838 1210 OFFCURVE",
"779 1210 CURVE SMOOTH",
"447 1210 LINE",
"447 1128 LINE",
"574 1128 LINE",
"574 430 LINE",
"447 430 LINE",
"447 351 LINE",
"835 351 LINE",
"835 430 LINE",
"731 430 LINE",
"731 760 LINE",
"835 760 LINE SMOOTH",
"842 760 OFFCURVE",
"851 754 OFFCURVE",
"863 741 CURVE SMOOTH",
"886 715 OFFCURVE",
"917 651 OFFCURVE",
"929 580 CURVE SMOOTH",
"945 492 OFFCURVE",
"961 439 OFFCURVE",
"994 396 CURVE SMOOTH",
"1026 352 OFFCURVE",
"1073 335 OFFCURVE",
"1144 335 CURVE SMOOTH"
);
},
{
closed = 1;
nodes = (
"731 1128 LINE",
"779 1128 LINE SMOOTH",
"964 1128 OFFCURVE",
"1032 1093 OFFCURVE",
"1032 977 CURVE SMOOTH",
"1032 872 OFFCURVE",
"955 829 OFFCURVE",
"783 829 CURVE SMOOTH",
"731 829 LINE"
);
}
);
width = 1703;
}
);
note = registered;
unicode = 00AE;
},
{
glyphname = trademark;
lastChange = "2016-09-02 12:46:05 +0000";
layers = (
{
layerId = "EE746D13-63D7-48F9-B77E-C723CA6A668B";
paths = (
{
closed = 1;
nodes = (
"1229 770 LINE",
"1229 860 LINE",
"1112 860 LINE",
"1112 1386 LINE",
"1319 902 LINE SMOOTH",
"1330 874 OFFCURVE",
"1347 860 OFFCURVE",
"1370 860 CURVE SMOOTH",
"1390 860 OFFCURVE",
"1406 875 OFFCURVE",
"1418 905 CURVE SMOOTH",
"1600 1367 LINE",
"1600 860 LINE",
"1495 860 LINE",
"1495 770 LINE",
"1853 770 LINE",
"1853 860 LINE",
"1735 860 LINE",
"1735 1412 LINE",
"1851 1412 LINE",
"1851 1505 LINE",
"1549 1505 LINE",
"1383 1069 LINE",
"1205 1505 LINE",
"881 1505 LINE",
"881 1412 LINE",
"999 1412 LINE",
"999 860 LINE",
"880 860 LINE",
"880 770 LINE"
);
},
{
closed = 1;
nodes = (
"665 770 LINE",
"665 862 LINE",
"546 862 LINE",
"546 1412 LINE",
"723 1412 LINE",
"723 1201 LINE",
"826 1201 LINE",
"826 1505 LINE",
"143 1505 LINE",
"143 1201 LINE",
"246 1201 LINE",
"246 1412 LINE",
"423 1412 LINE",
"423 862 LINE",
"301 862 LINE",
"301 770 LINE"
);
}
);
width = 1991;
}
);
note = trademark;
unicode = 2122;
},
{
glyphname = degree;
lastChange = "2016-09-02 12:46:05 +0000";
layers = (
{
layerId = "EE746D13-63D7-48F9-B77E-C723CA6A668B";
paths = (
{
closed = 1;
nodes = (
"654 922 OFFCURVE",
"776 1048 OFFCURVE",
"776 1217 CURVE SMOOTH",
"776 1386 OFFCURVE",
"654 1509 OFFCURVE",
"461 1509 CURVE SMOOTH",
"265 1509 OFFCURVE",
"145 1386 OFFCURVE",
"145 1217 CURVE SMOOTH",
"145 1045 OFFCURVE",
"268 922 OFFCURVE",
"461 922 CURVE SMOOTH"
);
},
{
closed = 1;
nodes = (
"363 1018 OFFCURVE",
"283 1088 OFFCURVE",
"283 1217 CURVE SMOOTH",
"283 1344 OFFCURVE",
"368 1421 OFFCURVE",
"461 1421 CURVE SMOOTH",
"508 1421 OFFCURVE",
"549 1403 OFFCURVE",
"585 1367 CURVE SMOOTH",
"621 1330 OFFCURVE",
"639 1280 OFFCURVE",
"639 1217 CURVE SMOOTH",
"639 1094 OFFCURVE",
"554 1018 OFFCURVE",
"459 1018 CURVE SMOOTH"
);
}
);
width = 921;
}
);
note = degree;
unicode = 00B0;
},
{
glyphname = bar;
lastChange = "2016-09-02 12:46:05 +0000";
layers = (
{
layerId = "EE746D13-63D7-48F9-B77E-C723CA6A668B";
paths = (
{
closed = 1;
nodes = (
"333 -246 LINE",
"333 1606 LINE",
"153 1606 LINE",
"153 -246 LINE"
);
}
);
width = 487;
}
);
note = bar;
unicode = 007C;
},
{
glyphname = brokenbar;
lastChange = "2016-09-02 12:46:05 +0000";
layers = (
{
layerId = "EE746D13-63D7-48F9-B77E-C723CA6A668B";
paths = (
{
closed = 1;
nodes = (
"333 911 LINE",
"333 1606 LINE",
"153 1606 LINE",
"153 911 LINE"
);
},
{
closed = 1;
nodes = (
"333 -246 LINE",
"333 449 LINE",
"153 449 LINE",
"153 -246 LINE"
);
}
);
width = 487;
}
);
note = brokenbar;
unicode = 00A6;
},
{
glyphname = dagger;
lastChange = "2016-09-02 12:46:05 +0000";
layers = (
{
layerId = "EE746D13-63D7-48F9-B77E-C723CA6A668B";
paths = (
{
closed = 1;
nodes = (
"648 96 LINE",
"648 926 LINE",
"980 926 LINE",
"980 1073 LINE",
"648 1073 LINE",
"648 1479 LINE",
"478 1479 LINE",
"478 1073 LINE",
"146 1073 LINE",
"146 926 LINE",
"478 926 LINE",
"478 96 LINE"
);
}
);
width = 1127;
}
);
note = dagger;
unicode = 2020;
},
{
glyphname = daggerdbl;
lastChange = "2016-09-02 12:46:05 +0000";
layers = (
{
layerId = "EE746D13-63D7-48F9-B77E-C723CA6A668B";
paths = (
{
closed = 1;
nodes = (
"652 96 LINE",
"652 473 LINE",
"984 473 LINE",
"984 621 LINE",
"652 621 LINE",
"652 991 LINE",
"984 991 LINE",
"984 1139 LINE",
"652 1139 LINE",
"652 1479 LINE",
"482 1479 LINE",
"482 1139 LINE",
"150 1139 LINE",
"150 991 LINE",
"482 991 LINE",
"482 621 LINE",
"150 621 LINE",
"150 473 LINE",
"482 473 LINE",
"482 96 LINE"
);
}
);
width = 1135;
}
);
note = daggerdbl;
unicode = 2021;
},
{
glyphname = asciicircum;
lastChange = "2016-09-02 12:46:03 +0000";
layers = (
{
layerId = "EE746D13-63D7-48F9-B77E-C723CA6A668B";
paths = (
{
closed = 1;
nodes = (
"293 315 LINE",
"572 975 LINE",
"834 315 LINE",
"1004 315 LINE",
"678 1116 LINE",
"482 1116 LINE",
"127 315 LINE"
);
}
);
width = 1132;
}
);
note = asciicircum;
unicode = 005E;
},
{
glyphname = uni0307;
lastChange = "2016-09-02 12:46:05 +0000";
layers = (
{
layerId = "EE746D13-63D7-48F9-B77E-C723CA6A668B";
paths = (
{
closed = 1;
nodes = (
"414 1210 OFFCURVE",
"483 1278 OFFCURVE",
"483 1358 CURVE SMOOTH",
"483 1439 OFFCURVE",
"414 1507 OFFCURVE",
"334 1507 CURVE SMOOTH",
"253 1507 OFFCURVE",
"186 1441 OFFCURVE",
"186 1358 CURVE SMOOTH",
"186 1278 OFFCURVE",
"253 1210 OFFCURVE",
"334 1210 CURVE SMOOTH"
);
}
);
width = 669;
}
);
note = uni0307;
unicode = 0307;
},
{
glyphname = uni030F;
lastChange = "2016-09-02 12:46:05 +0000";
layers = (
{
layerId = "EE746D13-63D7-48F9-B77E-C723CA6A668B";
paths = (
{
closed = 1;
nodes = (
"1079 1233 LINE",
"958 1337 OFFCURVE",
"813 1472 OFFCURVE",
"645 1638 CURVE",
"544 1499 LINE",
"603 1439 OFFCURVE",
"841 1302 OFFCURVE",
"935 1254 CURVE SMOOTH",
"982 1229 OFFCURVE",
"1020 1209 OFFCURVE",
"1050 1194 CURVE"
);
},
{
closed = 1;
nodes = (
"690 1233 LINE",
"569 1337 OFFCURVE",
"424 1472 OFFCURVE",
"255 1638 CURVE",
"155 1499 LINE",
"214 1439 OFFCURVE",
"452 1302 OFFCURVE",
"546 1254 CURVE SMOOTH",
"593 1229 OFFCURVE",
"631 1209 OFFCURVE",
"661 1194 CURVE"
);
}
);
width = 1269;
}
);
note = uni030F;
unicode = 030F;
},
{
glyphname = uni0311;
lastChange = "2016-09-02 12:46:05 +0000";
layers = (
{
layerId = "EE746D13-63D7-48F9-B77E-C723CA6A668B";
paths = (
{
closed = 1;
nodes = (
"819 1202 LINE",
"816 1255 OFFCURVE",
"797 1312 OFFCURVE",
"759 1363 CURVE SMOOTH",
"721 1414 OFFCURVE",
"654 1448 OFFCURVE",
"577 1448 CURVE SMOOTH",
"500 1448 OFFCURVE",
"434 1413 OFFCURVE",
"398 1363 CURVE SMOOTH",
"361 1313 OFFCURVE",
"341 1257 OFFCURVE",
"338 1206 CURVE",
"467 1206 LINE",
"471 1279 OFFCURVE",
"523 1329 OFFCURVE",
"579 1329 CURVE SMOOTH",
"638 1329 OFFCURVE",
"689 1278 OFFCURVE",
"690 1202 CURVE"
);
}
);
width = 1189;
}
);
note = uni0311;
unicode = 0311;
},
{
glyphname = uni0326;
lastChange = "2016-09-02 12:46:05 +0000";
layers = (
{
layerId = "EE746D13-63D7-48F9-B77E-C723CA6A668B";
paths = (
{
closed = 1;
nodes = (
"612 -424 LINE SMOOTH",
"655 -309 OFFCURVE",
"705 -133 OFFCURVE",
"701 -69 CURVE",
"531 -69 LINE",
"533 -138 LINE SMOOTH",
"534 -185 OFFCURVE",
"535 -244 OFFCURVE",
"535 -317 CURVE SMOOTH",
"535 -390 OFFCURVE",
"534 -452 OFFCURVE",
"531 -504 CURVE",
"580 -510 LINE"
);
}
);
width = 1269;
}
);
note = uni0326;
unicode = 0326;
},
{
glyphname = acute;
lastChange = "2016-09-02 12:46:05 +0000";
layers = (
{
layerId = "EE746D13-63D7-48F9-B77E-C723CA6A668B";
paths = (
{
closed = 1;
nodes = (
"538 1238 LINE SMOOTH",
"691 1295 OFFCURVE",
"912 1398 OFFCURVE",
"971 1458 CURVE",
"870 1597 LINE",
"792 1540 LINE SMOOTH",
"687 1465 OFFCURVE",
"503 1325 OFFCURVE",
"395 1233 CURVE",
"424 1194 LINE"
);
}
);
width = 1269;
}
);
note = acute;
unicode = 00B4;
},
